<?xml version="1.0" encoding="UTF-8" standalone="no"?> <svg xmlns:dc="http://purl.org/dc/elements/1.1/" xmlns:cc="http://creativecommons.org/ns#" xmlns:rdf="http://www.w3.org/1999/02/22-rdf-syntax-ns#" xmlns:svg="http://www.w3.org/2000/svg" xmlns="http://www.w3.org/2000/svg" viewBox="0 0 186.66667 186.66667" height="186.66667" width="186.66667" xml:space="preserve" id="svg2"> <metadata id="metadata8"></metadata> <defs id="defs6"> <clipPath id="clipPath18" clipPathUnits="userSpaceOnUse"> <path id="path16" d="M 0,140 H 140 V 0 H 0 Z"></path> </clipPath> </defs> <g transform="matrix(1.3333333,0,0,-1.3333333,0,186.66667)" id="g10"> <g id="g12"> <g clip-path="url(#clipPath18)" id="g14"> <g transform="translate(66.6499,63)" id="g20"> <path id="path22" style="fill:#c7c8c9;fill-opacity:1;fill-rule:nonzero;stroke:none" d="M 0,0 V 0 -0.3 H 0.3 L 0.6,0 1.1,0.7 C 1,0.8 0.9,0.8 0.8,0.9"></path> </g> <g transform="translate(114.75,63)" id="g24"> <path id="path26" style="fill:#c7c8c9;fill-opacity:1;fill-rule:nonzero;stroke:none" d="M 0,0 C -0.4,0.1 -1.1,0.1 -2.2,0.1 H -3 -3.4 l 0.2,-0.3 h 0.4 0.3 0.6 0.799 0.301 c 0.5,0 0.9,0 1.1,-0.1 V 0.3 C 0.2,0.3 0.1,0.3 0,0.4"></path> </g> <g transform="translate(37.6499,63)" id="g28"> <path id="path30" style="fill:#c7c8c9;fill-opacity:1;fill-rule:nonzero;stroke:none" d="m 0,0 c -0.7,0.1 -1.4,0.1 -2.1,0.1 -0.6,0 -1.1,0 -1.7,-0.1 v -0.3 c 0.4,0 1,0.1 1.4,0.1 h 0.3 0.3 1.1 0.3 0.8 V 0.5 H 0.1"></path> </g> <g transform="translate(45.75,63)" id="g32"> <path id="path34" style="fill:#c7c8c9;fill-opacity:1;fill-rule:nonzero;stroke:none" d="m 0,0 c -1,0.1 -2,0.1 -2.9,0.1 -0.8,0 -1.5,0 -2.4,-0.1 h -0.3 -0.1 v -0.3 h 0.1 0.3 1.5 0.3 1 0.5 0.3 1.5 0.3 0.5 V 0.4 H 0.3"></path> </g> <g transform="translate(89.6504,63)" id="g36"> <path id="path38" style="fill:#c7c8c9;fill-opacity:1;fill-rule:nonzero;stroke:none" d="m 0,0 c -1.2,0.1 -2.2,0.1 -2.801,0.1 -0.8,0 -1.5,0 -2.199,-0.1 h -0.5 v -0.3 c 0.399,0 0.8,0.1 1.1,0.1 h 0.299 1.5 0.1 0.101 1.5 0.299 c 0.3,0 0.6,0 1,-0.1 V 0.4 C 0.3,0.4 0.199,0.4 0.1,0.5"></path> </g> <g transform="translate(32.0498,63)" id="g40"> <path id="path42" style="fill:#c7c8c9;fill-opacity:1;fill-rule:nonzero;stroke:none" d="m 0,0 c -1,0.1 -2,0.1 -2.9,0.1 -0.7,0 -1.6,0 -2.7,-0.1 h -0.3 v -0.3 h 0.6 0.3 c 0.5,0 1,0 1.5,0.1 h 0.3 0.7 0.7 0.3 c 0.4,0 1,0 1.5,-0.1 H 0.3 0.6 V 0.5 H 0.3"></path> </g> <g transform="translate(64.4502,63)" id="g44"> <path id="path46" style="fill:#c7c8c9;fill-opacity:1;fill-rule:nonzero;stroke:none" d="m 0,0 c -1.3,0.1 -2.4,0.1 -3,0.1 -0.7,0 -1.6,0 -2.5,-0.1 h -0.1 -0.1 v -0.3 h 0.1 c 0.5,0 1,0 1.5,0.1 h 0.3 1.2 0.3 0.3 1.5 0.3 0.8 V 0.5 H 0.3"></path> </g> <g transform="translate(108.4502,63)" id="g48"> <path id="path50" style="fill:#c7c8c9;fill-opacity:1;fill-rule:nonzero;stroke:none" d="m 0,0 c -1.9,0.1 -3.101,0.1 -3.8,0.1 h -1.1 -1 v -0.3 c 0.299,0 0.6,0 1,0.1 h 0.299 1.101 0.3 0.3 1.5 0.299 1.5 0.101 v 0.7 h -0.101 -0.2"></path> </g> <g transform="translate(82.8496,63)" id="g52"> <path id="path54" style="fill:#c7c8c9;fill-opacity:1;fill-rule:nonzero;stroke:none" d="M 0,0 C -0.699,0.1 -1.699,0.1 -2.899,0.1 H -5 h -0.1 -0.299 -0.3 v -0.3 c 0.399,0 0.8,0.1 1.3,0.1 h 0.299 1.3 0.101 0.3 1.5 0.299 c 0.3,0 0.6,0 0.901,-0.1 V 0.5 H 0"></path> </g> <g transform="translate(57.1499,66.2002)" id="g56"> <path id="path58" style="fill:#c7c8c9;fill-opacity:1;fill-rule:nonzero;stroke:none" d="m 0,0 h -0.1 l -0.1,-3.2 c -1.7,0 -3.2,0.099 -5,0.099 -1.3,0 -3,0 -4.8,-0.099 v -0.3 h 1.4 0.3 1.5 0.3 1.5 0.3 0.1 1.1 0.2 0.3 0.1 1.3 0.3 1.5 0.3 0.1 l 0.1,3.399 z M -4.3,8 V 7.6 h -0.1 c -1.2,0 -1.5,-0.3 -1.5,-1.5 v -6.201 c 0,-0.399 0,-0.799 0.1,-1.099 0.1,-0.1 0.1,-0.1 0.1,-0.2 l 0.1,-0.1 c -0.1,0.3 -0.1,0.6 -0.1,1.1 v 6.2 c 0,0.7 0.1,1.1 0.4,1.3 0.1,0.1 0.1,0.1 0.3,0.1 0.2,0.1 0.5,0.1 0.8,0.1 h 0.1 V 8 h -0.2"></path> </g> <g transform="translate(100.75,66.2002)" id="g60"> <path id="path62" style="fill:#c7c8c9;fill-opacity:1;fill-rule:nonzero;stroke:none" d="m 0,0 v -3.2 c -2.5,0.099 -4.6,0.099 -6.2,0.099 h -1 -1.6 c -0.3,0 -0.6,0 -1,-0.099 v -0.3 c 0.3,0 0.6,0.1 1,0.1 h 0.3 1.5 0.2 0.1 1 0.4 0.3 1.5 0.3 1.5 0.3 1.5 0.299 0.5 V 0 Z M -5.8,2.399 V -0.7 c 0,-0.2 0,-0.401 0.1,-0.6 0.099,-0.1 0.099,-0.1 0.2,-0.2 l 0.1,-0.101 c -0.1,0.201 -0.1,0.301 -0.1,0.5 V 2 h 0.1 0.2 0.099 C -4.8,2 -4.5,1.899 -4.3,1.899 L -4.4,2 C -4.5,2.1 -4.5,2.1 -4.601,2.1 -4.9,2.2 -5.101,2.2 -5.4,2.2"></path> </g> <g transform="translate(106.8496,68.2002)" id="g64"> <path id="path66" style="fill:#c7c8c9;fill-opacity:1;fill-rule:nonzero;stroke:none" d="M 0,0 V -2.9 C 0,-3.2 0,-3.3 0.101,-3.5 L 0.2,-3.601 C 0.3,-3.7 0.3,-3.7 0.4,-3.7 c 0,0.2 -0.099,0.3 -0.099,0.599 V -0.2 H 0.4 0.601 L 0.5,-0.101 0.4,0 H 0.301 0"></path> </g> <g transform="translate(30.3501,75.1001)" id="g68"> <path id="path70" style="fill:#c7c8c9;fill-opacity:1;fill-rule:nonzero;stroke:none" d="m 0,0 v -9.7 c 0,-0.3 0,-0.4 0.1,-0.6 0,-0.1 0.1,-0.1 0.1,-0.1 0.1,-0.1 0.1,-0.1 0.2,-0.1 0,0.2 -0.1,0.4 -0.1,0.6 v 9.7 c 0.3,0 0.6,0.1 0.8,0.1 h 0.4 0.3 c 0.2,0 0.4,-0.1 0.5,-0.1 L 2.2,-0.1 C 2.1,0 1.9,0.1 1.8,0.2 1.5,0.3 1.2,0.3 0.7,0.3 0.5,0.1 0.3,0 0,0"></path> </g> <g transform="translate(40.3501,74.5)" id="g72"> <path id="path74" style="fill:#c7c8c9;fill-opacity:1;fill-rule:nonzero;stroke:none" d="M 0,0 3.6,-8.9 C 3.7,-9.3 3.9,-9.5 4,-9.7 4,-9.6 4,-9.6 3.9,-9.6 L 3.4,-8.4 3.1,-7.8 1.6,-4.2 1.3,-3.6 0,0"></path> </g> <g transform="translate(36.8501,66.5996)" id="g76"> <path id="path78" style="fill:#c7c8c9;fill-opacity:1;fill-rule:nonzero;stroke:none" d="M 0,0 -0.3,-0.6 C -0.6,-1.199 -0.6,-1.699 -0.6,-1.899 V -2 l 0.1,-0.1 c 0.1,0 0.1,-0.099 0.2,-0.099 0,0.199 0.1,0.699 0.3,1.3 L 0.1,-0.8 0.4,-0.3 H 1.9 2.2 3.7 3.8 L 3.7,0"></path> </g> <g transform="translate(81.25,67.2002)" id="g80"> <path id="path82" style="fill:#c7c8c9;fill-opacity:1;fill-rule:nonzero;stroke:none" d="M 0,0 V -1.9 C 0,-2.2 0,-2.4 0.1,-2.601 0.2,-2.7 0.2,-2.7 0.399,-2.7 V -2.101 -0.2 L 0.8,0.3 1.1,0.6 1.2,0.7 1,1"></path> </g> <g transform="translate(67.0498,66.4004)" id="g84"> <path id="path86" style="fill:#c7c8c9;fill-opacity:1;fill-rule:nonzero;stroke:none" d="m 0,0 c 0.1,-0.2 0.2,-0.4 0.3,-0.5 -0.1,0.1 -0.1,0.3 -0.2,0.399 0,0 -0.1,0 -0.1,0.101"></path> </g> <g transform="translate(75.6504,67.9004)" id="g88"> <path id="path90" style="fill:#c7c8c9;fill-opacity:1;fill-rule:nonzero;stroke:none" d="m 0,0 c 0.199,-0.4 0.3,-0.9 0.3,-1.5 0,-2.2 -2,-3.601 -5,-3.601 -0.7,0 -1.401,0.201 -2,0.401 -0.3,0.099 -0.5,0.2 -0.7,0.3 0.1,-0.1 0.2,-0.1 0.299,-0.201 C -7,-4.7 -7,-4.7 -6.8,-4.7 c 0.4,-0.2 0.9,-0.401 1.5,-0.5 0.099,0 0.099,0 0.3,-0.101 C -4.701,-5.4 -4.601,-5.4 -4.301,-5.4 h 0.8 0.301 c 0.5,0.099 1,0.2 1.5,0.299 0.099,0 0.099,0.101 0.3,0.101 0.599,0.3 1.099,0.5 1.5,0.899 0.099,0.101 0.2,0.201 0.299,0.3 0.401,0.601 0.701,1.2 0.701,2 0,0.801 -0.3,1.5 -0.701,2 C -0.101,0.199 0,0.1 0,0 M -7.101,0.199 C -7,0.1 -7,0.1 -6.8,0.1 c 0.4,-0.201 0.9,-0.3 1.5,-0.401 0.1,0 0.1,-0.099 0.3,-0.099 0.6,-0.1 1,-0.3 1.399,-0.401 0.101,0 0.101,-0.099 0.3,-0.099 C -3.2,-1 -3,-1 -2.9,-1 -3,-0.9 -3,-0.9 -3.101,-0.9 -3.2,-0.801 -3.5,-0.7 -3.7,-0.601 -4.101,-0.5 -4.601,-0.301 -5.2,-0.2 -5.8,-0.101 -6.3,0.1 -6.7,0.199 -7,0.3 -7.3,0.5 -7.601,0.6 c 0,-0.1 0.301,-0.3 0.5,-0.401"></path> </g> <g transform="translate(98.0498,71)" id="g92"> <path id="path94" style="fill:#c7c8c9;fill-opacity:1;fill-rule:nonzero;stroke:none" d="M 0,0 V -0.5 -1 -1.5 -2 c 0,-0.9 0.101,-1.7 0.101,-2.4 h -0.5 c 0,-0.1 0.099,-0.2 0.099,-0.3 h 0.7 c -0.1,0.7 -0.1,1.5 -0.1,2.4 0,0.8 0,1.5 0.1,2.2 z M -3.1,2.1 V -1 h 0.3 v 2.9 c 0,0.1 0,0.3 0.1,0.3 0.1,0.1 0.1,0.1 0.3,0.1 0.1,0 0.4,0.1 0.7,0.1 h 0.8 0.3 c 0.4,0 0.8,-0.1 1,-0.2 C 0.3,2.3 0.1,2.4 0,2.5 -0.5,2.6 -1.1,2.7 -1.9,2.7 -3,2.6 -3.1,2.6 -3.1,2.1"></path> </g> <g transform="translate(100.3496,74.2998)" id="g96"> <path id="path98" style="fill:#c7c8c9;fill-opacity:1;fill-rule:nonzero;stroke:none" d="m 0,0 h -0.199 v -2.7 h -0.5 c 0,-0.1 0.099,-0.2 0.099,-0.3 H 0 0.101 L 0,0"></path> </g> <g transform="translate(34.5498,75.8999)" id="g100"> <path id="path102" style="fill:#c7c8c9;fill-opacity:1;fill-rule:nonzero;stroke:none" d="m 0,0 0.1,-3.5 h -0.5 c 0,-0.1 0,-0.2 0.1,-0.3 H 0.3 L 0.2,0 H 0"></path> </g> <g transform="translate(112.5498,72.8999)" id="g104"> <path id="path106" style="fill:#c7c8c9;fill-opacity:1;fill-rule:nonzero;stroke:none" d="m 0,0 c 0.2,-0.4 0.3,-0.8 0.3,-1.3 0,-1.4 -0.9,-2.4 -2.5,-2.8 0.1,-0.1 0.1,-0.2 0.2,-0.3 0.601,0.1 1,0.3 1.4,0.6 0.1,0.1 0.201,0.1 0.3,0.2 0.6,0.5 0.901,1.2 0.901,2 C 0.601,-0.9 0.4,-0.3 0,0.1 V 0"></path> </g> <g transform="translate(68.1499,72.3999)" id="g108"> <path id="path110" style="fill:#c7c8c9;fill-opacity:1;fill-rule:nonzero;stroke:none" d="m 0,0 v -0.3 c 0.1,-0.1 0.1,-0.2 0.3,-0.3 v 0.3 C 0.3,0 0.4,0.2 0.5,0.4 0.6,0.5 0.6,0.6 0.8,0.7 1.1,1 1.6,1.3 2.3,1.3 H 2.6 3 C 3.3,1.3 3.7,1.2 4,1.2 4.1,1.2 4.1,1.1 4.3,1.1 4.6,1 4.7,1 5,0.8 4.7,1 4.4,1.2 4.1,1.3 3.7,1.4 3.2,1.5 2.8,1.5 0.9,1.7 0,0.9 0,0"></path> </g> <g transform="translate(58.6499,73.5)" id="g112"> <path id="path114" style="fill:#c7c8c9;fill-opacity:1;fill-rule:nonzero;stroke:none" d="m 0,0 h 0.1 0.1 0.5 c 0,0.1 -0.1,0.1 -0.1,0.2 0,0 0,0.1 -0.1,0.1 H 0.2 0.1 0"></path> </g> <g transform="translate(47.1499,73.6001)" id="g116"> <path id="path118" style="fill:#c7c8c9;fill-opacity:1;fill-rule:nonzero;stroke:none" d="M 0,0 V 0 C 0.3,0 0.4,0 0.6,-0.1 0.5,0 0.5,0.1 0.5,0.1 H 0.4 0.3 0.2 0"></path> </g> <g transform="translate(102.6504,73.6001)" id="g120"> <path id="path122" style="fill:#c7c8c9;fill-opacity:1;fill-rule:nonzero;stroke:none" d="M 0,0 C 0.3,0 0.6,0 0.8,-0.1 0.699,0 0.699,0.1 0.6,0.2 H 0.5 0.3 0.1 -0.101"></path> </g> <g transform="translate(77.25,73.6001)" id="g124"> <path id="path126" style="fill:#c7c8c9;fill-opacity:1;fill-rule:nonzero;stroke:none" d="M 0,0 C 0.3,0 0.4,0 0.6,-0.1 0.5,0 0.5,0 0.5,0.1 L 0.4,0.2 C 0.3,0.2 0.1,0.3 0,0.3"></path> </g> <g transform="translate(90.9502,73.6001)" id="g128"> <path id="path130" style="fill:#c7c8c9;fill-opacity:1;fill-rule:nonzero;stroke:none" d="M 0,0 H 0.1 0.5 C 0.5,0.1 0.399,0.1 0.399,0.1 0.399,0.2 0.3,0.2 0.3,0.2 H 0.2 0.1 -0.101"></path> </g> <g transform="translate(64.4502,74.2002)" id="g132"> <path id="path134" style="fill:#c7c8c9;fill-opacity:1;fill-rule:nonzero;stroke:none" d="m 0,0 v -0.4 h -0.2 c -1.1,0 -1.4,-0.4 -1.4,-1.5 v -6.9 c 0,-0.301 0,-0.5 0.1,-0.7 l 0.1,-0.101 C -1.3,-9.7 -1.3,-9.7 -1.2,-9.7 c 0,0.2 -0.1,0.4 -0.1,0.599 V -2.2 c 0,0.7 0.1,1.1 0.5,1.3 0.1,0.1 0.1,0.1 0.3,0.1 0.2,0.1 0.4,0.1 0.7,0.1 H 0.4 L 0.4,0 H 0"></path> </g> <g transform="translate(88.0498,74.2002)" id="g136"> <path id="path138" style="fill:#c7c8c9;fill-opacity:1;fill-rule:nonzero;stroke:none" d="m 0,0 v -0.4 c -1,-0.1 -1.5,-0.4 -2.1,-1.2 l -2,-2.4 0.201,-0.3 1.099,1.3 0.3,0.3 0.7,0.8 c 0.3,0.3 0.5,0.5 0.7,0.7 0.1,0.1 0.1,0.1 0.3,0.1 0.3,0.2 0.7,0.3 1.1,0.3 v 0.6 C 0.2,0 0.101,0 0,0 m -4,-0.6 h 0.4 c 0,0.1 0,0.1 -0.1,0.2 H -4"></path> </g> <g transform="translate(75.25,74.2002)" id="g140"> <path id="path142" style="fill:#c7c8c9;fill-opacity:1;fill-rule:nonzero;stroke:none" d="m 0,0 h -0.1 v -2.9 h -0.2 c 0,-0.1 0.1,-0.2 0.1,-0.3 H 0.1 0.2 V 0"></path> </g> <g transform="translate(26.9502,75.1001)" id="g144"> <path id="path146" style="fill:#c7c8c9;fill-opacity:1;fill-rule:nonzero;stroke:none" d="M 0,0 C -1.8,0 -2.6,-0.6 -2.9,-2.7 H -3.3 V -3 h 0.2 0.5 c 0.1,1.1 0.4,1.8 0.9,2.2 0.1,0.1 0.1,0.1 0.3,0.2 0.4,0.2 0.8,0.3 1.5,0.4 H 0.3 V 0"></path> </g> <g transform="translate(106.8496,73.1001)" id="g148"> <path id="path150" style="fill:#c7c8c9;fill-opacity:1;fill-rule:nonzero;stroke:none" d="m 0,0 v -3.5 h 0.2 0.101 v 3.2 C 0.301,0 0.4,0.1 0.4,0.2 0.5,0.3 0.7,0.3 1,0.3 c 0.3,0 0.601,0 0.8,-0.1 0.1,0 0.2,-0.1 0.301,-0.1 0,0 0,0.1 -0.101,0.1 C 1.9,0.3 1.8,0.4 1.7,0.5 1.4,0.6 1.101,0.6 0.7,0.6 0.101,0.7 0,0.5 0,0"></path> </g> <g transform="translate(82.6504,74.2002)" id="g152"> <path id="path154" style="fill:#c7c8c9;fill-opacity:1;fill-rule:nonzero;stroke:none" d="M 0,0 V -0.4 H -0.101 C -1.2,-0.4 -1.4,-0.8 -1.4,-2.1 v -2.6 l 0.299,0.3 v 2 c 0,0.8 0.101,1.3 0.401,1.5 0.099,0.1 0.099,0.1 0.3,0.1 0.2,0.1 0.4,0.1 0.599,0.1 H 0.3 v 0.6 C 0.199,0.1 0.199,0 0,0"></path> </g> <g transform="translate(37.4502,68)" id="g156"> <path id="path158" style="fill:#c7c8c9;fill-opacity:1;fill-rule:nonzero;stroke:none" d="M 0,0 H 0.4 L 1.1,1.8 1.3,2.3 1.1,2.8"></path> </g> <g transform="translate(23.5498,75.8999)" id="g160"> <path id="path162" style="fill:#949598;fill-opacity:1;fill-rule:nonzero;stroke:none" d="M 0,0 H 1.7 C 1.3,-0.1 1,-0.2 0.7,-0.3 H 0.1 V -0.6 H 0.4 C 0.3,-0.7 0.2,-0.8 0.1,-0.9 L 0,-2 c 0,0.1 0.1,0.1 0.1,0.2 0.1,0.1 0.1,0.2 0.1,0.3 0.1,0.1 0.1,0.2 0.2,0.3 0.1,0.1 0.1,0.2 0.2,0.3 0.1,0.1 0.2,0.3 0.3,0.4 0.1,0.1 0.3,0.2 0.4,0.3 C 1.6,0 2,0.1 2.4,0.1 h 0.2 c 0.1,0 1.1,0.1 1.3,0 H 4.3 5.6 V -0.2 H 4.3 V -0.5 H 5.6 V -0.8 H 4.3 V -1.1 H 5.6 V -1.4 H 4.3 V -1.7 H 5.6 V -2 H 4.3 V -2.3 H 5.6 V -2.6 H 4.3 V -2.9 H 5.6 V -3.2 H 4.3 V -3.5 H 5.6 V -3.8 H 4.3 V -4.1 H 5.6 V -4.4 H 4.3 V -4.7 H 5.6 V -5 H 4.3 V -5.3 H 5.6 V -5.6 H 4.3 V -5.899 H 5.6 V -6.2 H 4.3 V -6.5 H 5.6 V -6.8 H 4.3 V -7.1 H 5.6 V -7.4 H 4.3 V -7.7 H 5.6 V -8 H 4.3 v -0.299 h 1.3 v -0.3 H 4.3 V -8.9 H 5.6 V -9.2 H 4.3 V -9.5 H 5.6 V -9.799 H 4.3 V -9.9 -10.099 H 5.6 V -10.4 H 4.3 c 0,-0.1 0,-0.199 -0.1,-0.3 h 1.5 c 0,-0.099 0.1,-0.2 0.1,-0.3 H 4.1 C 4,-11.099 4,-11.2 4,-11.299 h 2 c 0.1,-0.101 0.2,-0.3 0.3,-0.3 H 3.6 c -0.2,-0.101 -0.4,-0.2 -0.7,-0.301 1.1,0.101 2,0.101 2.5,0.101 0.7,0 1.3,0 2,-0.101 -0.1,0 -0.3,0.101 -0.3,0.101 C 7,-11.7 6.9,-11.7 6.8,-11.7 c -0.1,0.101 -0.3,0.2 -0.3,0.3 -0.1,0.101 -0.1,0.2 -0.2,0.301 -0.1,0.099 -0.1,0.199 -0.1,0.3 0,0.099 -0.1,0.2 -0.1,0.299 V -10.2 0 H 6.5 C 6.8,0 7.9,0 8.2,-0.1 H 9.7 V -0.399 H 9.101 C 9.2,-0.5 9.4,-0.6 9.5,-0.699 H 9.8 V -1 L 9.9,-1.1 C 10,-1.199 10,-1.199 10,-1.299 c 0.1,-0.1 0.1,-0.301 0.2,-0.4 0.1,-0.1 0.1,-0.2 0.1,-0.301 0,-0.1 0.1,-0.1 0.1,-0.1 L 10.3,0.101 H 9.8 C 8.2,0 6.4,0 4.1,0 2.4,0 1.2,0 0.1,0.101"></path> </g> <g transform="translate(56.1499,65.9004)" id="g164"> <path id="path166" style="fill:#949598;fill-opacity:1;fill-rule:nonzero;stroke:none" d="M 0,0 V 0 C 0,-0.101 -0.1,-0.2 -0.1,-0.301 -0.2,-0.4 -0.2,-0.601 -0.3,-0.7 -0.4,-0.801 -0.4,-0.801 -0.4,-0.9 -0.4,-1 -0.5,-1 -0.5,-1 V -1.301 H -0.7 C -0.8,-1.4 -0.9,-1.5 -1,-1.601 h 0.5 V -1.9 h -1.1 c -0.3,-0.1 -0.6,-0.201 -1,-0.3 h 2 0.4 0.1 L 0,0 0.1,0.1 0,0"></path> </g> <g transform="translate(50.5498,74.3999)" id="g168"> <path id="path170" style="fill:#949598;fill-opacity:1;fill-rule:nonzero;stroke:none" d="m 0,0 c -0.1,0 -0.1,-0.1 0,0 l -2.7,-0.1 c 0.1,-0.1 0.3,-0.2 0.3,-0.3 h 2 c -0.1,-0.1 -0.1,-0.2 -0.2,-0.3 h -1.6 c 0.1,-0.1 0.1,-0.2 0.1,-0.3 h 1.5 c 0,-0.1 -0.1,-0.2 -0.1,-0.3 H -2 v -0.3 h 1.3 V -1.7 -1.9 H -2 v -0.3 h 1.3 V -2.5 H -2 v -0.3 h 1.3 V -3.1 H -2 v -0.3 h 1.3 V -3.7 H -2 V -4 h 1.3 V -4.3 H -2 v -0.3 h 1.3 V -4.9 H -2 v -0.3 h 1.3 V -5.5 H -2 v -0.299 h 1.3 V -6.1 H -2 v -0.3 h 1.3 V -6.7 H -2 V -7 h 1.3 V -7.299 H -2 V -7.6 h 1.3 V -7.9 H -2 v -0.3 h 1.3 V -8.5 H -2 v -0.099 -0.2 h 1.4 c 0,-0.101 0.1,-0.201 0.1,-0.3 H -2 c 0,-0.101 0,-0.2 -0.1,-0.301 h 1.6 c 0.1,-0.1 0.1,-0.199 0.2,-0.3 h -1.8 c 0,-0.099 -0.1,-0.2 -0.1,-0.3 H 0 c 0.1,-0.099 0.3,-0.299 0.4,-0.299 h -2.8 c -0.1,-0.101 -0.3,-0.201 -0.4,-0.3 1.5,0 2.9,0.099 4,0.099 h 0.6 c -0.2,0 -0.3,0.1 -0.4,0.1 -0.1,0.101 -0.3,0.101 -0.4,0.101 C 0.8,-10.2 0.7,-10.099 0.6,-10 0.5,-9.9 0.4,-9.799 0.3,-9.7 0.2,-9.6 0.2,-9.5 0.1,-9.4 0,-9.299 0,-9.2 0,-9.1 0,-9 -0.1,-8.9 -0.1,-8.799 -0.1,-8.7 -0.2,-8.6 -0.2,-8.5 v 0.3 0.3 6.4 0.3 c 0,0.1 0,0.2 0.1,0.301 C -0.1,-0.8 0,-0.7 0,-0.6 0.1,-0.5 0.1,-0.3 0.2,-0.3 0.3,-0.2 0.4,-0.1 0.5,0 0.6,0 0.6,0.1 0.6,0.1 0.4,0 0.2,0 0,0"></path> </g> <g transform="translate(99.8496,65.5996)" id="g172"> <path id="path174" style="fill:#949598;fill-opacity:1;fill-rule:nonzero;stroke:none" d="M 0,0 V 0 C -0.1,-0.1 -0.1,-0.199 -0.1,-0.3 -0.199,-0.399 -0.199,-0.399 -0.199,-0.5 -0.3,-0.6 -0.3,-0.6 -0.3,-0.699 v -0.2 H -0.5 C -0.6,-1 -0.699,-1.1 -0.8,-1.199 h 0.5 V -1.5 h -1.099 c -0.401,-0.1 -0.8,-0.199 -1.201,-0.3 0.901,0 1.8,0 2.901,-0.099 V 0.2 C 0.101,0.2 0,0.101 0,0"></path> </g> <g transform="translate(97.1504,70.7002)" id="g176"> <path id="path178" style="fill:#949598;fill-opacity:1;fill-rule:nonzero;stroke:none" d="M 0,0 C -0.101,-0.1 -0.101,-0.2 -0.101,-0.3 -0.2,-0.4 -0.2,-0.6 -0.301,-0.6 -0.4,-0.7 -0.5,-0.8 -0.601,-0.9 H -0.5 v -0.3 h -0.601 c -0.2,-0.1 -0.399,-0.1 -0.599,-0.1 0.3,0 0.399,-0.1 0.599,-0.1 H -0.5 V -1.7 H -0.601 C -0.5,-1.8 -0.4,-1.9 -0.301,-2 -0.2,-2.1 -0.101,-2.3 0,-2.4 0.1,-2.5 0.1,-2.601 0.1,-2.7 v 0.2 1.2 0.4 0.3 0.3 C 0,-0.2 0,0 0,0 L 0.1,0.1 C 0,0.1 0,0.1 0,0 m -3,3.7 c 0,0 -0.101,0 0,0 L -5.4,3.6 C -5.301,3.5 -5.2,3.4 -5.101,3.3 H -3.4 C -3.5,3.2 -3.5,3.1 -3.5,3 H -5 c 0.1,-0.1 0.1,-0.2 0.1,-0.3 h 1.299 V 2.4 H -4.9 V 2.1 h 1.299 V 1.8 H -4.9 V 1.5 h 1.299 V 1.2 H -4.9 V 0.9 h 1.299 V 0.6 H -4.9 V 0.3 h 1.299 V 0 H -4.9 v -0.3 h 1.299 V -0.6 H -4.9 v -0.3 h 1.299 V -1.2 H -4.9 v -0.3 h 1.299 V -1.8 H -4.9 v -0.3 h 1.299 V -2.4 H -4.9 v -0.3 h 1.299 V -3 H -4.9 v -0.3 h 1.299 V -3.6 H -4.9 v -0.3 h 1.299 V -4.2 H -4.9 v -0.2 -0.1 h 1.299 V -4.8 -4.899 H -4.9 V -5.2 h 1.299 c 0,-0.1 0,-0.199 0.1,-0.3 H -4.9 c 0,-0.1 0,-0.2 -0.101,-0.3 h 1.5 C -3.4,-5.899 -3.4,-6 -3.4,-6.1 H -5 C -5.101,-6.2 -5.101,-6.3 -5.101,-6.399 H -3 C -2.9,-6.5 -2.7,-6.7 -2.601,-6.7 H -5.4 C -5.5,-6.8 -5.601,-6.899 -5.7,-7 h 1.7 1 1.3 0.599 C -1.2,-7 -1.4,-6.899 -1.5,-6.899 -1.601,-6.8 -1.801,-6.8 -1.9,-6.8 c -0.201,0.1 -0.3,0.2 -0.401,0.3 -0.099,0.101 -0.2,0.2 -0.3,0.3 C -2.7,-6.1 -2.7,-6 -2.7,-5.899 -2.801,-5.8 -2.801,-5.7 -2.801,-5.6 c 0,0.1 -0.099,0.201 -0.099,0.3 v 7.9 c 0,0.3 0.099,0.4 0.099,0.5 C -2.7,3.2 -2.7,3.2 -2.7,3.3 l 0.099,0.1 0.1,0.1 C -2.7,3.7 -2.9,3.7 -3,3.7"></path> </g> <g transform="translate(98.75,74.5)" id="g180"> <path id="path182" style="fill:#949598;fill-opacity:1;fill-rule:nonzero;stroke:none" d="m 0,0 v -0.1 h -1.3 c 0.3,-0.1 0.6,-0.1 0.8,-0.3 H 0.1 V -0.7 H -0.101 C 0,-0.8 0,-0.8 0.1,-1 0.2,-1.1 0.3,-1.3 0.399,-1.4 0.5,-1.5 0.5,-1.6 0.5,-1.7 0.6,-1.8 0.6,-1.9 0.6,-2 v 1.9 C 0.4,0 0.2,0 0,0"></path> </g> <g transform="translate(62.25,74.3999)" id="g184"> <path id="path186" style="fill:#949598;fill-opacity:1;fill-rule:nonzero;stroke:none" d="m 0,0 v 0 l -2.8,-0.1 c 0.1,-0.1 0.3,-0.2 0.3,-0.3 h 2 c -0.1,-0.1 -0.1,-0.2 -0.2,-0.3 h -1.7 c 0.1,-0.1 0.1,-0.2 0.1,-0.3 h 1.5 c 0,-0.1 -0.1,-0.2 -0.1,-0.3 h -1.4 v -0.3 h 1.4 v -0.2 -0.1 h -1.3 v -0.3 h 1.3 v -0.3 h -1.3 v -0.3 h 1.3 v -0.3 h -1.3 v -0.3 h 1.3 V -3.7 H -2.2 V -4 h 1.3 v -0.3 h -1.3 v -0.3 h 1.3 v -0.3 h -1.3 v -0.3 h 1.3 v -0.3 h -1.3 v -0.299 h 1.3 V -6.1 h -1.3 v -0.3 h 1.3 V -6.7 H -2.2 V -7 h 1.3 V -7.299 H -2.2 V -7.6 h 1.3 v -0.3 h -1.3 v -0.3 h 1.3 V -8.5 H -2.2 V -8.599 -8.7 h 1.4 V -9 h -1.4 v -0.299 h 1.5 c 0,-0.101 0.1,-0.201 0.1,-0.3 h -1.6 c 0,-0.101 -0.1,-0.2 -0.1,-0.301 h 1.8 c 0.1,-0.1 0.1,-0.3 0.3,-0.3 h -2.4 c -0.1,-0.099 -0.2,-0.2 -0.4,-0.3 h 1.8 1.3 0.6 c -0.1,0.1 -0.1,0.1 -0.2,0.1 -0.1,0.101 -0.1,0.101 -0.2,0.101 -0.1,0.099 -0.2,0.2 -0.3,0.299 -0.1,0.1 -0.1,0.201 -0.1,0.3 -0.1,0.101 -0.1,0.2 -0.1,0.3 0,0.101 0,0.2 -0.1,0.301 v 0.3 7.099 0.2 0.3 c 0,0.1 0.1,0.2 0.1,0.301 0,0.099 0.1,0.199 0.1,0.299 0.1,0.1 0.1,0.3 0.2,0.3 l 0.1,0.1 c 0.1,0.1 0.1,0.1 0.2,0.1 C 0.5,-0.1 0.5,0 0.5,0 0.4,0 0.2,0 0,0"></path> </g> <g transform="translate(108.25,69.1001)" id="g188"> <path id="path190" style="fill:#949598;fill-opacity:1;fill-rule:nonzero;stroke:none" d="m 0,0 c 0.1,-0.1 0.3,-0.1 0.4,-0.2 h -1.5 c 0.2,-0.1 0.3,-0.2 0.4,-0.3 H 0.7 C 0.8,-0.6 0.9,-0.7 1,-0.8 h -1.5 c 0.1,-0.1 0.1,-0.2 0.3,-0.3 H 1.3 C 1.4,-1.2 1.5,-1.3 1.6,-1.4 H 0.1 L 0.2,-1.5 0.3,-1.6 H 1.8 L 2,-1.9 2.1,-2 H 0.6 L 0.8,-2.3 H 2.3 L 2.6,-2.6 H 1.1 L 1.3,-2.9 H 2.8 L 3.1,-3.2 H 1.6 L 1.8,-3.5 H 3.3 L 3.6,-3.8 H 1.9 L 2.1,-4.1 H 3.6 L 3.7,-4.2 C 3.8,-4.3 3.8,-4.3 3.8,-4.4 H 2.3 L 2.5,-4.7 H 4.1 L 4.399,-5 H 2.7 L 2.899,-5.3 H 4 4.8 5.1 5.399 C 5.3,-5.2 5.1,-5.2 5,-5 4.899,-4.9 4.7,-4.8 4.7,-4.7 4.6,-4.6 4.5,-4.5 4.399,-4.4 4.3,-4.3 4.3,-4.3 4.3,-4.2 l -1.8,2.5 c 0,0 -0.101,0.2 -0.2,0.3 C 2.1,-1.1 2,-1 1.8,-0.8 1.7,-0.7 1.5,-0.5 1.5,-0.5 L 1.399,-0.4 C 1.1,-0.3 0.8,-0.1 0.399,0 H 0"></path> </g> <g transform="translate(105.9502,74.5)" id="g192"> <path id="path194" style="fill:#949598;fill-opacity:1;fill-rule:nonzero;stroke:none" d="m 0,0 c -0.101,0 -0.101,-0.1 -0.2,-0.1 h -2.2 c 0.099,-0.1 0.299,-0.2 0.299,-0.3 H -0.4 c -0.1,-0.1 -0.1,-0.2 -0.1,-0.3 h -1.3 c 0.1,-0.1 0.1,-0.2 0.1,-0.3 h 1.3 V -1.3 H -1.601 V -1.6 H -0.4 V -1.9 H -1.601 V -2.2 H -0.4 V -2.5 H -1.601 V -2.8 H -0.4 V -3.1 H -1.601 V -3.4 H -0.4 V -3.7 H -1.601 V -4 H -0.4 V -4.3 H -1.601 V -4.6 H -0.4 V -4.9 H -1.601 V -5.2 H -0.4 V -5.5 H -1.601 V -5.8 H -0.4 V -6.1 H -1.601 V -6.399 H -0.4 V -6.7 H -1.601 V -7 H -0.4 V -7.3 H -1.601 V -7.6 H -0.4 v -0.299 h -1.201 v -0.3 H -0.4 V -8.5 H -1.601 V -8.6 -8.699 H -0.4 V -9 h -1.4 c 0,-0.1 0,-0.199 -0.1,-0.3 h 1.299 c 0,-0.099 0.101,-0.2 0.101,-0.3 H -2 C -2.101,-9.699 -2.101,-9.8 -2.101,-9.899 H -0.4 c 0.1,-0.101 0.1,-0.3 0.299,-0.3 H -2.3 c -0.1,-0.101 -0.301,-0.2 -0.4,-0.301 h 1 2.099 0.5 C 0.699,-10.399 0.6,-10.399 0.5,-10.199 0.399,-10.1 0.3,-10 0.199,-9.899 0.1,-9.8 0.1,-9.699 0.1,-9.6 0,-9.5 0,-9.3 0,-9 V -8.899 -8.6 -0.8 -0.5 0 C 0.1,0.1 0.1,0.1 0.2,0.3 0.3,0.4 0.3,0.4 0.399,0.4 0.399,0 0.2,0 0,0"></path> </g> <g transform="translate(108.1504,74.5)" id="g196"> <path id="path198" style="fill:#949598;fill-opacity:1;fill-rule:nonzero;stroke:none" d="M 0,0 C 0.3,-0.1 0.399,-0.1 0.399,-0.1 0.6,-0.2 0.8,-0.3 0.899,-0.4 H 2 C 2.3,-0.5 2.399,-0.6 2.6,-0.7 H 1.3 C 1.399,-0.8 1.399,-0.9 1.5,-1 H 2.899 C 3,-1.1 3.1,-1.2 3.199,-1.3 h -1.5 C 1.8,-1.4 1.8,-1.5 1.8,-1.6 h 1.5 c 0.099,-0.1 0.099,-0.2 0.099,-0.3 h -1.5 c 0,-0.1 0.1,-0.2 0.1,-0.3 h 1.5 V -2.5 -2.6 H 2 V -2.8 -2.9 H 3.5 C 3.5,-3 3.399,-3.1 3.399,-3.2 H 2 C 2,-3.3 2,-3.4 1.899,-3.5 h 1.3 C 3.1,-3.6 3.1,-3.7 3,-3.8 H 1.8 C 1.8,-3.9 1.699,-4 1.699,-4.1 H 2.8 C 2.699,-4.2 2.5,-4.3 2.399,-4.4 h -0.9 C 1.399,-4.5 1.399,-4.6 1.3,-4.7 H 1.8 C 1.499,-4.8 1.399,-4.9 0.999,-5 l -0.1,-0.1 0.3,0.1 0.2,0.1 c 0.401,0.1 0.701,0.1 1,0.3 0.1,0 0.1,0.1 0.201,0.1 0.099,0.1 0.099,0.1 0.2,0.1 0.099,0 0.099,0.1 0.099,0.1 0.1,0.1 0.3,0.2 0.401,0.3 0.2,0.2 0.3,0.4 0.399,0.6 0.101,0.3 0.2,0.5 0.2,0.8 v 0.1 0.1 c 0,0.2 0,0.3 -0.099,0.5 0,0.1 -0.101,0.2 -0.101,0.3 C 3.6,-1.5 3.6,-1.4 3.6,-1.3 3.5,-1.2 3.5,-1.1 3.3,-1 L 3.199,-0.9 C 3,-0.7 2.8,-0.6 2.399,-0.5 2,-0.4 1.8,-0.3 1.3,-0.2 1,-0.1 0.5,0 0,0 -0.101,0 -0.101,0 0,0"></path> </g> <g transform="translate(82.6504,70.2002)" id="g200"> <path id="path202" style="fill:#949598;fill-opacity:1;fill-rule:nonzero;stroke:none" d="M 0,0 V 0 C -0.101,-0.1 -0.301,-0.3 -0.301,-0.3 H 0.3 l 0.3,-0.3 h -1.1 c -0.101,-0.1 -0.2,-0.2 -0.2,-0.2 l 0.099,-0.1 h 1.5 l 0.3,-0.3 h -1.5 l 0.2,-0.3 h 1.5 l 0.3,-0.3 h -1.5 l 0.2,-0.301 h 1.5 L 2.199,-2.4 H 0.5 l 0.199,-0.3 h 1.5 L 2.5,-3 H 1 l 0.199,-0.3 h 1.5 L 3,-3.6 H 1.5 l 0.199,-0.3 h 1.5 L 3.5,-4.2 H 2 l 0.199,-0.3 h 1.5 L 4,-4.8 H 2.399 C 2.5,-4.9 2.5,-5 2.5,-5.1 h 1.699 l 0.2,-0.2 C 4.399,-5.4 4.5,-5.4 4.5,-5.4 H 2.699 V -5.5 -5.7 H 4.8 C 4.899,-5.8 5.1,-6 5.199,-6 H 2.5 C 2.399,-6.1 2.3,-6.2 2.199,-6.3 H 4 c 0.399,0 1.1,0 2.199,-0.1 C 6.1,-6.3 6.1,-6.3 5.899,-6.3 5.8,-6.2 5.8,-6.2 5.699,-6.2 5.6,-6.1 5.399,-6 5.3,-5.9 5.199,-5.8 5.1,-5.7 5,-5.6 5,-5.5 0.5,0.3 0.5,0.3 0.3,0.3 0.199,0.2 0,0"></path> </g> <g transform="translate(85.9502,74.3999)" id="g204"> <path id="path206" style="fill:#949598;fill-opacity:1;fill-rule:nonzero;stroke:none" d="m 0,0 c 0,-0.1 0,-0.1 0,0 h -1.3 c 0.1,-0.1 0.199,-0.2 0.3,-0.3 h 0.6 C -0.5,-0.4 -0.7,-0.5 -0.7,-0.6 H -0.8 V -0.7 -0.8 C -0.8,-0.9 -0.9,-1 -0.9,-1.1 -1,-1.2 -1,-1.3 -1,-1.4 -1.101,-1.5 -1.101,-1.6 -1.2,-1.7 l 0.599,0.8 0.101,0.1 c 0.1,0.1 0.2,0.2 0.3,0.3 0.099,0.1 0.3,0.2 0.4,0.3 0.1,0.1 0.3,0.2 0.4,0.3 0,0 0.1,0 0.1,0.1 C 0.399,0 0.2,0 0,0"></path> </g> <g transform="translate(80.5498,74.3999)" id="g208"> <path id="path210" style="fill:#949598;fill-opacity:1;fill-rule:nonzero;stroke:none" d="m 0,0 v 0 l -2.5,-0.1 c 0.101,-0.1 0.2,-0.2 0.3,-0.3 h 1.9 C -0.399,-0.5 -0.399,-0.6 -0.399,-0.7 H -2 c 0.101,-0.1 0.101,-0.2 0.101,-0.3 H -0.5 c 0,-0.1 -0.1,-0.2 -0.1,-0.3 H -1.899 V -1.6 H -0.6 V -1.9 H -1.899 V -2.2 H -0.6 V -2.5 H -1.899 V -2.8 H -0.6 V -3.1 H -1.899 V -3.4 H -0.6 V -3.7 H -1.899 V -4 H -0.6 V -4.3 H -1.899 V -4.6 H -0.6 V -4.9 H -1.899 V -5.2 H -0.6 V -5.5 H -1.899 V -5.799 H -0.6 V -6.1 H -1.899 V -6.4 H -0.6 V -6.7 H -1.899 V -7 H -0.6 V -7.299 H -1.899 V -7.6 H -0.6 V -7.9 H -1.899 V -8.2 H -0.6 V -8.5 H -1.899 V -8.799 H -0.6 v -0.3 H -1.899 V -9.4 H -0.6 c 0,-0.1 0,-0.199 0.1,-0.3 H -2 c 0,-0.099 -0.1,-0.2 -0.1,-0.3 h 1.701 c 0.099,-0.099 0.099,-0.299 0.299,-0.299 h -2.2 c -0.099,-0.101 -0.3,-0.201 -0.4,-0.3 H -0.899 0.2 0.8 c -0.1,0 -0.1,0.099 -0.199,0.099 C 0.5,-10.4 0.5,-10.4 0.4,-10.4 0.3,-10.299 0.2,-10.2 0.101,-10.099 0,-10 0,-9.9 0,-9.799 0,-9.7 -0.1,-9.599 -0.1,-9.5 v 0.3 7.6 0.3 c 0,0.1 0,0.2 0.1,0.3 0,0.101 0.101,0.2 0.101,0.3 C 0.2,-0.6 0.2,-0.5 0.2,-0.399 0.2,-0.3 0.3,-0.3 0.3,-0.3 l 0.1,0.1 0.1,0.1 C 0.4,0 0.2,0 0,0"></path> </g> <g transform="translate(66.4502,64.4004)" id="g212"> <path id="path214" style="fill:#949598;fill-opacity:1;fill-rule:nonzero;stroke:none" d="M 0,0 0.3,0.399 0.6,0.8 C 0.5,0.899 0,1.699 0,1.8 Z m 1.5,9.899 v 0 C 1.4,9.899 1.4,9.8 1.4,9.8 L 1.3,9.7 C 1.2,9.7 1.2,9.6 1.2,9.6 1.1,9.6 1.1,9.5 1.1,9.5 L 1,9.4 C 0.9,9.4 0.9,9.3 0.9,9.3 0.8,9.2 0.8,9.2 0.8,9.1 H 0.7 C 0.6,9 0.5,8.9 0.4,8.8 H 0.6 C 0.5,8.7 0.5,8.6 0.5,8.5 H 0.2 C 0.1,8.4 0.1,8.3 0.1,8.2 H 0.5 V 8.1 7.8 H 0 C 0,7.7 -0.1,7.6 -0.1,7.5 H 0.5 C 0.5,7.4 0.6,7.3 0.6,7.2 H -0.2 V 6.9 h 1 C 0.9,6.8 1.1,6.7 1.2,6.6 H -0.1 C -0.1,6.5 0,6.4 0,6.3 H 1.8 C 2.1,6.2 2.4,6.1 2.8,6 H 0.1 C 0.2,5.9 0.2,5.8 0.2,5.7 H 3.9 C 4.3,5.6 4.7,5.5 5,5.4 H 0.4 C 0.5,5.3 0.6,5.2 0.7,5.1 H 5.9 C 6.2,5 6.3,4.9 6.5,4.8 H 1.1 C 1.2,4.7 1.4,4.6 1.5,4.5 H 6.9 C 7,4.4 7.2,4.3 7.3,4.2 H 2.2 C 2.5,4.1 2.8,4 3.1,3.9 H 7.6 L 7.9,3.6 H 4.5 C 4.8,3.5 5.1,3.4 5.4,3.3 H 8.1 C 8.2,3.2 8.2,3.1 8.2,3 h -2 C 6.4,2.9 6.5,2.8 6.6,2.7 H 8.3 C 8.3,2.6 8.4,2.5 8.4,2.4 H 7 C 7.1,2.3 7.1,2.2 7.2,2.1 H 8.4 V 1.8 H 7.3 C 7.3,1.7 7.4,1.6 7.4,1.5 h 1 C 8.4,1.4 8.3,1.3 8.3,1.2 H 7.5 V 1.1 0.8 H 8.2 C 8.101,0.7 8.101,0.6 8,0.5 H 7.4 C 7.4,0.4 7.3,0.3 7.3,0.2 H 7.8 C 7.7,0.101 7.601,0 7.5,-0.1 H 7.101 C 7,-0.2 7,-0.3 6.8,-0.399 H 7.101 C 6.9,-0.5 6.7,-0.7 6.5,-0.7 H 6.4 C 6.3,-0.8 6.2,-0.8 6.101,-0.8 6,-0.8 6,-0.899 6,-0.899 5.9,-1 5.8,-1 5.7,-1 5.4,-1.1 5.101,-1.2 4.601,-1.2 5.3,-1.2 5.9,-1.1 6.5,-0.899 6.601,-0.8 6.8,-0.8 6.9,-0.8 c 0.201,0.1 0.401,0.2 0.6,0.3 0.101,0.101 0.3,0.2 0.4,0.3 C 8,-0.1 8.101,0 8.2,0.101 8.3,0.3 8.5,0.5 8.601,0.7 8.7,0.9 8.7,1.101 8.801,1.3 8.9,1.5 8.9,1.7 8.9,1.9 8.9,2.3 8.801,2.7 8.601,3.1 8.4,3.5 8.101,3.9 7.601,4.3 7.5,4.4 7.301,4.5 7.2,4.6 L 6.601,4.9 C 6,5.2 5.301,5.4 4.4,5.6 4.2,5.7 4,5.7 3.8,5.7 3.7,5.7 3.5,5.8 3.5,5.8 3.101,5.9 2.8,6 2.5,6.1 2.4,6.1 2.4,6.2 2.3,6.2 2.2,6.3 2.101,6.3 2,6.3 1.9,6.3 1.9,6.4 1.9,6.4 1.8,6.5 1.601,6.6 1.5,6.7 1.4,6.8 1.4,6.9 1.3,7 1.2,7.1 1.2,7.2 1.2,7.3 1.2,7.4 1.101,7.5 1.101,7.6 V 7.9 8 c 0,0.1 0,0.2 0.099,0.3 0,0.1 0.1,0.2 0.1,0.3 0.1,0.1 0.1,0.2 0.1,0.3 L 1.7,9.2 C 1.5,9.8 1.5,9.8 1.5,9.899 c 0.1,0 0.2,0 0.2,0.101 H 1.8 C 1.9,10.1 2,10.1 2.1,10.2 1.9,10.1 1.7,10 1.5,9.899 M 7.3,9.1 v 0 C 7.5,8.899 7.8,8.5 7.899,8.5 c 0,0 0,-0.1 0.101,-0.1 v 0.1 0.3 1.099"></path> </g> <g transform="translate(35.5498,65.9004)" id="g216"> <path id="path218" style="fill:#949598;fill-opacity:1;fill-rule:nonzero;stroke:none" d="m 0,0 v 0 l -0.1,-0.301 -0.1,-0.3 V -0.7 C -0.3,-0.801 -0.3,-0.9 -0.3,-1 -0.4,-1.101 -0.4,-1.301 -0.5,-1.301 -0.6,-1.4 -0.6,-1.5 -0.7,-1.601 h 0.3 c 0.1,-0.099 0.1,-0.2 0.3,-0.299 H -1 C -1.1,-2 -1.3,-2.101 -1.4,-2.2 h 1.1 0.4 0.6 C 0.6,-2.101 0.6,-2.101 0.5,-2.101 L 0.4,-2 C 0.3,-1.9 0.2,-1.801 0.1,-1.7 0,-1.601 0,-1.5 0,-1.4 c 0,0.099 -0.1,0.299 -0.1,0.299 v 0.3 C -0.1,-0.7 0,-0.601 0,-0.5 V 0 c 0.1,0.199 0.2,0.399 0.3,0.6"></path> </g> <g transform="translate(39.25,74.7002)" id="g220"> <path id="path222" style="fill:#949598;fill-opacity:1;fill-rule:nonzero;stroke:none" d="M 0,0 -0.3,-0.6 H 0 l 0.1,-0.3 h -0.5 l -0.1,-0.3 h 0.8 l 0.1,-0.3 h -1 l -0.1,-0.3 v -0.1 h 1.2 l 0.1,-0.3 h -1.2 l 0.1,-0.3 h 1.2 l 0.1,-0.3 h -1.2 l 0.1,-0.3 H 0.9 L 1,-3.4 h -1.2 l 0.1,-0.3 H 1.1 L 1.2,-4 H 0 L 0.1,-4.3 H 1.3 L 1.4,-4.6 H 0.1 L 0.2,-4.9 H 1.5 L 1.6,-5.2 H 0.3 L 0.4,-5.5 H 1.7 L 1.8,-5.8 H 0.5 L 0.6,-6.1 H 1.899 L 2,-6.4 H 0.7 L 0.8,-6.7 H 2.1 L 2.2,-7 H 0.899 L 1,-7.3 h 1.299 l 0.1,-0.3 H 1.1 L 1.2,-7.899 H 2.5 L 2.6,-8.2 H 1.299 l 0.1,-0.3 h 1.3 l 0.1,-0.3 H 1.5 C 1.6,-8.899 1.6,-9 1.6,-9.1 H 2.899 L 3,-9.399 H 1.599 c 0,-0.101 0.1,-0.201 0.1,-0.301 h 1.5 c 0.1,-0.1 0.1,-0.199 0.2,-0.3 h -1.6 c 0,-0.1 0,-0.2 -0.1,-0.3 H 3.5 c 0.099,-0.099 0.199,-0.3 0.299,-0.3 h -2.4 c -0.1,-0.1 -0.2,-0.2 -0.3,-0.299 h 1.6 2 c -0.1,0.099 -0.1,0.099 -0.3,0.099 -0.1,0.1 -0.1,0.1 -0.2,0.1 -0.1,0.1 -0.3,0.2 -0.3,0.301 -0.1,0.099 -0.1,0.199 -0.2,0.299 -0.1,0.1 -0.1,0.201 -0.199,0.3 -0.101,0.1 -3.801,9.6 -3.801,9.6"></path> </g> <g transform="translate(27.5498,76.3999)" id="g224"> <path id="path226" style="fill:#000000;fill-opacity:1;fill-rule:nonzero;stroke:none" d="M 0,0 C 2.6,0 4.7,0 6.5,0.1 L 6.6,-3.4 H 6.2 c -0.3,2 -1.1,2.7 -2.9,2.7 -0.3,0 -0.5,0 -0.8,-0.1 H 2.3 v -9.8 c 0,-1.3 0.4,-1.7 1.8,-1.7 v -0.6 c -0.8,0.1 -1.8,0.1 -2.7,0.1 -0.6,0 -1.7,0 -3.1,-0.1 v 0.6 c 1.3,0.1 1.7,0.4 1.7,1.7 v 9.8 h -0.1 -0.7 c -1.9,0 -2.7,-0.7 -3,-2.7 H -4.4 L -4.3,0 Z M -4.6,-3.6 H -4 l 0.1,0.3 0.1,0.3 0.1,0.3 0.1,0.3 0.1,0.2 0.1,0.2 0.1,0.2 0.1,0.2 0.1,0.1 0.1,0.1 0.1,0.1 0.1,0.1 0.1,0.1 0.2,0.1 0.2,0.1 0.2,0.1 0.2,0.1 0.2,0.1 h 0.3 0.3 0.3 0.2 0.2 0.2 0.2 v -9.7 -0.2 -0.201 -0.199 -0.1 l -0.1,-0.1 -0.1,-0.1 -0.1,-0.1 -0.1,-0.1 -0.1,-0.1 -0.1,-0.1 -0.1,-0.1 -0.1,-0.1 -0.1,-0.1 -0.1,-0.1 -0.2,-0.1 h -0.2 -0.2 -0.2 v -0.8 H -1.4 -1 -0.6 -0.2 0.1 0.4 0.7 1 1.3 1.6 2.2 2.8 3.4 4 4.6 v 0.8 H 4.4 4.2 4 l -0.2,0.1 -0.1,0.1 -0.1,0.1 -0.1,0.1 -0.1,0.1 -0.1,0.1 -0.1,0.1 -0.1,0.1 -0.1,0.1 -0.1,0.1 -0.1,0.1 v 0.2 0.2 0.2 9.7 H 3.1 3.4 3.7 4 4.3 4.6 L 4.8,-0.8 5,-0.9 5.2,-1 5.4,-1.1 5.6,-1.2 5.7,-1.3 5.8,-1.4 5.9,-1.5 6,-1.6 6.1,-1.8 6.2,-2 6.3,-2.2 6.4,-2.4 6.5,-2.7 6.6,-3 6.7,-3.3 6.8,-3.6 H 7.4 L 7.3,0.1 H 6.7 6 4.6 3.9 3.2 2.4 1.6 0.8 0 -0.8 -1.4 -2.2 -2.9 -3.6 l -0.7,0.1 z m 17,-5 H 9.2 v 0.1 l 1.7,4 z M 9.1,-8.7 h 3.5 l -1.7,4.4 z M 16,-11 c 0.3,-0.8 0.7,-1.3 1.7,-1.4 v -0.4 c -1,0 -1.9,0.1 -2.8,0.1 -1,0 -1.8,0 -2.8,-0.1 v 0.4 c 0.9,0.1 1.5,0.1 1.5,0.8 0,0.3 -0.1,0.8 -0.3,1.3 l -0.4,1 H 9 l -0.4,-0.8 c -0.3,-0.6 -0.4,-1.1 -0.4,-1.3 0,-0.7 0.4,-1 1.4,-1.1 v -0.4 c -0.6,0 -1.3,0.1 -2,0.1 -0.6,0 -1.3,0 -1.8,-0.1 v 0.4 c 0.8,0.1 1.3,0.5 1.7,1.4 l 4.1,9.6 h 0.7 z M 11.4,-1.4 7.3,-11.1 7.2,-11.3 7.1,-11.5 7,-11.7 6.9,-11.8 6.8,-11.9 6.7,-12 6.601,-12.1 6.5,-12.2 6.3,-12.3 6.101,-12.4 5.9,-12.5 H 5.6 v -0.6 h 0.6 0.6 0.6 0.7 0.7 0.7 v 0.6 H 9.3 9.1 8.9 l -0.2,0.1 -0.1,0.1 -0.1,0.1 -0.1,0.1 -0.1,0.1 -0.1,0.1 -0.1,0.1 -0.1,0.1 v 0.1 0.1 0.1 0.1 0.1 0.1 0.1 l 0.1,0.1 0.1,0.1 0.1,0.2 0.1,0.2 0.1,0.2 0.3,0.7 h 3.8 l 0.3,-0.9 0.1,-0.2 0.1,-0.2 0.1,-0.2 0.1,-0.201 0.1,-0.099 v -0.1 -0.1 -0.1 -0.1 -0.1 -0.1 l -0.1,-0.1 -0.1,-0.1 -0.1,-0.1 -0.1,-0.1 -0.1,-0.1 -0.1,-0.1 H 12.7 12.6 12.4 12.2 12 11.8 v -0.6 h 1 1 1 1 1 1 v 0.6 h -0.2 -0.2 l -0.2,0.1 -0.1,0.1 -0.1,0.1 -0.1,0.1 -0.1,0.1 -0.1,0.1 -0.1,0.1 -0.1,0.1 -0.1,0.1 -0.1,0.1 -0.1,0.2 -0.099,0.2 -3.801,9.6"></path> </g> <g transform="translate(52.3501,74.2998)" id="g228"> <path id="path230" style="fill:#000000;fill-opacity:1;fill-rule:nonzero;stroke:none" d="m 0,0 c -1.3,0 -1.7,-0.4 -1.7,-1.6 v -6.2 c 0,-1.8 0.5,-2.4 2.3,-2.4 1.8,0 2.7,0.7 3.1,2.5 H 4.2 L 4.1,-10.899 H 3.8 -0.7 c -1.2,0 -2.7,0 -4.4,-0.101 h -0.6 v 0.4 c 1.1,0 1.5,0.4 1.5,1.8 v 7.1 c 0,1.1 -0.4,1.5 -1.6,1.5 v 0.4 c 1.1,-0.1 2,-0.1 2.8,-0.1 0.6,0 1.6,0 2.9,0.1 z M -0.3,0.6 H -0.6 -0.9 -1.2 -1.5 -1.8 -2.1 -2.4 -2.6 -2.8 -3 -3.4 -3.8 -4.2 -4.6 -5 -5.4 -5.8 V 0 h 0.1 0.2 0.2 0.2 0.1 l 0.1,-0.1 0.1,-0.1 0.1,-0.1 0.099,-0.1 0.101,-0.1 0.1,-0.1 0.1,-0.1 0.099,-0.1 0.1,-0.099 V -1 -1.2 -1.399 -8.5 -8.699 -8.899 -9.1 -9.3 L -4.201,-9.399 -4.3,-9.5 -4.4,-9.6 -4.5,-9.699 -4.601,-9.8 -4.7,-9.899 -4.8,-9.999 -4.9,-10.1 -5,-10.199 -5.1,-10.3 h -0.2 -0.2 -0.2 -0.1 v -0.599 h 0.6 0.6 0.6 0.6 0.6 0.6 0.5 0.5 0.5 0.599 0.601 0.6 0.6 0.5 0.5 0.5 0.599 0.5 l 0.1,3.4 h -0.6 L 3.7,-7.8 3.6,-8.1 3.5,-8.399 3.399,-8.6 3.3,-8.8 3.2,-8.999 3.1,-9.199 3,-9.399 2.9,-9.499 2.8,-9.6 2.7,-9.699 l -0.2,-0.1 -0.2,-0.1 -0.2,-0.1 -0.2,-0.101 -0.2,-0.099 -0.3,-0.1 H 1.1 0.8 0.5 0.2 -0.1 -0.3 -0.2 l -0.2,0.1 -0.2,0.099 -0.1,0.101 -0.1,0.1 -0.1,0.1 -0.1,0.1 -0.1,0.099 -0.1,0.101 -0.1,0.1 -0.1,0.099 -0.1,0.2 -0.1,0.201 v 0.2 0.2 0.3 0.3 6.2 0.199 0.201 0.2 V -1 l 0.1,0.101 0.1,0.1 0.1,0.1 0.1,0.099 0.1,0.1 0.1,0.101 0.1,0.1 0.1,0.099 0.1,0.1 h 0.1 0.2 0.2 0.2 0.1 v 0.6"></path> </g> <g transform="translate(99.6504,72.1001)" id="g232"> <path id="path234" style="fill:#000000;fill-opacity:1;fill-rule:nonzero;stroke:none" d="M 0,0 H -0.5 C -0.9,1.9 -2,2.1 -4.101,2.1 -4.9,2.1 -5.2,2.1 -5.2,1.5 v -3.9 h 0.399 c 1.301,0 1.901,0.5 2.2,1.9 h 0.5 C -2.2,-1.1 -2.2,-1.8 -2.2,-2.6 c 0,-0.8 0,-1.5 0.099,-2.2 H -2.5 c -0.301,1.4 -0.9,1.9 -2.301,1.9 h -0.3 v -3.2 c 0,-1.3 0.601,-1.8 2,-1.8 2,0 2.901,0.7 3.3,2.5 H 0.6 v -3.2 c -2.5,0.1 -4.5,0.1 -6.1,0.1 h -1 c -1,0 -1.801,0 -2.7,-0.1 v 0.4 c 1.5,0.1 1.599,0.7 1.599,2.4 V 0.5 C -7.601,1.8 -8,2.3 -9.2,2.3 v 0.4 c 1.099,-0.1 2.3,-0.1 3.399,-0.1 1.7,0 3.7,0.1 5.801,0.1 z M -0.5,2.8 H -1 -1.5 -1.9 -2.301 -2.7 h -0.401 -0.4 -0.399 -0.401 -0.3 -0.299 -0.3 -0.301 -0.3 -0.8 -0.9 L -8.4,2.9 -9.301,3 V 2.4 h 0.101 0.199 0.2 0.2 l 0.1,-0.1 0.101,-0.1 0.099,-0.1 0.1,-0.1 0.1,-0.1 0.1,-0.1 0.101,-0.1 0.099,-0.1 0.1,-0.1 0.1,-0.2 V 1.1 0.9 0.7 -5.6 -5.9 -6.2 -6.4 -6.6 -6.8 -7 l -0.1,-0.1 -0.1,-0.1 -0.099,-0.1 -0.101,-0.1 -0.1,-0.1 -0.1,-0.1 -0.1,-0.1 -0.099,-0.1 -0.101,-0.1 -0.1,-0.1 h -0.099 -0.2 -0.201 -0.2 v -0.6 l 0.401,0.1 h 0.399 0.4 0.401 0.5 0.5 1 0.399 0.401 0.4 0.399 0.5 0.5 0.5 0.601 0.6 0.599 0.601 0.599 v 3.201 H -0.2 L -0.301,-5.6 -0.4,-5.9 -0.5,-6.2 -0.601,-6.4 -0.7,-6.6 -0.801,-6.799 -0.5,-6.8 -0.601,-6.9 -0.7,-7 -0.801,-7.1 -0.9,-7.2 -1.101,-7.3 -1.301,-7.4 -1.5,-7.5 -1.7,-7.6 -1.9,-7.7 -2.101,-7.8 H -2.5 -2.801 -3.101 -3.4 -3.5 -3.7 -3.9 l -0.201,0.1 -0.2,0.1 -0.099,0.1 -0.1,0.1 -0.101,0.1 L -4.7,-7.2 -4.801,-7.1 -4.9,-7 -5,-6.9 -5.101,-6.8 -5.2,-6.6 v 0.2 0.2 0.2 3.1 h 0.3 0.299 0.201 0.2 L -4,-3 -3.8,-3.1 -3.601,-3.2 -3.5,-3.3 -3.4,-3.4 -3.301,-3.5 -3.2,-3.6 -3.101,-3.7 -3,-3.8 -2.9,-4 -2.801,-4.2 -2.7,-4.4 -2.601,-4.7 -2.501,-5 H -1.9 v 0.3 0.4 0.4 0.4 0.4 0.4 0.6 0.6 0.6 l 0.099,0.5 h -0.7 L -2.601,-0.7 -2.7,-1 -2.801,-1.2 -2.9,-1.4 -3,-1.6 -3.101,-1.7 -3.2,-1.8 -3.301,-1.9 -3.4,-2 -3.5,-2.1 -3.601,-2.2 -3.7,-2.3 -3.9,-2.399 -4.101,-2.5 h -0.2 -0.199 -0.301 -0.3 V 1.3 1.4 1.5 1.6 1.7 1.8 L -5,1.9 -4.9,2 h 0.099 0.101 0.099 0.101 0.1 0.099 0.101 0.199 0.301 0.3 0.299 0.3 0.3 0.2 L -2.101,1.9 -1.9,1.8 -1.7,1.7 -1.501,1.6 -1.4,1.5 -1.301,1.4 -1.2,1.3 -1.101,1.2 -1.001,1.101 -0.9,1 l 0.099,-0.1 0.1,-0.2 0.1,-0.2 0.1,-0.2 L -0.4,0 -0.301,-0.3 h 0.6 v 2.901"></path> </g> <g transform="translate(63.9502,74.2998)" id="g236"> <path id="path238" style="fill:#000000;fill-opacity:1;fill-rule:nonzero;stroke:none" d="m 0,0 v 0 c -1.2,0 -1.6,-0.4 -1.6,-1.7 v -6.9 c 0,-1.299 0.4,-1.7 1.6,-1.799 V -10.8 c -1.3,0.1 -2.2,0.1 -2.9,0.1 -0.8,0 -1.8,0 -2.9,-0.1 v 0.401 c 1.4,0.099 1.6,0.399 1.6,1.799 v 6.9 c 0,1.2 -0.3,1.7 -1.6,1.7 v 0.4 c 1.1,-0.1 2,-0.1 2.9,-0.1 0.9,0 1.8,0 2.9,0.1 z m -5.9,-0.1 h 0.1 0.2 0.2 0.2 0.1 l 0.1,-0.1 0.1,-0.1 0.1,-0.1 0.1,-0.1 0.1,-0.1 0.1,-0.1 0.1,-0.1 0.1,-0.099 L -4.2,-1 V -1.1 -1.2 -1.299 -1.5 -1.7 -8.6 -8.8 -9 -9.199 -9.3 -9.399 L -4.3,-9.5 -4.4,-9.6 -4.5,-9.699 -4.6,-9.8 -4.7,-9.899 -4.8,-9.999 V -10 l -0.1,-0.1 -0.1,-0.1 -0.1,-0.1 H -5.3 -5.5 -5.8 -6 v -0.599 h 0.4 0.4 0.4 0.4 0.4 0.3 0.3 0.3 0.2 0.2 0.2 0.3 0.3 0.3 0.3 0.3 0.3 0.3 0.3 v 0.599 h -0.2 -0.2 -0.2 l -0.2,0.1 -0.1,0.1 -0.1,0.1 -0.1,0.101 -0.1,0.099 -0.1,0.1 -0.1,0.1 -0.1,0.1 -0.1,0.1 -0.1,0.1 v 0.2 0.2 0.2 0.2 6.9 0.2 0.2 0.2 l 0.1,0.1 0.1,0.1 0.1,0.1 0.1,0.1 0.1,0.1 0.1,0.1 0.1,0.1 0.1,0.1 0.1,0.1 0.1,0.1 h 0.2 0.2 0.2 H 0 V 0.6 H -0.6 -1.2 -1.8 -2.4 -3 -3.4 -3.8 -4.3 -4.8 -5.3 -5.8"></path> </g> <g transform="translate(107.4502,74.2002)" id="g240"> <path id="path242" style="fill:#000000;fill-opacity:1;fill-rule:nonzero;stroke:none" d="M 0,0 H 0.3 0.6 L 0.8,-0.1 1,-0.2 1.2,-0.3 1.399,-0.4 1.5,-0.5 1.6,-0.6 1.699,-0.7 1.8,-0.8 1.899,-0.9 2,-1.1 2.1,-1.3 2.199,-1.5 2.3,-1.7 2.399,-2 V -2.3 -2.6 -2.9 -3.2 L 2.3,-3.4 2.199,-3.6 2.1,-3.8 2,-4 1.899,-4.2 1.8,-4.3 1.699,-4.4 1.6,-4.5 1.5,-4.6 1.3,-4.7 1.1,-4.8 0.899,-4.9 0.699,-5 0.399,-5.1 H 0.1 -0.2 -0.5 -0.601 -0.7 -0.8 -0.9 v 4.1 0.1 0.1 0.1 0.1 l 0.1,0.1 0.1,0.1 0.099,0.1 0.101,0.1 h 0.1 0.099 0.101 0.099 L 0,-0.2 Z m -1.2,-0.7 v -4.2 h 0.099 0.601 c 1.8,0 2.699,0.8 2.699,2.5 0,1.7 -0.8,2.5 -2.5,2.5 C -0.9,0 -1.2,0 -1.2,-0.7 m 6.099,-1.5 c 0,-1.5 -1,-2.5 -2.699,-2.7 L 1.8,-5 2.2,-5.2 C 2.6,-5.4 3,-5.9 3.5,-6.601 L 3.7,-6.9 5.399,-9.2 c 0.401,-0.6 1,-1.1 1.601,-1.1 v -0.4 c -0.4,0 -1.101,0.099 -2,0.099 H 3.7 L 1,-6.7 c -0.601,0.8 -1,1.3 -1.7,1.3 H -0.8 -0.9 -1 v -3.1 c 0,-1.2 0.399,-1.7 1.7,-1.7 v -0.401 c -1.801,0.101 -3.1,0.101 -3.6,0.101 -0.6,0 -1.3,0 -2.1,-0.101 v 0.401 c 1.399,0 1.8,0.4 1.8,1.8 v 7.1 c 0,1.1 -0.3,1.5 -1.8,1.5 v 0.4 h 2.1 1.7 1.8 c 2.799,0 4.299,-0.9 4.299,-2.8 M -0.3,0.7 H -0.9 -1.5 -2.101 -2.7 -3.3 -3.601 -3.9 -4.2 -4.3 -4.601 -5 -5.3 V 0.1 h 0.199 0.201 0.2 0.2 0.1 L -4.3,0 -4.2,-0.1 -4.101,-0.2 -4,-0.3 -3.9,-0.4 -3.801,-0.5 -3.7,-0.6 -3.601,-0.7 -3.5,-0.8 V -0.9 -1 -1.1 -1.2 -1.4 -8.5 -8.7 -8.9 -9.1 -9.3 L -3.601,-9.4 -3.7,-9.5 -3.801,-9.6 -3.9,-9.7 -4,-9.8 -4.101,-9.899 -4.2,-10 l -0.1,-0.1 -0.1,-0.1 -0.1,-0.1 H -4.7 -4.9 -5.101 -5.3 v -0.599 h 0.4 0.4 0.399 0.401 0.3 0.299 0.101 0.2 0.199 0.201 0.2 0.3 0.299 H -1.3 -1 -0.7 -0.4 0 0.399 0.8 V -10.3 H 0.7 0.5 0.3 0.1 l -0.201,0.1 -0.099,0.1 -0.1,0.1 -0.1,0.101 -0.1,0.099 -0.1,0.1 -0.1,0.1 -0.1,0.1 -0.1,0.1 -0.1,0.2 v 0.2 0.2 0.2 2.9 h 0.1 0.1 0.1 0.1 0.1 L -0.4,-5.8 -0.3,-5.899 -0.2,-6 -0.101,-6.1 0,-6.2 0.1,-6.3 0.2,-6.399 0.3,-6.5 0.399,-6.6 0.5,-6.8 0.6,-7 3.3,-10.899 H 3.6 3.899 4.199 4.5 4.8 5.1 5.399 5.699 6 6.199 6.399 6.6 6.699 6.8 V -10.3 H 6.699 L 6.5,-10.2 6.3,-10.1 6.1,-10 5.899,-9.899 5.8,-9.8 5.699,-9.7 5.6,-9.5 5.5,-9.3 5.399,-9.1 3.699,-6.8 3.5,-6.5 3.399,-6.3 3.3,-6.1 3.199,-5.899 3.1,-5.7 3,-5.6 2.899,-5.5 2.8,-5.399 2.7,-5.3 2.6,-5.2 2.5,-5.1 2.399,-5 H 2.5 l 0.3,0.1 0.3,0.1 0.299,0.1 0.301,0.1 0.3,0.1 0.2,0.1 0.199,0.1 0.201,0.1 0.2,0.1 0.099,0.2 0.101,0.2 0.1,0.2 0.1,0.2 0.1,0.2 0.099,0.2 0.101,0.3 v 0.3 0.3 0.3 0.3 L 5.399,-1.1 5.3,-0.9 5.2,-0.7 5.1,-0.5 5,-0.3 4.899,-0.1 4.5,0 4.3,0.1 4.1,0.2 3.899,0.3 3.7,0.4 3.399,0.5 3.1,0.6 2.8,0.7 2.5,0.8 2.2,0.9 1.899,1 1.6,1.1 H 1.2 0.7 0.3"></path> </g> <g transform="translate(82.1504,74.2998)" id="g244"> <path id="path246" style="fill:#000000;fill-opacity:1;fill-rule:nonzero;stroke:none" d="M 0,0 C -1.301,0 -1.5,-0.6 -1.5,-1.8 V -5.899 L 0.3,-3.9 c 1.7,1.8 2.2,2.7 2.2,3.1 0,0.4 -0.4,0.7 -1.2,0.8 V 0.4 C 2.1,0.3 2.899,0.3 3.699,0.3 c 0.5,0 1.101,0 1.7,0.1 V 0 c -1,-0.1 -1.5,-0.5 -2.099,-1.2 L 1.1,-3.7 5.399,-9.3 c 0.401,-0.599 1,-1 1.5,-1 v -0.5 c -1.299,0.1 -2.2,0.1 -2.7,0.1 -1.099,0 -2,0 -2.8,-0.1 v 0.401 H 1.5 c 1,0 1.1,0.399 1.1,0.599 0,0.2 -0.1,0.401 -0.3,0.8 L -0.4,-5.399 -1.5,-6.7 v -1.9 c 0,-1.2 0.1,-1.7 1.5,-1.7 v -0.4 c -0.601,0.1 -1.5,0.1 -2.7,0.1 -1.3,0 -2.2,0 -2.8,-0.1 v 0.4 c 1.199,0.1 1.6,0.401 1.6,1.7 v 7.1 c 0,1.1 -0.401,1.6 -1.6,1.7 v 0.4 c 0.8,-0.1 1.699,-0.1 2.8,-0.1 1,0 1.8,0 2.7,0.1 z M -0.4,0.6 H -1 -1.601 -2.101 -2.601 -3.2 -3.801 -4.4 -5 -5.5 V 0 h 0.199 0.2 0.201 l 0.2,-0.1 0.099,-0.1 0.101,-0.1 0.1,-0.1 0.099,-0.1 L -4.2,-0.6 -4.101,-0.7 -4,-0.8 -3.9,-0.899 -3.801,-1 V -1.1 -1.299 -1.5 -1.7 -8.8 -9 -9.199 -9.3 -9.399 -9.5 L -3.9,-9.6 -4,-9.699 -4.101,-9.8 -4.2,-9.899 -4.301,-9.999 -4.4,-10.1 -4.5,-10.199 -4.601,-10.3 -4.7,-10.399 H -4.8 -5 -5.2 -5.4 v -0.6 h 0.299 0.3 0.3 0.301 0.3 0.299 0.401 0.399 0.401 0.4 0.399 0.401 0.3 0.299 0.3 H 0 0.3 0.5 v 0.6 H 0.3 0 -0.2 -0.301 L -0.4,-10.3 -0.5,-10.199 -0.601,-10.1 -0.7,-9.999 -0.801,-9.899 -0.9,-9.8 -1,-9.699 -1.101,-9.6 -1.2,-9.5 v 0.101 0.099 0.101 0.099 0.1 0.2 0.2 1.901 L -0.2,-5.6 2.399,-9 2.5,-9.1 2.6,-9.199 2.699,-9.3 2.8,-9.399 V -9.5 -9.6 -9.699 -9.8 -9.899 L 2.699,-9.999 2.6,-10.1 2.5,-10.199 2.399,-10.3 2.3,-10.399 2.2,-10.499 H 2.1 2 1.8 1.6 V -11.1 H 2.3 3 3.8 4.6 4.899 5.199 5.499 5.8 6.1 6.399 6.8 7.199 7.6 v 0.701 H 7.5 l -0.101,0.1 L 7,-10 6.899,-9.899 6.8,-9.8 6.699,-9.7 6.6,-9.6 6.5,-9.5 6.399,-9.3 6.3,-9.1 2,-3.6 4.1,-1.1 4.199,-0.9 4.3,-0.8 4.399,-0.7 4.5,-0.6 4.6,-0.5 4.699,-0.4 4.8,-0.3 5,-0.2 5.199,-0.1 5.399,0 5.6,0.1 H 5.8 6 V 0.7 L 5.6,0.6 H 5.199 4.8 4.399 4 3.699 3.399 3.1 2.8 2.5 2.1 1.8 L 1.8,0 H 2 2.199 2.399 2.5 L 2.6,-0.1 2.699,-0.2 2.8,-0.3 2.899,-0.4 2.999,-0.5 3.1,-0.6 V -0.7 -0.8 -0.9 -1 H 3 L 2.899,-1.1 2.8,-1.2 2.699,-1.3 2.6,-1.4 2.5,-1.6 2.399,-1.8 2.3,-2 2.2,-2.2 2,-2.4 1.8,-2.7 1.6,-3 1.399,-3.3 1.1,-3.6 0.8,-3.9 -0.8,-5.7 v 3.8 0.2 0.2 0.2 0.2 0.1 0.1 l 0.1,0.1 0.099,0.1 0.101,0.1 0.1,0.1 0.099,0.1 0.101,0.1 0.099,0.1 L 0,-0.1 0.1,0 h 0.099 0.2 0.201 0.099 v 0.6"></path> </g> <g transform="translate(73.3496,73.7998)" id="g248"> <path id="path250" style="fill:#000000;fill-opacity:1;fill-rule:nonzero;stroke:none" d="M 0,0 V 0 L 1,1 H 1.301 V -1.9 H 1.2 C 0.801,-0.4 -1.199,0.9 -3,0.9 -4.8,0.9 -5.6,0 -5.6,-0.9 c 0,-1.1 1,-1.5 2.9,-2 3.2,-0.7 4.801,-1.999 4.801,-3.999 0,-2.101 -1.901,-3.5 -4.901,-3.5 -1.7,0 -2.9,0.899 -3.3,1.299 l -0.1,0.1 -0.9,-1.2 h -0.1 v 3.4 h 0.301 c 1,-2.099 2.199,-3 3.799,-3 2.701,0 3.1,1.2 3.1,2 0,1.2 -0.899,1.8 -3.399,2.401 -2.701,0.599 -4,1.799 -4,3.699 0,1.8 1.699,3.1 4.099,3.1 C -2.1,1.2 -1,0.8 0,0 M -3.6,1.3 H -3.899 L -4.2,1.2 -4.5,1.1 -4.8,1 -5.1,0.9 -5.399,0.8 -5.7,0.7 -6,0.601 -6.2,0.5 -6.399,0.4 -6.6,0.3 -6.8,0.201 -7,0 -7.1,-0.2 -7.2,-0.399 V -0.5 L -7.3,-0.7 -7.399,-0.9 -7.5,-1.2 -7.6,-1.5 v -0.3 -0.3 -0.3 -0.3 l 0.1,-0.3 0.101,-0.3 0.099,-0.2 0.1,-0.2 0.1,-0.2 0.1,-0.2 0.1,-0.2 0.1,-0.2 0.2,-0.2 0.2,-0.199 0.2,-0.201 0.3,-0.1 0.3,-0.1 0.3,-0.099 0.3,-0.101 0.3,-0.1 0.3,-0.1 0.3,-0.1 0.4,-0.099 0.4,-0.101 0.3,-0.1 0.3,-0.099 0.3,-0.101 0.3,-0.099 0.3,-0.101 0.3,-0.1 0.2,-0.099 0.2,-0.101 0.201,-0.099 0.199,-0.1 0.1,-0.101 0.1,-0.099 0.101,-0.101 0.099,-0.099 0.1,-0.1 0.1,-0.101 0.1,-0.099 0.1,-0.1 0.1,-0.1 v -0.1 -0.2 -0.2 V -8.6 L -0.199,-8.5 -0.3,-8.6 -0.399,-8.7 -0.5,-8.8 -0.6,-8.899 -0.699,-9 -0.8,-9.1 -0.899,-9.199 -1.1,-9.3 -1.3,-9.399 -1.5,-9.5 -1.8,-9.6 -2.1,-9.699 -2.399,-9.8 H -2.699 -3 -3.299 -3.6 -3.899 l -0.3,0.101 -0.301,0.099 -0.199,0.1 -0.2,0.101 L -5.1,-9.3 -5.299,-9.199 -5.5,-9.1 -5.699,-9 l -0.2,0.101 -0.201,0.199 -0.099,0.2 -0.1,0.2 -0.1,0.2 -0.101,0.201 -0.099,0.2 -0.1,0.3 -0.1,0.299 -0.1,0.3 -0.1,0.3 h -0.4 v -3.6 h 0.3 l 0.9,1.1 0.1,-0.1 0.099,-0.099 0.101,-0.101 0.1,-0.099 0.2,-0.101 0.2,-0.1 0.2,-0.099 L -5,-9.8 l 0.301,-0.099 0.3,-0.1 0.3,-0.101 0.3,-0.099 0.299,-0.101 0.301,-0.099 h 0.3 0.299 0.401 0.3 l 0.299,0.099 0.3,0.101 0.301,0.099 0.3,0.101 0.3,0.1 L -0.1,-9.8 0.2,-9.699 0.5,-9.6 0.801,-9.5 1,-9.399 1.2,-9.3 l 0.2,0.2 0.201,0.201 0.2,0.2 L 1.9,-8.5 2,-8.3 2.101,-8.1 2.2,-7.899 2.301,-7.6 2.4,-7.3 2.5,-7 v 0.301 0.3 0.299 0.3 L 2.4,-5.5 2.301,-5.199 2.2,-4.899 2.101,-4.6 2,-4.399 1.9,-4.2 1.801,-4 1.601,-3.8 1.4,-3.6 1.2,-3.399 0.9,-3.2 0.601,-3 l -0.3,0.101 -0.3,0.099 -0.301,0.1 -0.3,0.1 -0.299,0.1 -0.401,0.1 -0.399,0.1 -0.401,0.1 -0.4,0.1 -0.299,0.1 -0.301,0.1 -0.299,0.1 -0.3,0.1 -0.301,0.1 -0.199,0.1 -0.2,0.1 -0.201,0.1 -0.099,0.1 -0.1,0.1 -0.1,0.1 -0.101,0.1 -0.099,0.1 -0.1,0.1 -0.1,0.1 -0.1,0.1 -0.1,0.1 v 0.1 0.1 0.1 0.1 0.1 l 0.1,0.1 0.1,0.1 0.1,0.099 0.1,0.101 0.099,0.1 0.101,0.1 0.1,0.099 0.1,0.1 L -4.5,1 l 0.201,0.1 0.199,0.099 0.201,0.1 0.299,0.1 0.301,0.101 H -3 h 0.301 0.3 0.299 l 0.3,-0.101 0.3,-0.1 0.301,-0.1 L -0.899,1.1 -0.6,1 -0.3,0.899 0,0.799 0.301,0.7 0.5,0.6 0.7,0.5 0.9,0.3 1.101,0.1 1.301,-0.101 1.4,-0.3 1.5,-0.5 1.601,-0.701 1.7,-0.9 1.801,-1.201 1.9,-1.4 H 2.2 V -1 -0.601 -0.2 0.2 0.6 1 1.4 H 1.8 L 1,0.4 0.8,0.6 0.5,0.8 0.2,0.9 -0.1,1 -0.399,1.1 -0.699,1.2 -1,1.3 -1.3,1.399 -1.6,1.5 -1.899,1.6 -2.199,1.7 H -2.5 -3.2"></path> </g> <g transform="translate(27.5498,76.1001)" id="g252"> <path id="path254" style="fill:#000000;fill-opacity:1;fill-rule:nonzero;stroke:none" d="M 0,0 C 2.2,0 4.1,0 5.7,0.1 H 6.2 L 6.3,-2.1 C 6.3,-2 6.2,-2 6.2,-2 6.1,-1.9 6.1,-1.8 6.1,-1.7 6,-1.6 6,-1.4 5.9,-1.3 5.8,-1.2 5.8,-1.2 5.8,-1.1 L 5.7,-1 v 0.3 H 5.4 C 5.3,-0.6 5.1,-0.5 5,-0.4 h 0.6 v 0.3 H 4.1 C 3.8,0 2.7,0 2.4,0 H 2 V -10.201 -10.5 c 0,-0.1 0,-0.201 0.1,-0.3 0,-0.1 0.1,-0.2 0.1,-0.3 0.1,-0.101 0.1,-0.2 0.2,-0.3 0.1,-0.1 0.2,-0.301 0.3,-0.301 C 2.8,-11.8 2.9,-11.8 3,-11.8 c 0.1,-0.1 0.2,-0.1 0.3,-0.1 -0.6,0 -1.3,0.1 -2,0.1 -0.6,0 -1.4,0 -2.5,-0.1 0.3,0.1 0.5,0.1 0.7,0.3 h 2.6 c -0.1,0.1 -0.3,0.2 -0.3,0.3 h -2 c 0.1,0.099 0.1,0.2 0.1,0.3 h 1.7 c -0.1,0.1 -0.1,0.2 -0.1,0.299 H 0 c 0,0.101 0,0.201 0.1,0.301 h 1.3 v 0.3 H 0.3 v 0.2 0.1 h 1.3 v 0.2 H 0.3 v 0.3 h 1.3 v 0.4 H 0.3 v 0.3 h 1.3 v 0.3 H 0.3 V -8 h 1.3 v 0.299 H 0.3 V -7.4 h 1.3 v 0.3 H 0.3 v 0.3 h 1.3 v 0.3 H 0.3 v 0.3 h 1.3 v 0.3 H 0.3 v 0.3 h 1.3 v 0.3 H 0.3 V -5 h 1.3 v 0.3 H 0.3 v 0.3 h 1.3 v 0.299 H 0.3 v 0.5 H 1.6 V -3.3 H 0.3 V -3 h 1.3 v 0.3 H 0.3 v 0.3 h 1.3 v 0.299 H 0.3 V -1.8 h 1.3 v 0.3 H 0.3 v 0.299 H 1.6 V -0.9 H 0.3 v 0.299 H 1.6 V -0.3 H 0.3 V 0 H 1.6 V 0.299 H 0.3 -0.1 -1.4 -1.6 C -2,0.2 -2.4,0.1 -2.7,0 -2.8,-0.101 -3,-0.101 -3.1,-0.3 -3.2,-0.4 -3.4,-0.5 -3.4,-0.701 -3.5,-0.8 -3.5,-0.9 -3.6,-1 -3.7,-1.101 -3.7,-1.201 -3.8,-1.3 -3.9,-1.4 -3.9,-1.5 -3.9,-1.601 -3.9,-1.701 -4,-1.701 -4,-1.8 l 0.1,1.099 c 0.1,0.1 0.2,0.201 0.3,0.301 h -0.3 v 0.299 h 0.6 c 0.3,0.101 0.6,0.3 1,0.3 H -4 V 0.5 C -2.9,0 -1.6,0 0,0 M -4.4,-3.2 H -4 c 0.3,2 1.1,2.7 3,2.7 h 0.7 0.1 v -9.8 c 0,-1.3 -0.3,-1.6 -1.7,-1.7 v -0.6 c 1.5,0.1 2.5,0.1 3.1,0.1 1,0 1.9,0 2.7,-0.1 v 0.6 c -1.3,0.1 -1.8,0.4 -1.8,1.7 v 9.8 h 0.2 c 0.3,0 0.5,0.1 0.8,0.1 1.8,0 2.6,-0.8 2.9,-2.7 H 6.4 L 6.3,0.4 C 4.5,0.3 2.5,0.3 -0.2,0.3 c -1.8,0 -3.2,0 -4.3,0.1 z m 12.4,-7 c 0,-0.1 -0.1,-0.2 -0.1,-0.3 0,-0.1 -0.1,-0.2 -0.1,-0.3 v -0.3 c 0,-0.1 0,-0.2 0.1,-0.3 0,-0.1 0.1,-0.2 0.1,-0.3 0.1,-0.1 0.1,-0.3 0.3,-0.3 l 0.1,-0.1 c 0.1,-0.1 0.1,-0.1 0.2,-0.1 H 8 7.6 6.5 c 0.1,0.1 0.3,0.1 0.4,0.3 h 0.9 c -0.1,0.1 -0.2,0.2 -0.3,0.3 H 7.2 c 0.1,0.1 0.1,0.2 0.2,0.3 0.1,0.1 0.1,0.3 0.2,0.3 0.1,0.1 0.1,0.1 0.1,0.3 v 0.1 l 0.1,0.3 0.2,0.1 0.2,0.6 C 8.2,-9.8 8.1,-10 8,-10.2 m 4.6,1.8 H 9.1 l 1.8,4.4 z m 3.2,-2.6 c 0.1,-0.1 0.1,-0.2 0.2,-0.3 0.1,-0.1 0.1,-0.2 0.2,-0.3 0.1,-0.1 0.2,-0.3 0.3,-0.3 0.1,-0.1 0.1,-0.1 0.2,-0.1 0.1,-0.1 0.1,-0.1 0.3,-0.1 h -2 -1.6 c 0.1,0.1 0.3,0.1 0.3,0.3 h 2.4 c -0.1,0.1 -0.3,0.2 -0.3,0.3 H 14 c 0,0.1 0.1,0.2 0.1,0.3 h 1.6 c -0.1,0.1 -0.1,0.2 -0.2,0.3 H 14 c 0,0.1 -0.1,0.2 -0.1,0.3 h 1.4 l -0.1,0.3 h -1.3 c 0,0.1 -0.1,0.2 -0.1,0.3 h 1.3 l -0.2,0.3 h -1.3 l -0.1,0.3 h 1.3 l -0.1,0.3 h -1.3 l -0.1,0.3 h 1.301 L 14.5,-8.5 h -1.3 l -0.099,0.299 H 14.4 L 14.3,-7.9 H 13 l -0.1,0.3 h 1.301 l -0.1,0.3 H 12.6 L 12.5,-7 h 1.3 l -0.1,0.3 h -1.3 l -0.1,0.3 h 1.3 l -0.1,0.3 h -1.3 l -0.1,0.3 h 1.3 l -0.1,0.3 H 12.1 L 12,-5.2 h 1.2 l -0.099,0.3 H 11.6 l -0.1,0.3 h 1.2 l -0.1,0.3 H 11.4 L 11.3,-4 h 1.2 l -0.1,0.3 h -1.2 l -0.1,0.3 h 1.2 l -0.1,0.299 H 11.101 V -3 l 0.099,0.3 h 1 l -0.099,0.3 H 11.3 l 0.1,0.299 h 0.5 L 11.8,-1.8 h -0.3 l 0.3,0.599 h 0.301 C 12,-1.4 15.8,-11 15.8,-11 m -4.3,9.9 -4.1,-9.6 C 7,-11.5 6.5,-12 5.7,-12.1 v -0.4 c 0.6,0 1.3,0.1 1.8,0.1 0.6,0 1.3,0 2,-0.1 v 0.4 c -1,0 -1.4,0.4 -1.4,1.1 0,0.2 0.1,0.7 0.4,1.3 l 0.3,0.8 h 3.9 l 0.4,-1 c 0.2,-0.6 0.3,-1.1 0.3,-1.3 0,-0.6 -0.6,-0.8 -1.5,-0.8 v -0.4 c 1,0 1.8,0.1 2.8,0.1 1,0 1.9,0 2.8,-0.1 v 0.4 c -1,0.1 -1.4,0.6 -1.7,1.4 L 12,-1.1"></path> </g> <g transform="translate(56.25,65.9004)" id="g256"> <path id="path258" style="fill:#000000;fill-opacity:1;fill-rule:nonzero;stroke:none" d="m 0,0 -0.1,-2 h -0.1 -0.4 -2 c 0.4,0.1 0.7,0.1 1,0.3 h 1.1 v 0.3 h -0.6 c 0.1,0.099 0.3,0.2 0.3,0.299 h 0.2 v 0.3 l 0.1,0.101 c 0.1,0.099 0.1,0.099 0.1,0.199 0.1,0.101 0.1,0.301 0.2,0.4 0,0 0.1,0 0.2,0.101 -0.1,0.1 0,0.1 0,0.1 z M -5.3,8.399 C -5.4,8.3 -5.6,8.2 -5.6,8.1 -5.7,8 -5.7,7.899 -5.8,7.8 -5.9,7.7 -5.9,7.6 -5.9,7.5 -5.9,7.4 -6,7.3 -6,7.2 V 6.9 0.5 0.199 v -0.3 c 0,-0.099 0,-0.2 0.1,-0.299 0,-0.1 0.1,-0.201 0.1,-0.3 0,-0.101 0.1,-0.2 0.1,-0.3 0.1,-0.101 0.1,-0.2 0.2,-0.301 0.1,-0.099 0.1,-0.199 0.3,-0.3 C -5.1,-1.7 -4.9,-1.9 -4.8,-1.9 -4.7,-2 -4.5,-2 -4.4,-2 -4.3,-2.101 -4.1,-2.101 -4,-2.101 h -0.6 c -1.1,0 -2.5,0 -4,-0.099 0.2,0.099 0.3,0.099 0.4,0.3 h 2.9 c -0.2,0.1 -0.3,0.2 -0.4,0.299 H -7.9 C -7.8,-1.5 -7.8,-1.4 -7.8,-1.3 H -6 c -0.1,0.1 -0.1,0.199 -0.2,0.3 h -1.6 c 0,0.1 0,0.2 0.1,0.3 h 1.5 c 0,0.099 -0.1,0.2 -0.1,0.3 h -1.4 v 0.2 0.099 h 1.3 v 0.3 H -7.7 V 0.5 h 1.3 v 0.3 h -1.3 v 0.3 h 1.3 v 0.299 h -1.3 v 0.3 h 1.3 V 2 h -1.3 v 0.3 h 1.3 v 0.3 h -1.3 v 0.299 h 1.3 V 3.2 h -1.3 v 0.3 h 1.3 v 0.3 h -1.3 v 0.3 h 1.3 V 4.399 H -7.7 V 4.7 h 1.3 V 5 h -1.3 v 0.299 h 1.3 V 5.6 h -1.3 v 0.5 h 1.3 V 6.399 H -7.7 V 6.7 h 1.3 V 6.899 7 h -1.3 v 0.299 h 1.3 c 0,0.1 0,0.201 0.1,0.301 h -1.5 c 0,0.099 -0.1,0.199 -0.1,0.299 h 1.6 c 0.1,0.101 0.1,0.3 0.2,0.3 h -2 c -0.1,0.1 -0.2,0.2 -0.3,0.301 h 2.6 l 0.1,0.1 h 0.6 C -5.2,8.5 -5.2,8.399 -5.3,8.399 M -6.8,8.8 c -0.8,0 -1.8,0 -2.8,0.099 V 8.5 C -8.5,8.5 -8,8.1 -8,7 V -0.101 C -8,-1.5 -8.4,-1.9 -9.5,-1.9 v -0.401 h 0.6 c 1.7,0 3.1,0.101 4.4,0.101 H 0 0.4 L 0.5,1 h -0.6 c -0.4,-1.801 -1.3,-2.5 -3.1,-2.5 -1.7,0 -2.3,0.6 -2.3,2.399 V 7.1 c 0,1.2 0.4,1.6 1.7,1.6 V 9.1 C -5.2,8.8 -6.1,8.8 -6.8,8.8"></path> </g> <g transform="translate(99.9502,63.7998)" id="g260"> <path id="path262" style="fill:#000000;fill-opacity:1;fill-rule:nonzero;stroke:none" d="m 0,0 c -1.101,0 -2,0.101 -2.9,0.101 0.4,0 0.9,0.099 1.2,0.299 h 1.099 v 0.3 h -0.5 c 0.101,0.1 0.3,0.2 0.3,0.3 h 0.2 V 1.2 C -0.5,1.3 -0.5,1.3 -0.5,1.4 -0.4,1.5 -0.4,1.5 -0.4,1.601 -0.301,1.7 -0.301,1.8 -0.2,1.9 -0.101,2 -0.101,2.101 -0.101,2.2 Z M -2.8,6.9 V 6.6 6.3 6 5.6 4.4 4.2 C -2.9,4.3 -2.9,4.4 -2.9,4.5 -3,4.601 -3,4.8 -3.2,4.9 l -0.3,0.3 h 0.1 V 5.5 H -4 C -4.2,5.6 -4.4,5.6 -4.601,5.6 -4.4,5.6 -4.2,5.7 -4,5.7 h 0.6 V 6 h -0.1 c 0.1,0.1 0.2,0.2 0.3,0.3 0.099,0.1 0.099,0.2 0.2,0.3 0.1,0.1 0.2,0.3 0.2,0.3 V 7 Z m 2.1,1.9 C -0.8,8.9 -0.8,9 -0.8,9.1 -0.9,9.2 -0.9,9.3 -0.9,9.4 -1,9.5 -1,9.7 -1.2,9.8 -1.3,9.9 -1.3,10 -1.4,10.1 h 0.2 v 0.3 h -0.6 c -0.301,0.1 -0.5,0.3 -0.801,0.3 H -1.3 v 0.1 h 0.5 z m -4.7,1.7 c -0.1,0 -0.1,-0.1 -0.1,-0.1 C -5.601,10.3 -5.601,10.3 -5.601,10.2 -5.7,10.1 -5.7,9.9 -5.7,9.7 V 1.8 c 0,-0.1 0,-0.199 0.099,-0.3 C -5.601,1.4 -5.5,1.3 -5.5,1.2 -5.4,1.101 -5.4,0.9 -5.4,0.9 -5.3,0.8 -5.3,0.7 -5.101,0.601 -5,0.5 -4.8,0.3 -4.7,0.3 -4.601,0.2 -4.4,0.2 -4.3,0.2 -4.2,0.101 -4,0.101 -3.9,0.101 h -0.6 -1.3 -1 -1.7 C -8.4,0.2 -8.2,0.2 -8.2,0.4 h 2.8 c -0.201,0.1 -0.3,0.201 -0.4,0.3 h -2.1 c 0.1,0.1 0.1,0.2 0.1,0.3 h 1.699 C -6.2,1.101 -6.2,1.2 -6.2,1.3 h -1.5 c 0,0.1 0,0.2 0.099,0.301 H -6.2 C -6.2,1.7 -6.3,1.8 -6.3,1.9 H -7.601 V 2.2 H -6.3 V 2.3 2.4 H -7.601 V 2.5 2.7 H -6.3 V 3.101 H -7.601 V 3.4 H -6.3 V 3.7 H -7.601 V 4 H -6.3 V 4.3 H -7.601 V 4.6 H -6.3 V 4.9 H -7.601 V 5.2 H -6.3 V 5.5 H -7.601 V 5.8 H -6.3 V 6.1 H -7.601 V 6.4 H -6.3 V 6.7 H -7.601 V 7 H -6.3 V 7.3 H -7.601 V 7.6 H -6.3 V 7.9 H -7.601 V 8.4 H -6.3 V 8.7 H -7.601 V 9 H -6.3 V 9.3 H -7.601 V 9.6 H -6.3 v 0.3 h -1.301 c 0,0.1 -0.099,0.2 -0.099,0.3 h 1.5 c 0,0.1 0.099,0.3 0.099,0.3 H -7.8 c -0.1,0.1 -0.2,0.2 -0.301,0.3 H -5.8 l 0.1,0.1 h 0.5 c -0.2,-0.3 -0.2,-0.4 -0.2,-0.4 m -0.701,0.4 C -7.2,10.9 -8.3,11 -9.5,11 v -0.4 c 1.1,0 1.6,-0.4 1.6,-1.8 V 2.5 C -7.9,0.8 -8,0.2 -9.5,0.101 V -0.3 c 0.899,0.1 1.8,0.1 2.7,0.1 h 1 c 1.6,0 3.6,0 6.1,-0.1 V 2.9 H -0.101 C -0.5,1 -1.4,0.4 -3.4,0.4 c -1.5,0 -2,0.5 -2,1.8 v 3.2 h 0.299 c 1.401,0 2,-0.5 2.3,-1.9 H -2.4 c -0.1,0.8 -0.1,1.5 -0.1,2.2 0,0.8 0,1.5 0.1,2.1 L -3,7.8 C -3.3,6.4 -3.8,5.9 -5.2,5.9 h -0.401 v 3.9 c 0,0.6 0.3,0.6 1.101,0.6 2.1,0 3.1,-0.2 3.6,-2.1 h 0.5 V 11 c -2,-0.1 -4.1,-0.1 -5.701,-0.1"></path> </g> <g transform="translate(62.75,74.2998)" id="g264"> <path id="path266" style="fill:#000000;fill-opacity:1;fill-rule:nonzero;stroke:none" d="m 0,0 c -0.1,-0.1 -0.1,-0.1 -0.2,-0.1 l -0.1,-0.1 c -0.1,-0.1 -0.1,-0.2 -0.2,-0.3 -0.1,-0.1 -0.1,-0.2 -0.1,-0.3 0,-0.1 -0.1,-0.2 -0.1,-0.3 V -1.4 -1.6 -8.7 -9 c 0,-0.1 0,-0.2 0.1,-0.3 0,-0.099 0.1,-0.2 0.1,-0.3 0.1,-0.099 0.1,-0.2 0.1,-0.299 0.1,-0.101 0.1,-0.3 0.3,-0.3 C 0,-10.3 0,-10.3 0.1,-10.3 c 0.1,-0.099 0.1,-0.099 0.2,-0.099 h -0.6 -1.3 -1.8 c 0.1,0.099 0.3,0.099 0.4,0.299 h 2.4 c -0.1,0.1 -0.2,0.201 -0.3,0.3 h -1.8 c 0.1,0.101 0.1,0.2 0.1,0.3 H -1 c -0.1,0.101 -0.1,0.2 -0.1,0.301 h -1.5 v 0.3 h 1.4 V -8.6 h -1.4 v 0.1 0.101 h 1.3 V -8.1 h -1.3 v 0.3 h 1.3 v 0.401 H -2.6 V -7.1 h 1.3 v 0.3 h -1.3 v 0.3 h 1.3 v 0.3 h -1.3 v 0.301 h 1.3 V -5.6 h -1.3 v 0.3 h 1.3 V -5 h -1.3 v 0.3 h 1.3 v 0.3 h -1.3 v 0.3 h 1.3 v 0.3 h -1.3 v 0.3 h 1.3 v 0.3 h -1.3 v 0.3 h 1.3 v 0.3 h -1.3 v 0.5 h 1.3 v 0.3 h -1.3 v 0.3 h 1.3 v 0.1 0.2 h -1.4 v 0.3 h 1.4 c 0,0.1 0.1,0.2 0.1,0.3 h -1.5 c 0,0.1 -0.1,0.2 -0.1,0.3 h 1.7 C -1,-0.2 -1,0 -0.9,0 h -2 l -0.3,0.3 h 2.7 l 0.1,0.1 H 0.2 C 0,0.1 0,0 0,0 M -4.6,0 V 0 C -3.2,0 -3,-0.4 -3,-1.7 v -6.9 c 0,-1.299 -0.2,-1.7 -1.6,-1.799 V -10.8 c 1.1,0 2.1,0.1 2.9,0.1 0.6,0 1.6,0 2.9,-0.1 v 0.401 c -1.3,0.099 -1.6,0.5 -1.6,1.799 v 6.9 C -0.4,-0.6 0,0 1.1,0 h 0.1 v 0.4 c -1,-0.1 -2,-0.1 -2.9,-0.1 -0.8,0 -1.8,0 -2.9,0.1"></path> </g> <g transform="translate(109.4502,68.7002)" id="g268"> <path id="path270" style="fill:#000000;fill-opacity:1;fill-rule:nonzero;stroke:none" d="M 0,0 C 0.1,0 0.1,-0.101 0.1,-0.101 0.199,-0.2 0.3,-0.3 0.399,-0.4 0.5,-0.601 0.699,-0.8 0.899,-1 1,-1.101 1.1,-1.3 1.1,-1.3 L 2.899,-3.8 C 3,-3.9 3,-3.9 3,-4 3.1,-4.101 3.199,-4.2 3.3,-4.3 3.399,-4.4 3.6,-4.601 3.6,-4.601 3.699,-4.7 3.899,-4.8 4,-4.9 H 3.699 3.399 2.6 1.5 L 1.3,-4.601 H 3 C 2.899,-4.5 2.7,-4.4 2.7,-4.3 H 1.1 L 0.899,-4 h 1.5 C 2.3,-3.9 2.3,-3.9 2.3,-3.8 L 2.2,-3.7 H 0.7 L 0.5,-3.4 H 2 L 1.7,-3.101 H 0.2 L 0,-2.8 h 1.5 l -0.3,0.3 h -1.5 l -0.2,0.3 H 1 L 0.7,-1.9 H -0.8 L -1,-1.601 H 0.5 L 0.399,-1.5 0.2,-1.2 h -1.5 l -0.1,0.099 C -1.4,-1 -1.5,-1 -1.5,-1 H 0 c -0.101,0.1 -0.2,0.199 -0.3,0.3 h -1.5 c -0.1,0.099 -0.1,0.2 -0.301,0.3 h 1.5 L -0.9,-0.101 H -2.3 C -2.4,0 -2.601,0.1 -2.7,0.199 h 1.4 C -1.4,0.3 -1.601,0.3 -1.7,0.4 c 0.099,0 0.2,0.1 0.3,0.1 C -0.5,0.4 -0.2,0.2 0,0 M -3.2,5.6 C -3.3,5.5 -3.4,5.4 -3.4,5.3 -3.5,5.2 -3.5,5.1 -3.5,5 V 4.7 -3.101 -3.4 -3.5 c 0,-0.2 0.1,-0.4 0.1,-0.601 C -3.301,-4.2 -3.301,-4.3 -3.301,-4.4 -3.2,-4.5 -3.2,-4.7 -3,-4.7 -2.9,-4.8 -2.7,-4.9 -2.601,-5 h -0.5 -2.099 -1 c 0.099,0.1 0.3,0.1 0.4,0.3 h 2.199 C -3.7,-4.601 -3.8,-4.5 -3.9,-4.4 H -5.601 C -5.5,-4.3 -5.5,-4.2 -5.5,-4.101 H -4 C -4.101,-4 -4.101,-3.9 -4.101,-3.8 H -5.4 c 0,0.1 0,0.199 0.1,0.3 H -4 v 0.3 H -5.2 V -3.101 -3 H -4 v 0.399 H -5.2 V -2.3 H -4 v 0.4 h -1.2 v 0.299 H -4 V -1.3 H -5.2 V -1 H -4 v 0.3 h -1.2 v 0.3 H -4 v 0.299 H -5.2 V 0.2 H -4 V 0.5 H -5.2 V 0.8 H -4 V 1.1 H -5.2 V 1.4 H -4 V 1.7 H -5.2 V 2 H -4 V 2.3 H -5.2 V 2.6 H -4 V 2.9 H -5.2 V 3.4 H -4 V 3.7 H -5.2 V 4 H -4 V 4.3 H -5.2 V 4.6 H -4 V 4.899 H -5.3 C -5.3,5 -5.4,5.1 -5.4,5.2 H -4 c 0,0.1 0.1,0.3 0.1,0.3 H -5.601 C -5.7,5.6 -5.8,5.7 -5.9,5.8 h 2.2 c 0.099,0.099 0.099,0.099 0.2,0.099 h 0.6 C -3,5.7 -3.101,5.7 -3.2,5.6 M 0.3,3 C 0.3,1.3 -0.601,0.5 -2.4,0.5 H -3 -3.101 v 4.2 c 0,0.6 0.301,0.8 0.901,0.8 1.7,0 2.5,-0.7 2.5,-2.5 M 0.1,5.6 C 0.5,5.5 0.899,5.4 1.2,5.3 1.5,5.2 1.8,5 2,4.9 L 2.1,4.8 C 2.199,4.7 2.3,4.6 2.399,4.5 2.5,4.4 2.5,4.3 2.5,4.2 2.6,4.1 2.6,4 2.6,3.9 2.699,3.7 2.699,3.5 2.699,3.4 V 3.3 3.2 C 2.699,2.9 2.6,2.6 2.5,2.4 2.399,2.2 2.199,2 2.1,1.8 2,1.7 1.8,1.6 1.699,1.5 1.6,1.5 1.6,1.4 1.6,1.4 1.5,1.3 1.5,1.3 1.399,1.3 1.3,1.3 1.3,1.2 1.199,1.2 0.899,1.1 0.6,1 0.199,0.9 L 0,0.8 -0.301,0.7 -0.2,0.8 C 0.1,0.9 0.3,0.9 0.6,1.1 H 0.1 C 0.199,1.2 0.199,1.3 0.3,1.4 H 1.199 C 1.3,1.5 1.5,1.6 1.6,1.7 H 0.5 C 0.6,1.8 0.6,1.9 0.6,2 H 1.8 C 1.899,2.1 1.899,2.2 2,2.3 H 0.699 c 0,0.1 0,0.2 0.101,0.3 H 2.199 C 2.199,2.7 2.3,2.8 2.3,2.9 H 0.8 V 3 3.2 H 2.3 V 3.3 3.6 H 0.8 c 0,0.1 0,0.2 -0.101,0.3 h 1.5 C 2.199,4 2.1,4.1 2.1,4.2 H 0.6 C 0.6,4.3 0.5,4.4 0.5,4.5 H 2 C 1.899,4.6 1.899,4.7 1.699,4.8 H 0.3 C 0.199,4.9 0.199,5 0.1,5.1 H 1.399 C 1.199,5.2 1,5.4 0.8,5.4 h -1.101 c -0.199,0.1 -0.3,0.2 -0.5,0.3 0,0 -0.099,0.1 -0.399,0.1 H -1.301 C -0.8,5.8 -0.4,5.7 0.1,5.6 M -3.5,6.1 H -5.2 -7.3 V 5.7 c 1.4,-0.1 1.8,-0.3 1.8,-1.5 v -7.1 c 0,-1.3 -0.4,-1.701 -1.8,-1.8 V -5.101 C -6.5,-5 -5.8,-5 -5.2,-5 c 0.599,0 1.9,0 3.599,-0.101 V -4.7 c -1.299,0 -1.7,0.4 -1.7,1.7 V 0.1 H -3.2 -3.101 -3 c 0.699,0 1.1,-0.5 1.699,-1.3 l 2.7,-3.901 h 1.3 c 1,0 1.7,0 2,-0.099 v 0.4 C 4.1,-4.7 3.6,-4.3 3.1,-3.7 l -1.701,2.3 -0.2,0.299 C 0.699,-0.4 0.3,0.1 -0.101,0.3 L -0.5,0.5 -0.101,0.6 C 1.699,0.9 2.6,1.9 2.6,3.3 2.6,5.2 1.1,6.1 -2,6.1 h -1.5"></path> </g> <g transform="translate(87.5498,64.7002)" id="g272"> <path id="path274" style="fill:#000000;fill-opacity:1;fill-rule:nonzero;stroke:none" d="M 0,0 0.3,-0.3 C 0.4,-0.4 0.601,-0.601 0.7,-0.601 0.8,-0.7 0.8,-0.7 0.9,-0.7 1,-0.7 1,-0.8 1.2,-0.8 c -1,0.1 -1.7,0.1 -2.2,0.1 h -1.8 c 0.1,0.099 0.3,0.099 0.3,0.3 h 2.7 c -0.099,0.1 -0.3,0.2 -0.4,0.299 H -2.399 V 0.1 0.2 H -0.6 c 0,0.1 -0.1,0.1 -0.1,0.1 l -0.199,0.2 h -1.5 c 0,0.1 -0.101,0.2 -0.101,0.3 h 1.601 L -1.2,1.1 h -1.5 l -0.199,0.299 h 1.5 L -1.7,1.7 H -3.2 L -3.399,2 h 1.5 L -2.2,2.3 h -1.5 l -0.199,0.3 h 1.5 L -2.7,2.899 h -1.5 l -0.199,0.3 h 1.5 L -3.2,3.5 h -1.5 l -0.199,0.3 h 1.5 L -3.7,4.1 H -5.3 L -5.5,4.4 H -4 l -0.3,0.3 h -1.5 l -0.099,0.1 c 0,0 0.099,0.099 0.199,0.2 h 1.1 L -4.899,5.3 H -5.5 c 0.101,0.099 0.2,0.2 0.3,0.3 h 0.1 L -5.2,5.7 C -5.1,5.899 -4.899,6 -4.899,6 -4.5,5.8 -0.1,0 0,0 M -1.1,9.6 C -1.2,9.5 -1.399,9.4 -1.5,9.3 -1.6,9.2 -1.8,9.1 -1.9,9 -2,8.9 -2.1,8.8 -2.2,8.7 L -2.3,8.6 -2.899,7.8 C -2.8,7.9 -2.8,8 -2.7,8.1 c 0.1,0.1 0.1,0.2 0.1,0.3 0.1,0.1 0.1,0.2 0.1,0.3 v 0.1 0.1 h 0.1 c 0.1,0.1 0.3,0.3 0.3,0.3 H -2.7 C -2.8,9.3 -2.8,9.4 -3,9.5 h 1.2 0.1 c 0.2,0.1 0.4,0.1 0.6,0.1 0.1,0 0,0 0,0 M -6.5,9.6 -6.6,9.5 -6.7,9.4 C -6.8,9.3 -6.8,9.2 -6.8,9.1 -6.899,9 -6.899,8.9 -6.899,8.8 -6.899,8.7 -7,8.6 -7,8.5 V 8.2 0.6 0.3 c 0,-0.1 0.101,-0.2 0.101,-0.3 0,-0.1 0.099,-0.2 0.099,-0.3 0.1,-0.1 0.1,-0.3 0.3,-0.3 0.101,-0.1 0.101,-0.1 0.2,-0.1 0.1,-0.1 0.1,-0.1 0.2,-0.1 h -0.6 -1.1 -1.8 c 0.1,0.1 0.3,0.1 0.401,0.3 H -7 c -0.1,0.1 -0.199,0.2 -0.3,0.3 H -9 c 0.101,0.1 0.101,0.2 0.101,0.3 h 1.5 c 0,0.1 -0.101,0.2 -0.101,0.3 h -1.3 v 0.3 h 1.3 V 1 h -1.3 v 0.3 h 1.3 v 0.2 h -1.3 v 0.3 h 1.3 v 0.4 h -1.3 v 0.3 h 1.3 v 0.3 h -1.3 v 0.3 h 1.3 V 3.399 H -8.8 V 3.7 h 1.3 V 4 h -1.3 v 0.3 h 1.3 v 0.3 h -1.3 v 0.3 h 1.3 v 0.3 h -1.3 v 0.3 h 1.3 v 0.3 h -1.3 v 0.3 h 1.3 v 0.3 h -1.3 v 0.3 h 1.3 V 7 h -1.3 v 0.5 h 1.3 v 0.3 h -1.3 v 0.3 h 1.3 v 0.3 h -1.3 v 0.3 h 1.3 c 0,0.1 0,0.2 0.101,0.3 H -8.8 c 0,0.1 -0.099,0.2 -0.099,0.3 H -7.3 c 0.1,0.1 0.1,0.2 0.1,0.3 h -1.9 c -0.1,0.1 -0.2,0.2 -0.299,0.3 h 2.5 L -6.8,10 h 0.6 C -6.5,9.7 -6.5,9.6 -6.5,9.6 M -8,10 c -1.1,0 -2,0 -2.8,0.1 V 9.7 C -9.6,9.6 -9.2,9.3 -9.2,8 V 0.899 C -9.2,-0.3 -9.6,-0.7 -10.8,-0.8 v -0.4 c 0.7,0.099 1.5,0.099 2.8,0.099 1.2,0 2.101,0 2.7,-0.099 v 0.4 c -1.4,0.1 -1.5,0.5 -1.5,1.699 V 2.8 L -5.7,4.1 -3,0.5 c 0.2,-0.3 0.3,-0.601 0.3,-0.8 0,-0.2 -0.1,-0.6 -1.1,-0.6 h -0.099 v -0.4 c 0.799,0.1 1.699,0.1 2.799,0.1 0.5,0 1.4,0 2.701,-0.1 v 0.5 c -0.5,0.1 -1,0.4 -1.5,1 L -4.2,5.8 -2,8.3 c 0.601,0.8 1.101,1.1 2.101,1.2 V 9.9 C -0.5,9.8 -1.1,9.8 -1.6,9.8 -2.399,9.8 -3.2,9.8 -4,9.9 V 9.5 c 0.8,0 1.2,-0.3 1.2,-0.8 0,-0.5 -0.599,-1.3 -2.2,-3.1 l -1.8,-2 v 4.1 c 0,1.3 0.2,1.8 1.5,1.8 V 9.9 C -6.2,10 -7.1,10 -8,10"></path> </g> <g transform="translate(67.0498,65.2002)" id="g276"> <path id="path278" style="fill:#000000;fill-opacity:1;fill-rule:nonzero;stroke:none" d="M 0,0 -0.3,-0.4 -0.6,-0.8 V 1 C -0.6,0.899 -0.1,0.1 0,0 m 1.2,9.1 c -0.1,0 -0.1,0 0,0 C 1.1,9 1.1,9 1,9 L 0.9,8.9 C 0.8,8.8 0.7,8.7 0.6,8.6 0.5,8.5 0.5,8.4 0.5,8.3 0.4,8.2 0.4,8.1 0.4,8 0.4,7.9 0.3,7.8 0.3,7.7 V 7.6 7.3 C 0.3,7.2 0.3,7.1 0.4,7 0.4,6.9 0.5,6.8 0.5,6.7 0.6,6.6 0.6,6.5 0.7,6.4 0.8,6.3 1,6.2 1.1,6.1 1.2,6.1 1.2,6 1.2,6 1.3,5.9 1.3,5.9 1.5,5.9 1.6,5.9 1.6,5.8 1.7,5.8 2,5.7 2.3,5.6 2.7,5.5 2.8,5.5 3,5.4 3,5.4 3.2,5.3 3.4,5.3 3.6,5.3 4.5,5.1 5.3,4.9 5.8,4.6 6.101,4.5 6.2,4.4 6.4,4.3 6.601,4.2 6.7,4.1 6.8,4 7.3,3.6 7.7,3.2 7.8,2.8 8,2.4 8.101,2 8.101,1.6 8.101,1.4 8.101,1.2 8,1 7.9,0.8 7.9,0.6 7.8,0.4 7.7,0.2 7.5,0 7.4,-0.2 7.3,-0.3 7.2,-0.399 7.101,-0.5 7,-0.6 6.8,-0.7 6.7,-0.8 6.5,-0.899 6.3,-1.1 6.101,-1.1 6,-1.2 5.8,-1.2 5.7,-1.2 5.101,-1.399 4.5,-1.5 3.8,-1.5 c 0.4,0.101 0.8,0.101 1.1,0.2 0.1,0 0.2,0.1 0.3,0.1 0.1,0 0.1,0.1 0.1,0.1 C 5.4,-1 5.5,-1 5.6,-1 h 0.1 c 0.2,0.101 0.4,0.2 0.6,0.3 H 6 c 0.1,0.1 0.2,0.2 0.3,0.301 H 6.7 C 6.8,-0.3 6.9,-0.2 7,-0.1 H 6.5 C 6.6,0 6.6,0.101 6.6,0.2 H 7.2 C 7.3,0.3 7.3,0.4 7.4,0.5 H 6.7 V 0.8 0.9 H 7.5 C 7.6,1 7.6,1.1 7.6,1.2 h -1 c 0,0.1 -0.1,0.2 -0.1,0.3 h 1 V 1.8 H 6.3 C 6.2,1.9 6.2,2 6.1,2.1 h 1.4 c 0,0.1 0,0.2 -0.1,0.3 H 5.8 C 5.7,2.5 5.5,2.6 5.4,2.7 h 2 C 7.3,2.8 7.3,2.9 7.3,3 H 4.6 C 4.3,3.1 4,3.2 3.7,3.3 H 7.1 C 7,3.4 7,3.5 6.8,3.6 H 2.3 C 2,3.7 1.7,3.8 1.4,3.9 H 6.5 C 6.4,4 6.2,4.1 6.1,4.2 H 0.7 C 0.5,4.3 0.4,4.4 0.3,4.5 H 5.7 C 5.5,4.6 5.3,4.7 5.1,4.8 H -0.1 C -0.2,4.9 -0.3,5 -0.4,5.1 H 4.2 C 3.9,5.2 3.5,5.3 3.1,5.4 H -0.6 C -0.7,5.5 -0.7,5.6 -0.7,5.7 H 2 C 1.6,5.8 1.3,5.9 1,6 h -1.8 c 0,0.1 -0.1,0.2 -0.1,0.3 H 0.4 C 0.3,6.4 0.1,6.5 0,6.6 h -1 v 0.3 h 0.8 C -0.3,7 -0.3,7.1 -0.3,7.2 h -0.6 c 0,0.1 0.1,0.2 0.1,0.3 h 0.5 v 0.3 0.1 h -0.4 c 0.1,0.1 0.1,0.2 0.1,0.3 h 0.3 c 0,0.1 0.1,0.2 0.1,0.3 h -0.2 l 0.3,0.3 H 0 C 0.1,8.9 0.1,8.9 0.1,9 0.2,9 0.2,9.1 0.2,9.1 l 0.1,0.1 0.1,0.1 c 0.1,0 0.1,0.1 0.1,0.1 0.1,0 0.1,0.1 0.1,0.1 0.1,0 0.1,0.1 0.1,0.1 C 0.8,9.7 1,9.7 1.2,9.8 1.3,9.3 1.3,9.2 1.2,9.1 m 6,-1.2 V 7.6 7.5 c 0,0 0,0.1 -0.099,0.1 C 7,7.7 6.7,8.1 6.601,8.2 L 6.5,8.3 7.101,9.1 V 7.9 Z M -1.2,6.7 C -1.2,4.8 0.1,3.6 2.8,3 5.3,2.399 6.2,1.8 6.2,0.6 c 0,-0.701 -0.4,-2 -3.1,-2 -1.7,0 -2.9,1 -3.8,3 h -0.2 v -3.401 h 0.1 l 0.9,1.2 L 0.2,-0.7 C 0.6,-1.101 1.9,-2 3.5,-2 c 3,0 4.9,1.399 4.9,3.5 0,2 -1.6,3.3 -4.8,4 -2,0.4 -2.9,0.8 -2.9,2 0,0.9 0.8,1.8 2.6,1.8 C 5.1,9.3 7.1,8 7.5,6.5 H 7.6 V 9.4 H 7.3 L 6.4,8.4 6.3,8.5 C 5.3,9.3 4.3,9.8 3,9.8 0.5,9.8 -1.2,8.6 -1.2,6.7"></path> </g> <g transform="translate(39.9502,67.7998)" id="g280"> <path id="path282" style="fill:#000000;fill-opacity:1;fill-rule:nonzero;stroke:none" d="m 0,0 h -3.1 l 1.7,3.9 z M -3.1,0 V 0 L 0.1,-0.1 -1.4,4"></path> </g> <g transform="translate(43.6499,65.4004)" id="g284"> <path id="path286" style="fill:#000000;fill-opacity:1;fill-rule:nonzero;stroke:none" d="M 0,0 0.1,-0.2 0.2,-0.4 0.3,-0.5 0.4,-0.601 0.5,-0.7 0.6,-0.801 0.7,-0.9 0.8,-1 0.9,-1.101 1,-1.2 1.1,-1.3 1.3,-1.4 H 1.5 1.7 V -2 h -1 -1 -1 -1 -1 -1 v 0.6 h 0.2 0.2 0.2 0.2 0.1 0.1 l 0.1,0.1 0.1,0.1 0.1,0.099 0.1,0.101 0.1,0.1 0.1,0.099 V -0.7 -0.601 -0.5 -0.4 -0.301 -0.2 L -2.8,-0.101 -2.9,0.1 -3,0.3 -3.1,0.499 -3.2,0.699 -3.5,1.6 H -7.3 L -7.6,0.899 -7.7,0.699 -7.8,0.499 -7.9,0.3 -8,0.199 -8.1,0.1 V 0 -0.101 -0.2 -0.301 -0.4 -0.5 -0.601 L -8,-0.7 l 0.1,-0.1 0.1,-0.1 0.1,-0.1 0.1,-0.101 0.1,-0.099 0.1,-0.1 0.2,-0.1 h 0.2 0.2 0.2 V -2 H -7.3 -8 -8.7 -9.3 -9.9 -10.5 v 0.6 h 0.2 l 0.2,0.1 0.2,0.1 0.2,0.099 0.1,0.101 0.1,0.1 0.1,0.1 0.1,0.1 0.1,0.099 0.1,0.201 0.1,0.2 0.1,0.2 4.1,9.7 H -4 Z M -4.7,9.7 -8.8,0 c -0.4,-0.801 -0.9,-1.301 -1.7,-1.301 V -2 h 0.4 0.3 1.4 c 0.7,0 1.4,0 2.1,-0.101 V -1.4 c -1,0 -1.4,0.299 -1.4,1 0,0.2 0.1,0.7 0.3,1.299 L -7.1,1.5 h 3.8 L -3,0.6 c 0.3,-0.6 0.3,-1.1 0.3,-1.3 0,-0.601 -0.4,-0.601 -1.5,-0.7 v -0.701 h 0.8 0.3 2 c 1,0 2,0 2.9,-0.099 v 0.7 c -1,0.1 -1.3,0.399 -1.7,1.3 l -3.8,9.599"></path> </g> <g transform="translate(64.0498,74.2002)" id="g288"> <path id="path290" style="fill:#000000;fill-opacity:1;fill-rule:nonzero;stroke:none" d="M 0,0 H -0.2 -0.4 -0.6 -0.8 L -0.9,-0.1 -1,-0.2 -1.1,-0.3 -1.2,-0.4 -1.3,-0.5 -1.4,-0.6 -1.5,-0.7 -1.6,-0.8 -1.7,-0.9 -1.8,-1 v -0.2 -0.2 -0.2 -6.9 -0.2 -0.2 -0.2 -0.2 l 0.1,-0.1 0.1,-0.1 0.1,-0.1 0.1,-0.1 0.1,-0.1 0.1,-0.1 0.1,-0.1 0.1,-0.1 0.1,-0.1 0.2,-0.1 h 0.2 0.2 0.2 v -0.599 H -0.4 -0.7 -1 -1.3 -1.6 -1.9 -2.2 -2.5 -2.7 -2.9 -3.1 -3.4 -3.7 -4 -4.4 -4.8 -5.2 -5.6 -5.9 v 0.599 h 0.2 0.2 0.2 0.2 l 0.1,0.1 0.1,0.1 0.1,0.1 0.1,0.1 0.1,0.1 0.1,0.1 0.1,0.1 0.1,0.1 0.1,0.1 0.1,0.1 v 0.1 0.099 0.201 0.2 0.2 6.9 0.2 0.2 0.1 0.1 0.1 l -0.1,0.1 -0.1,0.1 -0.1,0.1 -0.1,0.1 -0.1,0.1 -0.1,0.1 -0.1,0.1 -0.1,0.1 L -5,0 h -0.1 -0.2 -0.2 -0.2 -0.2 v 0.6 h 0.5 0.5 0.5 0.5 0.4 0.4 0.6 0.6 0.6 0.6 0.6 z m -6,0 h 0.2 c 1.3,0 1.5,-0.4 1.5,-1.5 v -6.9 c 0,-1.3 -0.2,-1.701 -1.6,-1.701 V -10.8 c 0.8,0 1.5,0.1 2.2,0.1 h 0.3 0.6 c 0.6,0 1.7,0 3,-0.1 v 0.699 C -1.1,-10 -1.4,-9.7 -1.4,-8.4 v 6.9 C -1.4,-0.4 -1,0 0,0 h 0.2 v 0.7 c -1.1,-0.1 -2,-0.1 -3,-0.1 -0.9,0 -1.9,0 -3,0.1"></path> </g> <g transform="translate(52.3501,74.2002)" id="g292"> <path id="path294" style="fill:#000000;fill-opacity:1;fill-rule:nonzero;stroke:none" d="M 0,0 V 0 H -0.2 -0.4 -0.6 -0.7 L -0.8,-0.1 -0.9,-0.2 -1,-0.3 -1.1,-0.4 -1.2,-0.5 -1.3,-0.6 -1.4,-0.7 -1.5,-0.8 -1.6,-0.9 V -1 -1.2 -1.4 -1.6 -7.8 -8.1 -8.4 -8.6 -8.8 l 0.1,-0.2 0.1,-0.2 0.1,-0.1 0.1,-0.1 0.1,-0.1 0.1,-0.1 0.1,-0.1 0.1,-0.1 0.1,-0.099 0.1,-0.101 0.2,-0.1 0.2,-0.1 H 0 0.2 0.5 0.8 1.1 1.4 1.7 l 0.3,0.1 0.2,0.1 0.2,0.101 0.2,0.099 0.2,0.1 0.2,0.1 0.1,0.1 0.1,0.1 0.1,0.1 0.1,0.2 0.1,0.2 0.1,0.2 0.1,0.2 0.1,0.2 0.1,0.3 0.1,0.3 0.1,0.3 H 4.7 L 4.6,-10.8 H 4.1 3.5 3 2.5 2 1.4 0.8 0.2 -0.4 -1.2 -1.7 -2.2 -2.8 -3.4 -4 -4.6 -5.2 -5.8 v 0.6 h 0.1 0.2 0.2 0.2 l 0.1,0.1 0.1,0.1 0.1,0.1 0.1,0.1 0.1,0.1 0.1,0.099 0.1,0.101 0.1,0.1 0.1,0.1 0.1,0.1 v 0.2 0.2 0.199 0.201 7.1 0.2 0.2 0.1 l -0.1,0.1 -0.1,0.1 -0.1,0.1 -0.1,0.1 -0.1,0.1 -0.1,0.1 -0.1,0.099 L -4.9,0 -5,0.1 h -0.2 -0.2 -0.2 -0.2 -0.1 v 0.6 h 0.4 0.4 0.4 0.4 0.4 0.4 0.4 0.2 0.2 0.2 0.3 0.3 0.3 0.3 0.3 0.3 0.3 0.3 z m -2.9,0.6 c -0.8,0 -1.8,0 -2.9,0.1 V 0 h 0.1 c 1.1,0 1.5,-0.3 1.5,-1.3 v -7.1 c 0,-1.3 -0.3,-1.701 -1.4,-1.701 H -5.7 V -10.8 h 0.6 0.1 1.2 0.1 0.3 0.2 2.6 c 1.8,0 3.2,0 5,-0.1 l 0.1,3.4 H 3.8 C 3.5,-9.3 2.7,-10 0.8,-10 c -1.7,0 -2.2,0.6 -2.2,2.2 v 6.2 c 0,1.1 0.3,1.5 1.5,1.5 h 0.1 v 0.7 c -1.4,0.1 -2.4,0 -3.1,0"></path> </g> <g transform="translate(83.75,74.8999)" id="g296"> <path id="path298" style="fill:#000000;fill-opacity:1;fill-rule:nonzero;stroke:none" d="M 0,0 H 0.4 0.7 1 1.3 1.6 1.899 2.2 2.6 3 3.4 L 3.8,0.1 V -0.5 H 3.6 3.4 L 3.2,-0.6 3,-0.7 2.8,-0.8 2.6,-0.9 2.5,-1 2.4,-1.1 2.3,-1.2 2.2,-1.3 2.1,-1.4 2,-1.5 1.9,-1.7 l -2.1,-2.5 4.3,-5.5 0.1,-0.2 0.1,-0.2 0.1,-0.1 0.1,-0.099 0.1,-0.101 0.1,-0.1 0.1,-0.1 0.099,-0.1 L 5,-10.799 H 5.1 V -11.5 H 4.7 4.3 3.899 3.6 3.3 3 2.7 2.399 2.4 1.6 0.8 0.1 -0.6 v 0.6 h 0.2 0.2 0.1 0.1 l 0.1,0.101 0.1,0.099 0.1,0.1 0.099,0.1 0.101,0.1 0.1,0.101 v 0.099 0.1 0.1 0.1 0.1 l -0.1,0.1 -0.101,0.1 -0.099,0.1 0.1,-0.1 -2.6,3.4 -1,-1.1 v -1.9 -0.2 -0.2 -0.1 -0.1 -0.1 -0.1 -0.1 l 0.1,-0.1 0.1,-0.099 0.1,-0.101 0.1,-0.1 0.1,-0.1 0.099,-0.1 0.101,-0.099 0.1,-0.101 0.1,-0.1 h 0.1 0.2 0.2 0.199 v -0.599 H -1.8 -2.101 -2.4 -2.7 -3 -3.3 -3.7 -4.101 -4.6 -5 -5.4 -5.8 -6.101 -6.4 -6.7 -7 -7.3 -7.6 V -11 h 0.2 0.2 0.2 0.1 l 0.1,0.1 0.1,0.101 0.099,0.099 0.101,0.1 0.1,0.1 0.1,0.1 0.1,0.101 0.099,0.099 0.101,0.1 v 0.1 0.1 0.1 0.2 0.2 7.1 0.2 0.2 0.2 0.1 l -0.101,0.1 -0.099,0.1 -0.1,0.1 -0.1,0.1 -0.1,0.1 -0.101,0.1 -0.099,0.1 -0.1,0.1 -0.1,0.1 -0.2,0.1 H -7.3 -7.5 -7.6 V 0 h 0.5 0.6 0.6 0.6 0.6 0.5 0.5 0.599 0.601 0.6 V -0.6 H -2 -2.2 -2.4 -2.5 L -2.601,-0.7 -2.7,-0.8 -2.8,-0.9 -2.9,-1 -3,-1.1 -3.1,-1.2 -3.2,-1.3 -3.3,-1.4 -3.4,-1.5 v -0.1 -0.1 -0.2 -0.2 -0.2 -0.2 -3.8 l 1.6,1.8 0.3,0.3 0.3,0.3 0.2,0.3 0.2,0.3 0.2,0.3 0.2,0.2 0.1,0.2 0.1,0.2 0.1,0.2 0.1,0.2 0.1,0.1 0.1,0.1 0.1,0.1 0.099,0.1 0.101,0.1 v 0.1 0.1 0.1 0.1 L 0.399,-1 0.3,-0.9 0.2,-0.8 0.1,-0.7 0,-0.6 -0.1,-0.5 H -0.2 -0.4 -0.6 -0.8 V 0.1 Z M -1.6,0 H -1.9 C -2.5,0 -3,-0.1 -3.6,-0.1 h -0.8 c -1,0 -2,0 -2.9,0.1 V -0.6 C -6,-0.7 -5.7,-1 -5.7,-2.1 v -7.1 c 0,-1 -0.3,-1.4 -1.3,-1.5 h -0.3 v -0.7 h 0.3 0.3 c 0.599,0 1.5,0.1 2.4,0.1 1.2,0 2.2,0 2.9,-0.1 v 0.7 c -1.5,0.1 -1.5,0.4 -1.5,1.6 v 1.9 l 1,1.1 2.6,-3.4 C 0.9,-9.8 1,-10 1,-10.1 1,-10.4 0.7,-10.6 0,-10.6 h -0.2 v -0.7 H -0.101 0.2 c 0.4,0 1,0.1 1.5,0.1 H 2 2.899 c 0.601,0 1.601,0 2.801,-0.1 v 0.7 c -0.5,0 -1,0.3 -1.5,1 L 0.1,-4.3 0,-4.1 0.1,-4 0.399,-3.7 1.899,-2 2.2,-1.6 c 0.4,0.5 0.8,0.9 1.3,1.1 0.1,0 0.1,0.1 0.3,0.1 0.2,0.1 0.3,0.1 0.5,0.1 V 0.3 C 4.1,0.3 3.899,0.3 3.8,0.2 H 3.5 2.399 c -0.599,0 -1.5,0 -2.5,0.1 V -0.3 C 0.7,-0.3 1.1,-0.5 1.1,-0.9 1.1,-1.2 0.8,-1.6 0.3,-2.3 0.2,-2.4 0.2,-2.4 0.1,-2.5 L 0,-2.6 C -0.3,-3 -0.7,-3.4 -1.2,-4 L -1.5,-4.3 -1.8,-4.6 -2.2,-5.1 -2.5,-5.4 -2.9,-5.8 V -2 c 0,1.1 0.1,1.7 1.1,1.7 h 0.3 0.1 0.1 V 0.3 C -1.5,0 -1.5,0 -1.6,0"></path> </g> <g transform="translate(109.1504,73.2998)" id="g300"> <path id="path302" style="fill:#000000;fill-opacity:1;fill-rule:nonzero;stroke:none" d="m 0,0 v 0 c 0.1,-0.1 0.1,-0.1 0.1,-0.2 l 0.099,-0.1 c 0.101,-0.3 0.3,-0.8 0.3,-1.3 0,-0.9 -0.3,-1.5 -0.699,-1.8 l -0.101,-0.1 c -0.399,-0.3 -1,-0.4 -1.7,-0.4 h -0.6 v 4.1 c 0,0.6 0.1,0.6 0.8,0.6 C -1,0.8 -0.4,0.6 0,0 M -2.101,0.9 H -2.2 -2.301 -2.4 L -2.5,0.8 -2.601,0.7 -2.7,0.6 -2.8,0.5 V 0.4 0.3 0.2 0.101 -4 h 0.1 0.099 0.101 0.1 0.299 0.3 0.301 l 0.3,0.101 0.2,0.099 0.199,0.1 0.2,0.1 0.201,0.1 0.099,0.1 0.101,0.1 0.099,0.1 0.101,0.1 0.1,0.2 0.099,0.2 0.101,0.2 0.099,0.2 0.1,0.2 v 0.3 0.3 0.3 0.3 L 0.399,-0.6 0.3,-0.4 0.199,-0.2 0.1,0 0,0.2 -0.101,0.3 -0.2,0.4 -0.301,0.5 -0.4,0.6 -0.5,0.7 -0.7,0.8 -0.9,0.9 -1.101,1 l -0.2,0.1 h -0.3 -0.299 -0.201"></path> </g> <g transform="translate(108.25,74.8999)" id="g304"> <path id="path306" style="fill:#000000;fill-opacity:1;fill-rule:nonzero;stroke:none" d="M 0,0 H 0.4 0.8 L 1.1,-0.1 1.4,-0.2 1.7,-0.3 2,-0.4 2.3,-0.5 2.6,-0.6 2.899,-0.7 3.1,-0.8 3.3,-0.9 3.5,-1 3.7,-1.1 3.8,-1.2 3.899,-1.399 4,-1.6 4.1,-1.8 4.2,-2 4.3,-2.2 4.399,-2.5 V -2.8 -3.1 -3.399 -3.7 L 4.3,-3.899 4.2,-4.1 4.1,-4.3 4,-4.5 3.899,-4.7 3.8,-4.9 3.7,-5.1 3.5,-5.2 3.3,-5.3 3.1,-5.399 2.899,-5.5 2.6,-5.6 2.3,-5.7 1.9,-5.6 1.6,-5.7 1.3,-5.8 H 1.2 L 1.3,-5.9 1.4,-6 1.5,-6.1 1.6,-6.2 1.7,-6.299 1.8,-6.4 1.899,-6.5 2,-6.7 2.1,-6.9 2.2,-7.1 2.3,-7.299 2.5,-7.6 4.2,-9.9 4.3,-10.1 4.399,-10.299 4.5,-10.5 l 0.1,-0.1 0.099,-0.1 0.2,-0.099 L 5.1,-10.9 5.3,-11 5.5,-11.1 h 0.1 v -0.6 H 5.9 5.8 5.6 5.4 5.2 4.9 4.6 4.3 4 3.7 3.4 3.1 2.8 2.5 l -2.7,3.901 -0.1,0.2 L -0.4,-7.4 -0.5,-7.299 -0.6,-7.2 -0.7,-7.1 -0.8,-7 -0.899,-6.9 -1,-6.799 -1.1,-6.7 -1.2,-6.6 -1.3,-6.5 H -1.399 -1.5 -1.6 -1.699 -2.1 V -9.4 -9.6 -9.8 -10 l 0.1,-0.2 0.1,-0.1 0.1,-0.1 0.1,-0.1 0.099,-0.1 0.101,-0.1 0.1,-0.099 0.1,-0.101 0.1,-0.1 0.2,-0.1 h 0.2 0.199 0.201 0.1 v -0.6 H -0.7 -1.101 -1.5 -1.801 -2.101 -2.4 -2.7 -3 -3.3 -3.5 -3.7 -3.9 -4.1 -4.2 -4.5 -4.8 -5.2 -5.6 -6 -6.4 v 0.6 h 0.2 0.2 0.2 0.2 l 0.1,0.1 0.1,0.1 0.1,0.101 0.1,0.099 0.099,0.1 0.101,0.1 0.1,0.1 0.1,0.1 0.1,0.1 0.099,0.1 v 0.2 0.2 0.2 0.2 7.1 0.2 0.1 0.1 0.1 0.1 l -0.099,0.1 -0.1,0.1 -0.1,0.1 -0.1,0.1 -0.101,0.1 -0.099,0.1 -0.1,0.1 -0.1,0.1 -0.1,0.1 H -5.6 -5.8 -6 -6.2 -6.4 v 0.6 h 0.299 0.401 0.3 0.299 0.301 0.3 0.3 0.599 0.601 0.6 0.6 0.6 0.599 z m -2.7,0 h -0.1 -1.1 c -0.6,0 -1.3,0 -2.2,0.1 v -0.7 c 1.5,0 1.8,-0.3 1.8,-1.4 v -7.1 c 0,-1.3 -0.3,-1.7 -1.8,-1.7 v -0.7 c 0.3,0 0.6,0 0.8,0.1 h 0.8 0.7 c 0.6,0 1.9,0 3.8,-0.1 v 0.7 h -0.1 c -1.2,0 -1.6,0.4 -1.6,1.5 v 2.9 h 0.2 c 0.4,0 0.8,-0.2 1.1,-0.6 l 0.1,-0.1 C -0.2,-7.2 0,-7.4 0.1,-7.6 l 2.7,-3.9 c 0.4,0.1 0.9,0.1 1.3,0.1 1.1,0 1.8,0 2.2,-0.1 v 0.6 c -0.6,0.1 -1.1,0.4 -1.6,1.1 L 3,-7.5 c -0.3,0.4 -0.6,0.8 -0.8,1.1 -0.3,0.3 -0.4,0.4 -0.7,0.6 0.3,0.1 0.4,0.1 0.7,0.2 0.1,0 0.1,0.1 0.3,0.1 1.3,0.4 1.9,1.4 1.9,2.6 0,2 -1.5,2.9 -4.6,2.9 h -2.5"></path> </g> <g transform="translate(99.6504,72)" id="g308"> <path id="path310" style="fill:#000000;fill-opacity:1;fill-rule:nonzero;stroke:none" d="M 0,0 H -0.601 L -0.7,0.3 -0.801,0.6 -0.9,0.8 -1,1 -1.101,1.2 -1.2,1.3 -1.3,1.4 -1.4,1.5 -1.5,1.6 -1.601,1.7 -1.7,1.8 -1.8,1.9 -2,2 -2.2,2.1 -2.4,2.2 -2.601,2.3 H -2.8 -3.101 -3.4 -3.5 -3.801 -4.101 -4.301 -4.4 -4.5 -4.601 -4.7 -4.801 -4.9 -5 L -5.101,2.2 -5.2,2.1 V 2 1.9 1.8 1.7 1.6 -2.2 h 0.3 0.299 0.201 0.2 l 0.2,0.1 0.2,0.1 0.1,0.1 0.099,0.1 0.101,0.1 0.1,0.1 0.099,0.1 0.101,0.1 0.099,0.1 0.101,0.2 0.1,0.2 0.099,0.2 0.101,0.3 0.099,0.3 H -1.9 L -2,-0.6 V -1.2 -1.8 -2.4 -2.8 -3.2 -3.601 -4 -4.4 -4.7 H -2.601 L -2.7,-4.4 -2.801,-4.101 -2.9,-3.9 -3,-3.7 -3.101,-3.5 -3.2,-3.4 -3.3,-3.301 -3.4,-3.2 -3.5,-3.101 -3.601,-3 -3.7,-2.9 l -0.2,0.1 -0.201,0.099 -0.199,0.1 H -4.5 -4.7 -5 -5.3 v -3.099 -0.2 -0.201 -0.2 l 0.1,-0.2 0.099,-0.1 L -5,-6.7 -4.9,-6.801 -4.801,-6.9 -4.7,-7 -4.601,-7.101 -4.5,-7.2 -4.4,-7.301 -4.2,-7.4 -4,-7.5 h 0.199 0.2 0.3 0.301 0.3 0.3 0.299 l 0.201,0.1 0.2,0.099 0.2,0.101 0.199,0.099 0.2,0.101 0.201,0.1 0.099,0.099 0.101,0.101 0.099,0.099 0.101,0.1 0.1,0.2 0.099,0.2 0.101,0.201 0.099,0.2 0.1,0.3 0.101,0.299 0.099,0.3 H 0.8 V -8.2 H 0.199 -0.5 -1.101 -1.7 h -0.601 -0.5 -0.5 -0.5 H -4.2 -4.601 -5 -5.5 -6.5 -7 -7.5 -7.9 -8.301 -8.7 L -9.101,-8.301 V -7.7 h 0.201 0.2 0.199 0.101 l 0.099,0.099 0.101,0.1 0.099,0.101 0.1,0.099 0.101,0.1 0.099,0.1 0.1,0.1 0.1,0.101 0.1,0.099 0.101,0.1 v 0.2 0.2 0.2 0.201 0.299 0.3 6.3 0.2 0.2 0.2 l -0.101,0.2 -0.1,0.1 -0.1,0.1 -0.1,0.1 -0.099,0.1 -0.101,0.1 -0.1,0.1 -0.099,0.1 -0.101,0.1 -0.099,0.1 h -0.201 -0.2 -0.2 -0.1 v 0.6 l 0.901,-0.1 0.899,-0.1 h 0.901 0.799 0.3 0.3 0.301 0.3 0.299 0.401 0.399 0.401 0.4 0.399 0.401 0.399 0.5 0.5 0.5 z m -5.801,2.8 c -1.099,0 -2.3,0.1 -3.5,0.1 V 2.3 H -9.2 c 1.099,0 1.5,-0.4 1.5,-1.7 v -6.3 c 0,-1.7 -0.101,-2.2 -1.401,-2.2 h -0.2 v -0.7 c 0.901,0.1 1.8,0.1 2.901,0.1 h 1 c 1.599,0 3.7,0 6.2,-0.1 v 3.4 H 0.199 C 0,-6.2 -0.2,-6.7 -0.7,-7.2 c -0.101,-0.1 -0.101,-0.1 -0.2,-0.1 -0.5,-0.4 -1.201,-0.5 -2.201,-0.5 -1.299,0 -1.9,0.4 -1.9,1.7 V -3 h 0.2 c 0.901,0 1.5,-0.2 1.8,-0.7 L -2.9,-3.8 c 0.099,-0.2 0.2,-0.4 0.2,-0.6 v -0.1 c 0,-0.1 0.099,-0.3 0.099,-0.4 H -1.9 c -0.101,0.7 -0.101,1.5 -0.101,2.4 0,0.8 0,1.5 0.101,2.2 H -2.601 C -2.9,-1.5 -3.2,-2 -4.101,-2.1 h -0.2 -0.099 -0.3 -0.101 -0.3 v 3.8 c 0,0.5 0.1,0.5 1,0.5 1.701,0 2.5,-0.1 3.1,-1 0.101,-0.1 0.2,-0.3 0.301,-0.5 0.099,-0.2 0.099,-0.4 0.199,-0.6 h 0.7 v 3 c -2.8,-0.2 -4.8,-0.3 -6,-0.3"></path> </g> <g transform="translate(70.3501,75.1001)" id="g312"> <path id="path314" style="fill:#000000;fill-opacity:1;fill-rule:nonzero;stroke:none" d="M 0,0 H 0.3 L 0.6,-0.1 0.9,-0.2 1.2,-0.3 1.5,-0.4 1.799,-0.5 2.1,-0.6 2.4,-0.7 2.7,-0.8 3,-0.9 3.299,-1.1 3.5,-1.3 l 0.799,1 H 4.7 V -0.7 -1.1 -1.5 -1.9 -2.3 -2.7 -3.1 H 4.4 L 4.299,-2.9 4.2,-2.6 4.1,-2.4 4,-2.2 3.9,-2 3.8,-1.8 3.6,-1.6 3.4,-1.4 3.2,-1.2 3,-1.1 2.8,-1 2.5,-0.9 2.2,-0.8 1.9,-0.7 1.6,-0.6 1.3,-0.5 1,-0.4 0.7,-0.3 0.4,-0.2 H 0.1 -0.2 -0.5 -0.8 L -1.1,-0.3 -1.4,-0.4 -1.6,-0.5 -1.8,-0.6 -2,-0.7 -2.2,-0.8 -2.3,-0.9 -2.4,-1 -2.5,-1.1 -2.6,-1.2 -2.7,-1.3 -2.8,-1.4 -2.9,-1.7 -3,-1.8 V -1.9 -2 -2.1 -2.2 -2.3 l 0.1,-0.1 0.1,-0.1 0.1,-0.1 0.1,-0.1 0.1,-0.1 0.1,-0.099 0.1,-0.101 0.1,-0.1 0.1,-0.1 0.2,-0.1 0.2,-0.099 0.2,-0.101 0.3,-0.1 0.3,-0.1 0.3,-0.099 0.3,-0.1 L 0,-4 l 0.4,-0.1 0.4,-0.099 0.4,-0.1 0.4,-0.1 0.3,-0.101 0.3,-0.099 0.3,-0.1 0.3,-0.1 0.3,-0.1 0.3,-0.2 0.3,-0.2 0.2,-0.2 0.2,-0.2 0.2,-0.2 0.1,-0.2 0.1,-0.2 0.1,-0.201 0.1,-0.299 0.1,-0.3 0.1,-0.3 0.1,-0.3 V -8 v -0.299 -0.3 -0.3 L 4.9,-9.199 4.8,-9.5 4.7,-9.799 4.6,-10 l -0.1,-0.199 -0.1,-0.2 -0.1,-0.2 -0.2,-0.2 -0.2,-0.201 -0.2,-0.199 -0.2,-0.1 -0.2,-0.1 -0.3,-0.101 -0.3,-0.099 -0.3,-0.1 -0.3,-0.1 -0.3,-0.1 -0.3,-0.1 -0.3,-0.1 -0.3,-0.1 -0.3,-0.1 H 0.3 -0.1 -0.4 -0.7 l -0.3,0.1 -0.3,0.1 -0.3,0.1 -0.3,0.1 -0.3,0.1 -0.2,0.1 -0.2,0.1 -0.2,0.099 -0.2,0.101 -0.2,0.1 -0.1,0.1 -0.1,0.1 L -3.5,-11 -3.6,-10.899 -4.5,-12 h -0.3 v 3.601 h 0.4 l 0.1,-0.301 0.1,-0.3 0.1,-0.299 0.1,-0.3 0.1,-0.2 0.1,-0.201 0.1,-0.2 0.1,-0.199 0.1,-0.2 0.2,-0.2 0.2,-0.1 0.2,-0.101 0.2,-0.099 0.2,-0.1 0.2,-0.1 0.2,-0.1 0.2,-0.101 0.3,-0.099 0.3,-0.1 h 0.3 0.3 0.3 0.3 0.3 l 0.3,0.1 0.3,0.099 0.3,0.101 0.2,0.1 0.2,0.1 0.2,0.1 0.1,0.099 0.1,0.101 0.1,0.1 0.1,0.099 0.1,0.101 0.099,0.099 0.101,0.1 0.1,0.2 v 0.2 0.201 0.2 0.099 L 2.4,-9.4 2.299,-9.299 2.2,-9.2 2.1,-9.099 V -9 L 2,-8.9 1.9,-8.799 1.8,-8.7 1.7,-8.6 1.5,-8.5 1.3,-8.4 1.1,-8.299 0.9,-8.2 0.6,-8.1 0.3,-8 0,-7.9 l -0.3,0.1 -0.3,0.1 -0.3,0.1 -0.4,0.1 -0.4,0.1 -0.3,0.1 -0.3,0.1 -0.3,0.1 -0.3,0.1 -0.3,0.1 -0.3,0.1 -0.3,0.1 -0.2,0.2 -0.2,0.2 -0.2,0.2 -0.1,0.2 -0.1,0.2 -0.1,0.2 -0.1,0.2 -0.1,0.2 -0.1,0.2 -0.1,0.3 -0.1,0.3 v 0.3 0.3 0.3 0.3 l 0.1,0.3 0.1,0.3 0.1,0.2 0.1,0.2 0.1,0.2 0.1,0.2 0.1,0.2 0.2,0.2 0.2,0.1 0.2,0.1 0.2,0.1 0.2,0.1 0.3,0.1 0.3,0.1 0.3,0.1 0.3,0.1 0.3,0.1 0.3,0.1 0.3,0.1 h 0.3 0.3 z m -4.6,-3.2 c 0,-1.9 1.3,-3.2 4.1,-3.8 1.6,-0.4 2.5,-0.7 3,-1.3 l 0.1,-0.1 v -0.1 c 0,-0.1 0.1,-0.1 0.1,-0.1 0.099,-0.2 0.2,-0.4 0.2,-0.7 0,-0.6 -0.3,-1.1 -1,-1.5 H 1.799 L 1.7,-10.9 1.5,-11 c -0.4,-0.1 -0.8,-0.2 -1.3,-0.2 h -0.4 c -1.8,0 -2.9,1.2 -3.8,3 h -0.4 v -3.6 h 0.3 l 0.8,1.1 c 0.5,-0.6 1.8,-1.4 3.4,-1.4 0.4,0 0.7,0 1,0.1 l 0.3,0.1 0.3,0.1 h 0.099 c 0.401,0.1 0.801,0.2 1.101,0.4 l 0.2,0.1 h 0.1 l 0.2,0.1 h 0.1 c 1.1,0.6 1.7,1.7 1.7,2.9 0,2.1 -1.7,3.4 -5,4.1 -2.1,0.4 -2.9,0.9 -2.9,1.8 0,0.9 0.8,1.7 2.5,1.7 1.3,0 2.6,-0.6 3.4,-1.5 L 3.299,-2.3 3.4,-2.4 c 0.3,-0.3 0.399,-0.7 0.5,-1.1 h 0.399 v 3.2 L 3.8,-0.3 3.4,-0.8 3.1,-1.1 2.9,-1.3 C 1.9,-0.5 0.9,0 -0.5,0 -2.9,0 -4.6,-1.3 -4.6,-3.2"></path> </g> <g transform="translate(23.8501,76.5)" id="g316"> <path id="path318" style="fill:#000000;fill-opacity:1;fill-rule:nonzero;stroke:none" d="M 0,0 H 0.7 1.4 2.2 3 3.8 4.6 5.4 6.2 7 7.7 8.4 9.1 9.8 10.4 l 0.1,-3.7 H 9.9 L 9.8,-3.4 9.7,-3.1 9.6,-2.8 9.5,-2.5 9.4,-2.3 9.3,-2.1 9.2,-1.9 9.1,-1.7 9,-1.6 8.9,-1.5 8.8,-1.4 8.7,-1.3 8.5,-1.2 8.3,-1.1 8.1,-1 7.9,-0.9 7.7,-0.8 H 7.4 7.1 6.8 6.5 6.3 6 v -9.7 -0.2 -0.2 -0.201 l 0.1,-0.099 0.1,-0.1 0.1,-0.1 0.1,-0.1 0.1,-0.101 0.1,-0.099 0.1,-0.1 0.1,-0.1 0.1,-0.1 0.1,-0.1 0.2,-0.1 H 7.4 7.6 7.8 V -13 H 7.2 6.6 6 5.4 4.8 4.5 4.2 3.9 3.6 3.3 3 2.6 2.2 1.8 1.4 v 0.8 H 1.6 1.8 2 l 0.2,0.1 0.1,0.1 0.1,0.1 0.1,0.1 0.1,0.1 0.1,0.099 0.1,0.101 0.1,0.1 0.1,0.1 0.1,0.1 0.1,0.099 v 0.101 0.199 0.2 0.201 9.7 H 3 2.8 2.6 2.399 2.3 2 1.7 L 1.5,-0.8 1.3,-0.9 1.1,-1 0.9,-1.1 0.7,-1.2 0.6,-1.3 0.5,-1.4 0.4,-1.5 0.3,-1.6 0.2,-1.7 0.1,-1.9 0,-2.1 -0.1,-2.3 0,-2.5 -0.1,-2.8 -0.2,-3.1 -0.3,-3.4 -0.4,-3.7 H -1 l 0.1,3.8 z m -0.9,-3.7 h 0.7 C 0.1,-1.6 0.9,-1 2.7,-1 h 0.7 v -9.7 c 0,-1.2 -0.3,-1.5 -1.7,-1.6 v -0.8 c 1.4,0.1 2.5,0.1 3.2,0.1 0.9,0 1.8,0 2.9,-0.1 v 0.8 c -1.2,0.1 -1.7,0.3 -1.7,1.2 v 0.4 9.7 H 6.4 7 c 1.8,0 2.5,-0.7 2.9,-2.7 h 0.6 L 10.4,0.1 H 10.1 9.8 C 8.8,0.1 7.8,0 6.7,0 H 6.4 4.9 4.6 3.6 C 2,0 0.5,0 -0.9,0.1"></path> </g> <path id="path320" style="fill:#000000;fill-opacity:1;fill-rule:nonzero;stroke:none" d="m 113.35,75.1 h 0.301 v -0.2 h -0.301 z"></path> <g transform="translate(113.6504,75.1001)" id="g322"> <path id="path324" style="fill:#000000;fill-opacity:1;fill-rule:nonzero;stroke:none" d="M 0,0 V -0.2 H 0.199 V -1.6 H 0.5 v 1.4 H 1 V 0 H 0.199 Z"></path> </g> <g transform="translate(116.1504,75.1001)" id="g326"> <path id="path328" style="fill:#000000;fill-opacity:1;fill-rule:nonzero;stroke:none" d="m 0,0 v 0 l -0.4,-1.3 -0.201,0.5 -0.2,0.7 L -0.9,0 h -0.3 v -1.6 h 0.3 v 1.2 l 0.099,-0.4 0.2,-0.6 v -0.2 h 0.3 L 0.1,-0.4 v -1.2 h 0.2 l 0,1.6 z"></path> </g> </g> </g> </g> </svg> 