<?xml version="1.0" encoding="UTF-8" standalone="no"?> <svg xmlns:dc="http://purl.org/dc/elements/1.1/" xmlns:cc="http://creativecommons.org/ns#" xmlns:rdf="http://www.w3.org/1999/02/22-rdf-syntax-ns#" xmlns:svg="http://www.w3.org/2000/svg" xmlns="http://www.w3.org/2000/svg" viewBox="0 0 186.66667 186.66667" height="186.66667" width="186.66667" xml:space="preserve" id="svg2"> <metadata id="metadata8"></metadata> <defs id="defs6"> <clipPath id="clipPath44" clipPathUnits="userSpaceOnUse"> <path id="path42" d="M 0,140 H 140 V 0 H 0 Z"></path> </clipPath> </defs> <g transform="matrix(1.3333333,0,0,-1.3333333,0,186.66667)" id="g10"> <g transform="translate(29.2998,76.1001)" id="g12"> <path id="path14" style="fill:#000000;fill-opacity:1;fill-rule:nonzero;stroke:none" d="m 0,0 v -2.4 h 0.8 l 0.4,0.3 v 0.3 H 1.3 V -3.3 H 1.2 v 0.2 L 0.8,-2.7 H 0 v -2.7 h 1.5 l 0.6,0.6 v 0.3 h 0.1 v -1.3 h -3.7 v 0.1 h 0.4 l 0.3,0.5 V 0 L -1.1,0.5 H -1.5 V 0.6 H 2.2 V -0.7 H 2.1 v 0.3 L 1.5,0.2 Z m -9.1,-5.9 v 0 l -0.4,0.1 -0.3,0.5 V 0 h 0.9 l 0.6,-0.6 v -0.3 h 0.1 v 1.3 h -4 v -1.3 h 0.1 v 0.3 l 0.6,0.6 h 0.9 v -5.3 l -0.3,-0.5 h -0.3 v -0.1 z m 5.5,6.2 h 1 V 0.2 h -0.3 l -0.3,-0.4 v -5.2 l 0.3,-0.4 h 0.3 v -0.1 h -1 -1 v 0.1 h 0.3 l 0.3,0.4 v 2.6 h -2.1 v -2.6 l 0.3,-0.4 h 0.3 v -0.1 h -1 -1 v 0.1 h 0.3 l 0.3,0.4 v 5.2 l -0.3,0.4 h -0.3 v 0.1 h 1 1 V 0.2 H -5.7 L -6,-0.2 v -2.3 h 2.1 v 2.3 l -0.3,0.4 h -0.3 v 0.1 z"></path> </g> <g transform="translate(49.5,77.7998)" id="g16"> <path id="path18" style="fill:#000000;fill-opacity:1;fill-rule:nonzero;stroke:none" d="M 0,0 H -0.9 L -1.6,-1.2 V -12.899 L -0.9,-14 H 0 v -0.2 h -2.7 -2.6 v 0.2 h 0.9 l 0.7,1.101 V -1.2 L -4.4,0 h -0.9 v 0.2 h 2.6 l 2.7,0 z"></path> </g> <g transform="translate(49.7998,63.7998)" id="g20"> <path id="path22" style="fill:#000000;fill-opacity:1;fill-rule:nonzero;stroke:none" d="M 0,0 H 0.9 L 1.8,1.5 V 12.9 L 1.1,14 H 0.5 v 0.2 H 3.9 L 8.8,3.5 v 8.9 L 7.9,14 H 7 v 0.2 h 4.6 V 14 H 10.7 L 9.9,12.5 V -0.6 h -1 l -6,12.4 V 1.5 L 3.9,0 H 4.7 V -0.2 H 0 Z"></path> </g> <g transform="translate(72.0996,63.7998)" id="g24"> <path id="path26" style="fill:#000000;fill-opacity:1;fill-rule:nonzero;stroke:none" d="M 0,0 H 0.801 L 1.5,1.101 V 12.8 L 0.801,14 H 0 v 0.2 H 2.5 5.2 V 14 H 4.301 L 3.5,12.8 V 0.8 H 6.801 L 8,2.2 V 3 H 8.2 V -0.2 H 0 Z"></path> </g> <path id="path28" style="fill:#000000;fill-opacity:1;fill-rule:nonzero;stroke:none" d="m 101.201,63.599 h 5.099 v 1 h -5.099 z"></path> <g transform="translate(91.7998,63.7998)" id="g30"> <path id="path32" style="fill:#000000;fill-opacity:1;fill-rule:nonzero;stroke:none" d="M 0,0 H 1 L 1.8,1.101 V 13.1 h -2 l -1.4,-1.4 v -0.6 h -0.299 v 3.1 H 7.4 V 11.1 H 7.2 v 0.6 L 5.8,13.1 H 3.9 L 3.9,1.101 4.601,0 h 1 V -0.2 H 0 Z"></path> </g> <g transform="translate(87.5996,64.5996)" id="g34"> <path id="path36" style="fill:#000000;fill-opacity:1;fill-rule:nonzero;stroke:none" d="M 0,0 1.4,1.4 V 2.2 H 1.601 V -1 h -8.8 v 0.301 H -6.5 l 0.801,1 V 12 L -6.5,13.2 h -0.699 v 0.2 H 1.4 V 10.3 H 1.101 v 0.6 L -0.3,12.3 H -3.699 V 7.101 h 2 l 1,0.699 V 8.5 H -0.5 V 6.601 4.7 h -0.199 v 0.6 l -1,0.801 h -2 l 0,-6.101 z"></path> </g> <g id="g38"> <g clip-path="url(#clipPath44)" id="g40"> <g transform="translate(34.3999,63.4004)" id="g46"> <path id="path48" style="fill:#000000;fill-opacity:1;fill-rule:nonzero;stroke:none" d="M 0,0 V -0.4 H -0.4 V 5.7 H 0 V 4.899 l 1.9,-2.9 c 0.1,-0.1 1.3,-1 2.4,-1 2,0 2.9,1.5 2.9,3.2 C 7.2,5.3 6.8,6.299 6.1,7.1 5.7,7.5 5.3,8 4.9,8.399 4.5,8.8 4,9.2 3.5,9.7 c -1.9,1.699 -3.9,3.4 -3.9,5.9 0,2.9 2.3,4.6 4.3,4.6 0.9,0 1.6,-0.301 2.2,-0.401 C 6.5,19.6 6.7,19.5 6.9,19.399 L 7.8,20 v 0.6 h 0.4 v -6 H 7.8 v 0.799 l -1.3,2.4 c -0.1,0.1 -1,1.5 -2.2,1.5 -2,0 -2.7,-1.5 -2.7,-2.599 C 1.6,15.799 2,14.899 2.7,14.1 3.1,13.7 3.5,13.299 3.9,12.799 4.3,12.399 4.9,12 5.3,11.5 7.2,9.799 9.2,7.899 9.2,5.199 c 0,-2.8 -2,-5.2 -4.7,-5.2 -1.8,0 -3,0.7 -3.3,0.801 z"></path> </g> <g transform="translate(108.5996,63.7998)" id="g50"> <path id="path52" style="fill:#000000;fill-opacity:1;fill-rule:nonzero;stroke:none" d="M 0,0 H 0.9 L 1.801,1.5 V 12.9 L 1.101,14 H 0.5 v 0.2 H 3.9 L 8.801,3.5 v 8.9 L 7.9,14 H 7 v 0.2 h 4.601 V 14 H 10.7 L 9.801,12.5 V -0.6 h -1 L 2.9,11.8 V 1.5 L 3.801,0 H 4.7 V -0.2 H 0 Z"></path> </g> <g transform="translate(66.7002,63.2002)" id="g54"> <path id="path56" style="fill:#000000;fill-opacity:1;fill-rule:nonzero;stroke:none" d="m 0,0 c -3.5,0 -4.5,4 -4.5,7.5 0,3.2 1.7,7.6 5,7.6 0.6,0 1.3,-0.2 1.7,-0.4 0.3,-0.1 0.5,-0.3 0.6,-0.3 L 3.6,15 v 0.4 H 3.9 V 10.5 10.2 H 3.6 v 0.6 L 2,13.5 1.9,13.6 C 1.8,13.7 1.7,13.7 1.6,13.9 1.3,14.1 1,14.2 0.4,14.2 -1.7,14.2 -2.1,10.6 -2.1,7.6 -2.1,7 -2,4 -2,3.3 -1.7,2 -1.2,1.1 -0.2,1.1 0.6,1.1 1.1,1.399 1.4,1.699 1.5,1.899 1.7,2 1.7,2.1 1.8,2.199 1.8,2.199 1.8,2.3 v 4.8 l -1,1.3 H 0.2 V 8.7 H 5.3 V 8.4 H 4.699 L 3.7,7.1 V 0 L 2.4,1.1 C 2.4,0.8 1.6,0 0,0"></path> </g> <g transform="translate(103.7002,66.2998)" id="g58"> <path id="path60" style="fill:#000000;fill-opacity:1;fill-rule:nonzero;stroke:none" d="m 0,0 c -2.5,0 -4.101,3.1 -4.101,5.9 0,4.2 2.301,6.2 4.101,6.2 1.8,0 4.1,-2 4.1,-6.2 C 4.1,3.1 2.6,0 0,0 m 0,11.1 c -1.9,0 -2.2,-2.4 -2.2,-5.6 0,-3.2 0.8,-4.8 2.2,-4.8 1.399,0 2.2,1.6 2.2,4.8 0,3.2 -0.301,5.6 -2.2,5.6"></path> </g> <g transform="translate(120.2998,65.2002)" id="g62"> <path id="path64" style="fill:#000000;fill-opacity:1;fill-rule:nonzero;stroke:none" d="M 0,0 H 0.4 V -1.601 H 0.7 V 0 H 1 1.101 V 0.2 H 0 Z"></path> </g> <g transform="translate(122.5,65.4004)" id="g66"> <path id="path68" style="fill:#000000;fill-opacity:1;fill-rule:nonzero;stroke:none" d="M 0,0 -0.2,-1.2 -0.5,0 h -0.4 v -1.801 h 0.3 V -0.5 l 0.2,-1.301 h 0.2 L 0.1,-0.5 V -1.801 H 0.4 L 0.4,0 Z"></path> </g> <g transform="translate(43.2002,57.2002)" id="g70"> <path id="path72" style="fill:#000000;fill-opacity:1;fill-rule:nonzero;stroke:none" d="M 0,0 C 0,-0.4 0.2,-0.5 0.5,-0.5 0.8,-0.5 1,-0.4 1,0 V 1.5 C 1,1.899 0.8,2 0.5,2 0.2,2 0,1.899 0,1.5 Z M -0.7,1.399 C -0.7,2.3 -0.2,2.6 0.6,2.6 1.4,2.6 1.9,2.3 1.9,1.399 V 0.1 c 0,-0.9 -0.5,-1.201 -1.3,-1.201 -0.8,0 -1.3,0.301 -1.3,1.201 z"></path> </g> <g transform="translate(49.5,56.0996)" id="g74"> <path id="path76" style="fill:#000000;fill-opacity:1;fill-rule:nonzero;stroke:none" d="M 0,0 V 3.601 H 2 V 3 H 0.8 V 2.2 h 1 V 1.601 h -1 V 0 Z"></path> </g> <g transform="translate(60.6001,56.7998)" id="g78"> <path id="path80" style="fill:#000000;fill-opacity:1;fill-rule:nonzero;stroke:none" d="m 0,0 h 0.3 c 0.4,0 0.6,0.2 0.6,0.7 v 1 C 0.9,2.2 0.7,2.4 0.3,2.4 H 0 Z M -0.8,3 H 0.3 C 1.2,3 1.6,2.7 1.7,1.7 V 0.601 C 1.6,-0.3 1.2,-0.7 0.3,-0.7 h -1.1 z"></path> </g> <g transform="translate(67.6001,59.7998)" id="g82"> <path id="path84" style="fill:#000000;fill-opacity:1;fill-rule:nonzero;stroke:none" d="M 0,0 V -2.5 C 0,-2.8 0.2,-3 0.5,-3 c 0.4,0 0.6,0.2 0.6,0.5 V 0 h 0.8 v -2.5 c 0,-0.8 -0.5,-1.1 -1.3,-1.1 -0.8,0 -1.3,0.3 -1.3,1.1 V 0 Z"></path> </g> <g transform="translate(74.0996,56.0996)" id="g86"> <path id="path88" style="fill:#000000;fill-opacity:1;fill-rule:nonzero;stroke:none" d="M 0,0 V 3.601 H 2 V 3 H 0.801 V 2.2 h 1 V 1.601 h -1 L 0.801,0 Z"></path> </g> <g transform="translate(80.4004,56.0996)" id="g90"> <path id="path92" style="fill:#000000;fill-opacity:1;fill-rule:nonzero;stroke:none" d="M 0,0 V 3.601 H 2 V 3 H 0.8 V 2.2 h 1 V 1.601 h -1 V 0 Z"></path> </g> <g transform="translate(89,59.7998)" id="g94"> <path id="path96" style="fill:#000000;fill-opacity:1;fill-rule:nonzero;stroke:none" d="m 0,0 v -0.6 h -0.9 v -3.1 h -0.8 v 3.1 H -2.6 V 0 Z"></path> </g> <g transform="translate(94.0996,57.2002)" id="g98"> <path id="path100" style="fill:#000000;fill-opacity:1;fill-rule:nonzero;stroke:none" d="M 0,0 C 0,-0.4 0.2,-0.5 0.5,-0.5 0.801,-0.5 1,-0.4 1,0 V 1.5 C 1,1.899 0.801,2 0.5,2 0.2,2 0,1.899 0,1.5 Z M -0.8,1.399 C -0.8,2.3 -0.3,2.6 0.5,2.6 1.301,2.6 1.801,2.3 1.801,1.399 V 0.1 c 0,-0.9 -0.5,-1.201 -1.301,-1.201 -0.8,0 -1.3,0.301 -1.3,1.201 z"></path> </g> <g transform="translate(100.0996,59.7998)" id="g102"> <path id="path104" style="fill:#000000;fill-opacity:1;fill-rule:nonzero;stroke:none" d="M 0,0 H 0.7 L 1.2,-2.399 1.801,0 h 0.8 L 3.2,-2.399 3.7,0 H 4.4 L 3.5,-3.6 H 2.7 L 2.101,-1.1 1.5,-3.6 H 0.7 Z"></path> </g> <g transform="translate(108.9004,56.0996)" id="g106"> <path id="path108" style="fill:#000000;fill-opacity:1;fill-rule:nonzero;stroke:none" d="M 0,0 V 3.601 H 0.8 L 1.899,1.4 V 3.601 H 2.6 V 0 H 1.8 L 0.699,2.4 V 0 Z"></path> </g> </g> </g> </g> </svg> 