<?xml version="1.0" encoding="UTF-8" standalone="no"?> <svg xmlns:dc="http://purl.org/dc/elements/1.1/" xmlns:cc="http://creativecommons.org/ns#" xmlns:rdf="http://www.w3.org/1999/02/22-rdf-syntax-ns#" xmlns:svg="http://www.w3.org/2000/svg" xmlns="http://www.w3.org/2000/svg" viewBox="0 0 186.66667 186.66667" height="186.66667" width="186.66667" xml:space="preserve" id="svg2"> <metadata id="metadata8"></metadata> <defs id="defs6"> <clipPath id="clipPath18" clipPathUnits="userSpaceOnUse"> <path id="path16" d="M 0,140 H 140 V 0 H 0 Z"></path> </clipPath> </defs> <g transform="matrix(1.3333333,0,0,-1.3333333,0,186.66667)" id="g10"> <g id="g12"> <g clip-path="url(#clipPath18)" id="g14"> <g transform="translate(95.5996,91.8999)" id="g20"> <path id="path22" style="fill:#000000;fill-opacity:1;fill-rule:nonzero;stroke:none" d="m 0,0 c 0,-1 -0.6,-1.5 -1.6,-2.2 -0.599,-0.4 -1.099,-0.7 -1.099,-1.3 v -0.1 c 0,-0.1 0,-0.1 0.099,-0.1 h 2.401 c 0.099,0 0.099,0 0.099,-0.1 v -0.8 c 0,-0.1 -0.099,-0.1 -0.099,-0.1 H -3.8 c -0.099,0 -0.099,0 -0.099,0.1 v 1.1 c 0,1.1 0.599,1.7 1.799,2.4 0.6,0.4 1,0.6 1,1 0,0.4 -0.299,0.7 -0.7,0.7 H -2.199 C -2.399,0.6 -2.6,0.5 -2.8,0.3 -2.899,0.1 -3,0 -3.1,0 H -3.199 L -4.1,0.4 c -0.099,0 -0.099,0.1 -0.099,0.1 0,0.1 0.099,0.4 0.399,0.7 0.3,0.3 0.8,0.5 1.3,0.5 h 0.4 C -0.699,1.7 0,1 0,0 m -7.5,-0.6 c 0,0.1 -0.1,0.1 -0.1,0.1 0,0 -0.099,0 -0.099,-0.1 l -1,-1.6 v -0.1 c 0,-0.1 0.099,-0.1 0.099,-0.1 h 1 c 0.1,0 0.1,0 0.1,0.1 v 1.5 z m 1.9,-2.7 h -0.599 c -0.101,0 -0.101,0 -0.101,-0.1 v -1.2 c 0,-0.1 -0.099,-0.1 -0.099,-0.1 h -1 c -0.101,0 -0.101,0 -0.101,0.1 v 1.2 c 0,0.1 -0.1,0.1 -0.1,0.1 H -10 c -0.1,0 -0.1,0 -0.1,0.1 v 0.8 l 2.6,3.9 0.101,0.1 h 1 c 0.099,0 0.099,0 0.099,-0.1 v -3.7 c 0,-0.1 0,-0.1 0.101,-0.1 H -5.6 c 0.1,0 0.1,-0.1 0.1,-0.1 l -0.1,-0.9 c 0.201,0 0.1,0 0,0"></path> </g> <g transform="translate(54.2002,91.8999)" id="g24"> <path id="path26" style="fill:#000000;fill-opacity:1;fill-rule:nonzero;stroke:none" d="M 0,0 C 0,0.4 -0.3,0.7 -0.7,0.7 H -1 C -1.4,0.7 -1.7,0.4 -1.7,0 v -0.7 c 0,-0.4 0.3,-0.7 0.7,-0.7 h 0.3 c 0.4,0 0.7,0.3 0.7,0.7 z m -0.8,-4.8 h -0.3 c -0.6,0 -1,0.1 -1.3,0.4 -0.3,0.3 -0.4,0.6 -0.4,0.8 0,0 0,0.1 0.1,0.1 l 0.9,0.4 h 0.1 c 0.1,0 0.1,-0.1 0.2,-0.3 0.1,-0.2 0.3,-0.3 0.6,-0.3 h 0.3 c 0.4,0 0.7,0.3 0.7,0.7 v 0.6 c 0,0.1 0,0.1 -0.1,0.1 -0.1,0 -0.4,-0.2 -0.8,-0.2 h -0.3 c -1,0 -1.8,0.8 -1.8,1.8 V 0 c 0,1.1 0.8,1.8 1.8,1.8 h 0.3 C 0.3,1.8 1.1,1.1 1.1,0 V -3 C 1.2,-4.1 0.4,-4.8 -0.8,-4.8 m -3.6,0.1 h -3.2 c -0.1,0 -0.1,0 -0.1,0.1 v 0.8 c 0,0.1 0.1,0.1 0.1,0.1 h 1 c 0.1,0 0.1,0 0.1,0.1 v 2.9 c 0,0.1 -0.1,0.1 -0.1,0.1 0,0 -0.1,0 -0.1,-0.1 L -7,-1 -7.1,-1.1 c 0,0 -0.1,0 -0.1,0.1 l -0.6,0.6 -0.1,0.1 c 0,0 0,0.1 0.1,0.1 l 1.7,1.7 h 0.1 0.6 c 0.1,0 0.1,0 0.1,-0.1 v -5.1 c 0,-0.1 0,-0.1 0.1,-0.1 h 1 c 0.1,0 0.1,0 0.1,-0.1 v -0.8 h -0.3"></path> </g> <g transform="translate(43.5,84.5)" id="g28"> <path id="path30" style="fill:#000000;fill-opacity:1;fill-rule:nonzero;stroke:none" d="m 0,0 c 0,0 3,-0.3 7.3,-0.3 4.3,0 7.3,0.3 7.3,0.3 0,0 -3,0.3 -7.3,0.3 C 3,0.3 0,0 0,0"></path> </g> <g transform="translate(83.2998,84.5)" id="g32"> <path id="path34" style="fill:#000000;fill-opacity:1;fill-rule:nonzero;stroke:none" d="m 0,0 c 0,0 3,-0.3 7.3,-0.3 4.301,0 7.301,0.3 7.301,0.3 0,0 -3,0.3 -7.301,0.3 C 3,0.3 0,0 0,0"></path> </g> <g transform="translate(52.8999,50.7002)" id="g36"> <path id="path38" style="fill:#000000;fill-opacity:1;fill-rule:nonzero;stroke:none" d="M 0,0 C -0.5,-0.3 -1.1,-0.5 -1.8,-0.8 -2,-0.9 -2.2,-1 -2.4,-1.101 -3.7,-0.5 -5.1,0 -6,0.5 -4.4,1.3 -3.1,1.899 -2.7,2.1 -1.6,1.5 -0.7,0.8 0,0 M 2.2,-3 C 0.8,-2.601 0,-2.2 -2,-1.3 c 0.1,0.1 2,0.9 2.3,1.1 0.8,-1 1.5,-1.901 1.9,-2.8 M 9,-1.7 c 0,0 -2.2,0.4 -5.7,-0.901 -0.4,1.101 -1,2 -1.8,2.901 6.4,2.2 7.8,-0.6 7.5,-2 m 2.8,-2.8 c 0,-1.9 -1.8,-4 -8.1,-2.9 0.3,1.6 0.1,2.299 0.1,2.799 C 7.9,-5.2 9.1,-2.7 9.2,-2 c 1.1,-0.101 2.6,-1.101 2.6,-2.5 m -8.4,1.7 c 0.4,0.199 3.2,1.199 5.5,0.9 C 8.7,-2.5 8.1,-4.3 3.6,-3.4 3.5,-3.2 3.5,-3 3.4,-2.8 M 2.9,-7.2 c -2,0.5 -3.9,1.099 -5.4,1.7 1.2,0.6 2.4,1.2 3.6,1.7 C 1.7,-4 2.2,-4.2 2.8,-4.3 2.9,-5.2 3,-6.2 2.9,-7.2 m -9.3,-7.6 c -6,0 -7.4,3.4 -6.9,5.5 2.5,-0.5 5.1,0.9 5.8,1.1 0.7,-0.901 0.4,-2.1 -0.3,-2.2 -0.3,-0.1 -0.4,0.1 -0.4,0.299 0,0 -0.1,0.401 -0.4,0.201 -0.3,-0.201 0,-0.701 0.6,-0.701 1.3,0 1.6,1.701 1,2.701 l 3.1,1.5 c 2.6,-1.1 5.2,-2 6.6,-2.201 C 2.6,-8.5 0.9,-14.8 -6.4,-14.8 m -1.3,7 c -0.5,-0.301 -2.9,-1.6 -5.5,-1.1 0.4,1.7 3.5,3 5.5,1.1 m -8.8,0.5 c 3.8,1 7.1,2.699 7.9,3.1 L -4.3,-6 c 0,0 -2.1,-1 -2.9,-1.4 -1.7,2.1 -5.5,1.7 -6.4,-1.3 -1.6,0.2 -2.7,1.2 -2.9,1.4 m -1.3,3.3 c 2.2,0.1 4.8,1.3 5.1,1.3 0.4,-0.2 2.9,-1.2 3.8,-1.6 -0.5,-0.301 -4.9,-2.301 -7.8,-2.9 -0.8,1 -1.1,2 -1.1,3.2 m -8.4,0.399 c 0,2.601 3.1,3.301 3.9,3.401 -0.3,-2.901 2.2,-3.901 4.3,-3.8 0,-0.4 -0.1,-1.8 1,-3.2 -5.9,-1.401 -9.2,0.3 -9.2,3.599 M -22,-0.2 c 1.4,0.099 4.4,-0.6 5,-0.8 -0.5,-0.8 -0.8,-1.7 -1,-2.601 -1.7,-0.399 -4.4,0.5 -4,3.401 m 8.5,2.5 c -1.2,-0.7 -2.2,-1.5 -2.9,-2.3 -1.1,0.3 -3.3,0.8 -5.4,0.6 2,3.5 7.1,2.1 8.3,1.7 m 0.4,-4.7 c -0.3,-0.1 -2.5,-1 -4.6,-1.201 0.1,1 0.5,1.801 1,2.5 1,-0.399 2.2,-0.799 3.6,-1.299 m 5.4,2.299 C -9,-0.7 -10.4,-1.4 -11.4,-1.8 c -1.5,0.6 -3.2,1.3 -4.6,1.699 0.3,0.301 1.2,1.401 3.1,2.201 2.7,-1 4.6,-1.9 5.2,-2.201 M -3.5,-2 c 0,0 3.3,-1.5 4.1,-1.7 -1.1,-0.5 -2.4,-1.1 -3.6,-1.7 -2,0.799 -3.4,1.5 -4.1,1.799 1.3,0.5 2.5,1.101 3.6,1.601 m -3.8,-1.4 c -0.6,0.299 -2.1,1 -3.7,1.6 1,0.4 2.4,1.1 3.6,1.699 C -6.4,-0.5 -5.1,-1.2 -3.8,-1.7 -5,-2.4 -6.2,-2.9 -7.3,-3.4 M -3,2.2 C -3.6,1.899 -4.8,1.3 -6.4,0.6 c -0.8,0.299 -3.4,1.5 -5,2 C -7,3.899 -4,2.7 -3,2.2 m 31,23.6 c -2,-0.6 -4.3,-1.7 -8.8,0 -7.3,2.9 -11.7,0.3 -11.6,-2.5 1.3,1.1 2.6,2.4 6.7,0.3 4.5,-2.2 7.3,-1.3 9.7,-0.1 0,0 0.1,-0.1 -0.5,-0.5 -0.6,-0.4 -2.8,-1.8 -2.8,-4.8 V 2 c 0,-2.3 -0.6,-3.2 -1.7,-3.2 -3.2,0 -4.2,6.9 -9.9,6.9 C 5.2,5.7 0.8,3.899 -1.9,2.899 -3.6,3.7 -5.3,4 -7.5,4 c -1.8,0.1 -3.4,-0.3 -4.8,-1 -1.5,0.399 -7.5,2.2 -9.8,-2.4 -3.6,-0.701 -4.5,-2.9 -4.5,-4.1 0,-4.4 5,-5.101 9.7,-3.9 1.3,-1.3 2.6,-1.6 3.2,-1.701 -0.5,-2 0.8,-5.899 7.1,-5.899 8.4,0 10,6.3 10,6.399 5.8,-1.099 8.7,1.601 8.7,3.801 0,2.199 -1.6,2.9 -2.9,3.199 C 9.3,-0.9 9.1,-0.3 8.7,0.3 8.3,0.899 7.3,1.5 5.5,1.5 4.4,1.5 2.8,1.2 1.2,0.6 c -0.8,0.799 -1.7,1.5 -2.8,2 2.5,1 5,2 7.6,2 5.6,0 5.3,-7.8 11.5,-7.8 4.5,0 7.2,4.099 7.2,7.8 v 13.7 c 0,3.6 0.6,4.8 1.8,5.9 0.3,0.3 1.1,1 1.8,1.3 0.2,0.1 0.4,0.2 0.3,0.3 0.1,0.3 -0.6,0 -0.6,0 m 23.7,-1.4 c -1,0 -1.8,-0.8 -1.8,-1.8 0,-1 0.8,-1.8 1.8,-1.8 1,0 1.8,0.8 1.8,1.8 0.1,1 -0.8,1.8 -1.8,1.8 M 48.8,7.6 v 0.6 c 1.5,0.199 1.5,1.6 1.5,2.5 v 6.199 c 0,1.601 -1.7,1.401 -1.7,1.401 v 0.6 c 0,0 2.5,0.1 5,1 l 0.3,-0.5 c 0,0 -0.1,-1.4 -0.1,-2.001 V 10.7 c 0,-1.301 -0.1,-2.1 1.3,-2.5 V 7.6 Z M 41,7.6 C 38.2,7.6 36,7 36,7 v 1.5 c -3.5,-2.3 -7.9,-2 -7.9,1.899 V 16.8 c 0,1.6 -1.7,1.4 -1.7,1.4 v 0.6 c 0,0 2.5,0 5,0.8 l 0.3,-0.5 c 0,0 -0.1,-1.4 -0.1,-2 v -6.701 c 0,-1.599 2,-2.199 4.2,-1 V 17 c 0,1.6 -1.4,1.4 -1.4,1.4 V 19 c 0,0 2.2,-0.1 4.7,0.9 l 0.3,-0.5 c 0,0 -0.1,-1.4 -0.1,-2.001 V 10.3 C 39.3,9 39.8,8.2 41,8.2 Z M 17,8.3 V 7.7 h -6.4 v 0.6 c 1.5,0.4 1.3,1.099 1.3,2.5 v 6 c 0,2.3 -2.8,1.9 -4.3,0.7 V 10.8 C 7.6,9.5 7.5,8.7 8.9,8.3 V 7.7 H 2.6 v 0.6 c 1.5,0.2 1.5,1.5 1.5,2.5 v 5.9 c 0,1.6 -1.7,1.6 -1.7,1.6 v 0.6 c 0,0 2.5,0.3 4.9,1.1 l 0.3,-0.5 c 0,0 -0.1,-0.3 -0.1,-0.8 3.7,2.3 7.8,1.9 7.8,-1.301 V 10.8 C 15.5,9.8 15.6,8.5 17,8.3 M 41.7,7.6 v 0.6 c 1.5,0.199 1.5,1.5 1.5,2.5 v 12.2 c 0,1.6 -1.7,1.4 -1.7,1.4 v 0.6 c 0,0 2.5,0.2 5,1 l 0.3,-0.5 c 0,0 -0.1,-1.4 -0.1,-2 V 10.7 C 46.7,9.399 46.6,8.6 48,8.2 V 7.6 Z M 61.3,19 C 59.5,18.7 58.8,16.3 59.1,13.399 59.4,10.5 60.7,8.2 62.5,8.5 c 1.9,0.3 2.5,2.7 2.2,5.6 -0.4,2.9 -1.5,5.1 -3.4,4.9 m 7.1,-5.5 C 68.4,10 65.5,7.3 62,7.3 c -3.9,0 -6.4,2.7 -6.4,6.2 0,3.5 2.5,6.6 6.4,6.6 3.8,0.1 6.4,-2.9 6.4,-6.6 M -5.1,19 C -6.9,18.7 -7.6,16.3 -7.3,13.399 -7,10.5 -5.7,8.2 -3.9,8.5 c 1.9,0.3 2.5,2.7 2.2,5.6 -0.4,2.9 -1.6,5.1 -3.4,4.9 m 7,-5.5 C 1.9,10 -1,7.3 -4.5,7.3 c -3.9,0 -6.4,2.7 -6.4,6.2 0,3.5 2.5,6.6 6.4,6.6 3.9,0.1 6.4,-2.9 6.4,-6.6 M -23.6,9.3 c -1.1,0.599 -2.2,1 -3.1,1.3 0.6,0.299 2.9,1.9 2.9,4.7 v 8.8 c 3.7,-0.6 8.1,-3.6 8.1,-10.6 0.1,-2.4 -0.6,-8.2 -7.9,-4.2 M -24,27.8 c -11.1,0 -12.5,-9.5 -7.2,-11.1 -2.7,2.4 -1.1,7.5 6,7.5 0.4,0 1,-0.1 1.4,-0.1 -0.4,-0.3 -2,-1.5 -2.4,-1.7 -0.5,-0.4 -1.3,-1.3 -1.3,-2.7 v -7.301 c 0,-0.899 -0.2,-1.299 -0.3,-1.5 -3.4,0.5 -5.3,-1.199 -5.7,-4 1.5,2 2.5,2.401 6.4,0.401 6.3,-3.3 14.8,-1.6 14.8,9.5 -0.1,5.7 -5,11 -11.7,11"></path> </g> <g transform="translate(78.7002,87.2002)" id="g40"> <path id="path42" style="fill:#000000;fill-opacity:1;fill-rule:nonzero;stroke:none" d="m 0,0 c 0,0 0.1,-0.2 0,0 0.1,-0.1 0,0 0,0 m -0.2,0.2 c 0,-0.1 0,-0.1 0,0 0,-0.1 0,0 0,0 m -4.5,1 C -4.8,1.3 -5,1.3 -5,1.5 c -0.101,0 -0.101,0.1 -0.2,0.1 h -0.1 c 0.1,0 0.1,-0.1 0.1,-0.1 V 1.4 h -0.1 c 0.1,0.1 0,0.1 0,0.1 -0.1,0 -0.1,0 -0.1,0.1 0,-0.1 0.1,-0.1 0,-0.1 -0.1,0 -0.3,0 -0.3,0.1 0.099,0.1 0.099,-0.1 0.3,0 0,0.1 -0.1,0.1 -0.1,0.1 C -5.7,1.6 -5.8,2 -6,1.9 -5.9,1.8 -5.7,1.7 -5.601,1.5 -5.3,1.4 -5.2,1.1 -5,0.9 c 0,0.1 0.1,0 0.1,0.1 0,0.1 -0.1,0.1 -0.1,0.1 0.1,-0.1 0.2,0.1 0.3,0.1 -0.1,0 0,0 0,0 m 7,-0.7 C 2.2,0.4 2.2,0.2 2.1,0.1 2.1,0 2.2,0 2.2,-0.1 2.1,-0.1 2.1,0 2.1,0 2,-0.1 2,-0.1 2,-0.3 c -0.2,0 -0.101,-0.2 -0.101,-0.3 0,0 -0.099,0 -0.099,0.1 -0.1,0 -0.1,-0.1 0,-0.1 -0.2,-0.3 -0.2,-0.7 -0.5,-0.8 0,0.1 0.099,0.1 0.099,0.1 C 1.3,-1.3 1.3,-1.2 1.3,-1.1 1.2,-1.1 1.2,-0.9 1.1,-0.8 1,-0.9 0.899,-0.7 0.8,-0.7 c 0,0.1 -0.1,0.2 -0.1,0.3 -0.1,-0.1 0.1,-0.1 0,-0.2 -0.1,0.1 -0.1,0.2 -0.1,0.3 0,0.1 -0.1,0.1 -0.1,0.1 0,0 0.1,0 0.1,-0.1 0,0.1 -0.1,0.1 -0.1,0.1 -0.101,0 -0.101,-0.1 -0.101,0 0,-0.1 0.101,-0.2 0,-0.3 C 0.3,-0.4 0.3,-0.4 0.2,-0.2 h 0.1 v 0.1 C 0.2,0.1 0.2,0.2 0.2,0.3 0.1,0.2 0.2,0.1 0.1,0 0,0.1 -0.101,0.1 0,0.3 0,0.4 -0.101,0.3 -0.101,0.3 -0.2,0.3 -0.2,0.4 -0.2,0.4 -0.101,0.4 -0.101,0.5 0,0.5 0,0.6 -0.101,0.6 0.1,0.6 0.1,0.7 0,0.6 0,0.7 L -0.101,0.8 H 0 C 0,0.9 -0.101,1 -0.2,1.1 -0.101,0.9 -0.2,0.8 -0.101,0.7 -0.4,0.6 -0.2,1 -0.2,1 c 0,0.2 0.099,0.3 0,0.4 -0.101,0 0,-0.1 0,-0.1 -0.101,0.1 -0.101,0.2 -0.2,0.3 0,0.1 0.1,-0.1 0.1,0 0,0.1 -0.1,0.1 -0.1,0.1 -0.1,-0.1 -0.1,-0.1 -0.1,-0.3 0,-0.1 0.1,0 0.1,-0.1 h 0.1 c 0,-0.1 0.1,-0.1 0.1,-0.1 -0.1,0 -0.1,-0.1 -0.2,0 C -0.5,1.1 -0.4,1 -0.3,1 -0.4,0.9 -0.3,0.6 -0.2,0.5 V 0.4 c -0.1,0 -0.1,0.1 -0.1,0 0.1,0 0,-0.3 0.1,-0.3 0,-0.1 -0.1,0 -0.1,0 0,-0.1 0.1,-0.4 0.1,-0.6 -0.1,-0.2 0,-0.3 0,-0.4 0,-0.1 0.099,-0.1 0.099,-0.1 -0.099,0 0,-0.1 -0.099,-0.1 -0.2,0.1 -0.3,0.4 -0.5,0.4 0,0.1 -0.1,0.1 0,0.1 -0.1,0.1 -0.1,0.1 -0.2,0.1 l 0.1,0.1 c 0,0.1 -0.1,-0.1 -0.1,0 -0.3,0.4 -0.4,0.8 -0.8,1 0,0.1 0.099,0.1 0.099,0.1 L -1.7,0.7 C -1.8,1 -2,1 -2.101,1.2 L -2.2,1.1 c -0.1,0.1 -0.2,0.3 -0.3,0.4 -0.101,-0.1 0.1,-0.1 0.1,-0.3 -0.1,0 -0.1,0.3 -0.3,0.3 0.099,-0.2 0.2,-0.4 0.3,-0.6 0,0 -0.1,0 -0.1,-0.1 0.1,-0.2 0.2,-0.3 0.3,-0.5 0.2,-0.1 0.2,-0.5 0.4,-0.6 -0.1,0 -0.1,0.2 -0.301,0.1 0,0.1 0,0.1 -0.099,0.1 -0.2,0 -0.2,0.1 -0.3,0.2 0,0 0,-0.1 -0.101,-0.1 C -2.7,0.1 -2.7,0.1 -2.9,0.1 c 0,0.1 0.1,0 0.1,0 0,0.1 -0.1,0.1 -0.1,0.1 0,-0.1 -0.1,0 -0.3,0 0,0.1 -0.2,0.2 -0.3,0.2 -0.101,0.1 -0.2,0.1 -0.301,0.2 V 0.7 C -3.9,0.8 -4,0.8 -4.101,0.8 V 0.9 C -4.2,1 -4.4,1 -4.4,1.1 h 0.099 C -4.4,1.2 -4.4,1.1 -4.601,1.1 -4.7,1.2 -4.7,1.2 -4.7,1.3 -4.801,1.3 -4.801,1.2 -4.801,1.2 -4.9,1.2 -4.9,1.2 -4.9,1.1 -5,1.1 -5,1.2 -4.9,1.2 -5,1.2 -4.9,1.1 -5,1.1 V 1 c -0.101,0.1 0,0.2 -0.101,0.2 -0.099,-0.1 0,-0.1 0,-0.1 L -5.2,1.1 C -5.301,1.1 -5.2,1 -5.301,1 -5.2,1 -5.2,1 -5.2,0.9 -5.2,1 -5,1 -5.101,1 -5.101,1.1 -5,1 -5,1 -5,0.9 -5.101,1 -5.101,1 -5,0.9 -5,0.7 -4.9,0.7 -5,0.5 -4.801,0.4 -4.7,0.3 H -4.801 C -4.7,0.2 -4.601,0.2 -4.5,0 -4.2,-0.1 -4.2,-0.4 -4,-0.5 v -0.1 c 0.1,-0.1 0.1,-0.1 0.199,-0.1 -0.099,-0.1 0.101,-0.2 0.301,-0.2 0,-0.2 0.199,-0.1 0.3,-0.3 0,-0.1 0.099,-0.1 0,-0.1 0.099,-0.1 0.3,-0.2 0.3,-0.3 -0.401,0.3 -0.8,0.4 -1.1,0.7 0,0.1 0,0.2 -0.101,0.2 -0.099,0 0.101,-0.1 0,-0.1 -0.099,0 -0.099,0.1 -0.099,0.1 -0.3,0 -0.2,0.3 -0.401,0.2 0,0.1 -0.099,0.1 -0.099,0.1 v 0.1 c -0.101,0 -0.101,0.1 -0.101,0.1 -0.099,0 -0.3,0.1 -0.3,0.1 -0.099,0 -0.099,-0.1 -0.2,-0.1 0,0.1 0,0.1 0.101,0.2 C -5.301,0 -5.301,-0.1 -5.301,-0.1 -5.4,-0.1 -5.4,0 -5.4,0 c -0.1,0 -0.1,-0.1 -0.1,-0.1 -0.101,0 -0.101,0.3 -0.301,0.3 0.101,0.1 -0.3,0.3 -0.399,0.2 0.099,0.1 -0.101,0.1 -0.101,0.1 -0.099,0 0,-0.1 -0.099,-0.1 -0.1,0 0,0.3 -0.1,0.2 -0.101,0 0,-0.1 0,-0.2 C -6.601,0.3 -6.601,0.5 -6.601,0.5 -6.7,0.5 -6.7,0.4 -6.7,0.4 c -0.101,0.1 -0.101,0.1 -0.2,0.1 0,0.1 0,0.1 -0.1,0.1 l 0.1,0.1 C -6.9,0.8 -7,0.8 -7,0.8 -7.101,0.7 -6.9,0.7 -7,0.6 L -7.101,0.7 C -7.2,0.6 -7.4,0.5 -7.5,0.6 c 0,0.1 0.1,0.1 0.1,0.1 0,0.1 -0.1,0.1 -0.1,0.1 C -7.601,0.8 -7.8,0.9 -7.8,1 -7.9,0.9 -8,0.9 -8.101,0.8 -8.101,0.9 -8.2,0.8 -8.3,0.9 -8.3,1 -8.2,1 -8.101,1 L -8,1.1 C -7.9,1.1 -8,1 -7.9,1 -7.8,1 -7.8,1.1 -7.8,1.1 -7.9,1.2 -8,1.2 -8,1.2 L -8.101,1.1 c -0.099,0 -0.099,0.1 0,0.1 C -8.2,1.1 -8.3,1.1 -8.4,1.2 c -0.1,0 0.1,-0.1 0,-0.1 h -0.1 c 0,0.1 0,0.2 0.1,0.2 0,0.1 -0.1,0.1 -0.1,0.1 -0.101,0 0,-0.1 -0.101,-0.1 0,0.1 -0.099,0.1 -0.099,0.2 -0.1,-0.1 -0.2,0 -0.2,-0.1 -0.1,0.1 -0.3,0.2 -0.4,0.3 -0.1,0 0,0 0,-0.1 C -9.4,1.7 -9.4,1.7 -9.601,1.7 -9.7,1.6 -9.8,1.8 -9.9,1.7 V 1.8 H -10 c 0.1,0.1 -0.101,0.1 -0.101,0.1 C -10.2,1.8 -10.4,2 -10.4,2 c -0.3,0.2 -0.8,0.3 -1.1,0.4 -0.101,0.1 -0.3,0.1 -0.3,0.1 h 0.1 c 0,-0.1 0,0 -0.1,0 0.1,-0.1 0.3,-0.1 0.3,-0.3 0.1,0 0,0.1 0.1,0.1 0,-0.1 0.1,-0.1 0.1,-0.1 v 0.1 c 0,0.1 0.1,-0.1 0.1,-0.1 0.099,-0.1 0.3,-0.1 0.3,-0.2 0.2,0 0.299,-0.1 0.4,-0.2 h 0.5 c 0,-0.1 0.1,-0.1 0.2,-0.1 0,-0.1 0.1,-0.1 0.2,-0.1 0,-0.1 0.1,-0.1 0.1,-0.1 0,0 0,0.1 0.1,0.1 -0.1,-0.1 0.1,-0.1 0.2,-0.1 0.1,-0.1 0,-0.1 0.1,-0.1 0.3,0.1 0.3,-0.2 0.4,-0.3 0,0 0,-0.1 -0.1,-0.1 0.1,0 0.1,-0.1 0.2,0 0.1,-0.1 0.1,-0.2 0.3,-0.1 -0.1,-0.1 0,-0.1 0.1,-0.1 V 0.7 c 0.1,0 0.1,0 0.2,-0.1 -0.1,0.1 -0.1,0 -0.1,-0.1 0.1,0 0.1,0.1 0.1,0.1 0.1,-0.1 0.3,-0.2 0.5,-0.3 V 0.2 C -7.3,0.1 -7.101,0 -7,-0.2 h 0.1 c 0.1,-0.1 0.1,-0.3 0.299,-0.3 v -0.1 c 0.101,0.1 0.101,-0.1 0.201,-0.2 0.1,-0.1 0.2,-0.1 0.299,-0.1 V -1 H -6 l 0.1,-0.1 c 0,-0.1 0.1,-0.1 0.2,-0.3 0.3,-0.3 0.599,-0.5 0.9,-0.7 0,-0.2 0.199,-0.1 0.199,-0.3 0,-0.1 0.101,-0.1 0.101,-0.1 -0.101,-0.3 0.2,-0.1 0.3,-0.3 -0.2,0 -0.3,0.1 -0.3,0.1 0.1,0.1 -0.101,0.2 -0.2,0.1 0.099,0.1 -0.1,0.1 -0.1,0.3 -0.1,0 0,-0.1 0,-0.1 -0.1,-0.1 -0.1,0.2 -0.301,0.1 0,0.1 0.101,0.1 0.101,0.1 -0.101,0 -0.101,-0.1 -0.2,0 -0.1,0.1 -0.1,0.1 -0.3,0.1 0,0.1 -0.2,0.2 -0.3,0.3 0,0.1 0.1,0 0.1,0.1 -0.1,0 -0.2,0 -0.3,0.1 0,-0.1 -0.101,-0.1 -0.101,-0.1 v 0.1 c 0,0.1 0,0.1 0.101,0.1 l -0.101,0.1 C -6.2,-1.5 -6.3,-1.3 -6.4,-1.4 l -0.1,0.1 c 0.1,0.1 0.1,0.1 0.1,0 -0.1,0.2 -0.4,-0.1 -0.4,0.3 -0.1,0 0,-0.1 -0.1,-0.1 V -1 c -0.1,-0.1 -0.201,0.1 -0.3,0 0,0.1 -0.1,0.1 -0.1,0.1 -0.301,0.1 -0.4,0.3 -0.8,0.4 0,0.1 -0.1,0.1 -0.1,0.1 h -0.1 c 0,0.1 -0.3,0.1 -0.2,0.2 C -8.7,-0.3 -8.8,0 -9,-0.1 -9,0 -9.1,0 -9.1,0.1 -9.3,0 -9.3,0.2 -9.5,0.2 v 0.1 c -0.3,-0.1 -0.3,0.1 -0.4,0.1 0.1,-0.1 0.2,-0.2 0.3,-0.3 0,-0.2 0.1,-0.3 0.3,-0.4 v -0.1 c 0.1,0.1 0.2,-0.1 0.1,-0.3 0,-0.1 0.1,0 0.1,0.1 0.1,-0.1 0.2,-0.2 0.3,-0.4 -0.1,0.1 -0.3,0.2 -0.5,0.2 v 0.1 h -0.1 c -0.1,0.1 -0.3,0.1 -0.4,0.3 h -0.1 c 0.1,0.1 -0.3,0.1 -0.3,0.3 0,0 0,-0.1 -0.1,-0.1 0,0.1 -0.1,0.1 -0.1,0.1 -0.1,-0.1 -0.1,0.1 -0.3,0 V 0 h -0.1 c -0.1,0.1 -0.3,0.1 -0.3,0.3 -0.2,0 -0.2,0.1 -0.3,0 0,0.1 -0.2,0.2 -0.1,0.2 -0.1,0.1 -0.3,0.1 -0.4,0.2 V 0.6 c -0.2,0 -0.1,0.3 -0.3,0.3 V 1 h -0.1 c -0.3,0.1 -0.7,0.2 -1,0.3 -0.8,0.4 -1.8,0.6 -2.7,0.4 -0.3,0 -0.5,0 -0.8,-0.1 -0.5,-0.1 -1,-0.3 -1.5,-0.6 0.1,0.1 0.1,0.3 0.1,0.4 -0.1,0.3 0.2,0.6 0.3,0.9 V 2.4 H -18 c 0,0.1 0.1,0.1 0.1,0.1 H -18 c 0,0.1 0.1,0.1 0.1,0.1 0.1,0.1 0.2,0.3 0.3,0.3 h 0.1 c 0,0.1 -0.1,0 -0.1,0 0.1,0.1 0.1,0.1 0.2,0.2 0.2,0 0.4,0.1 0.6,0.1 0.1,0 0.3,0.1 0.5,0.1 l 0.1,0.1 h 0.1 c 0,0.1 0.1,0.1 0.1,0.1 0.1,0 0.1,-0.1 0.1,-0.1 0,-0.1 -0.1,0 -0.1,0 0,-0.1 -0.1,-0.1 -0.1,-0.1 l 0.2,-0.2 c 0,0.1 -0.1,0.1 -0.1,0.1 h 0.1 c 0,0.1 -0.1,0.1 0,0.1 0.1,0 0.3,-0.1 0.4,0 0,0.1 -0.1,0 -0.1,0.1 -0.1,0 -0.1,0 -0.2,0.1 -0.1,0 0,-0.1 -0.1,-0.1 0.1,0 0.1,0.1 0.1,0.1 0.3,0.1 0.3,-0.2 0.4,-0.1 0,0.1 -0.1,0 -0.1,0.1 h 0.1 c -0.1,0.1 -0.1,0.1 0,0 0.1,0 -0.1,0.1 0,0.1 h -0.1 l 0.1,0.1 c -0.1,0.1 -0.1,0.1 -0.2,0.1 0.2,0 0.3,-0.2 0.6,-0.3 0,0.1 -0.2,0 -0.1,0.1 0.1,0 0.2,0 0.1,0.1 0.1,0 0.3,-0.1 0.4,0 0,0.1 -0.1,0 -0.1,0.1 h 0.1 c 0,0.1 -0.1,0.1 -0.3,0.1 C -15,4 -14.7,4 -14.7,4 l -0.1,0.1 c 0,0.1 0.1,0 0.1,0 0,0.1 -0.1,0.1 -0.1,0.1 0,0.1 0.1,-0.1 0.1,-0.1 V 4 h 0.1 c 0.1,0 -0.1,0.1 0,0.1 0.1,0 0.1,0 0.2,-0.1 0.1,0.1 1.5,0.4 1.8,0.5 0.3,0.1 0.4,0.2 0.4,0.2 0.4,0.8 0.8,1.1 0.8,1.1 l -0.1,0.6 -0.1,0.5 c 0,0 -0.4,0.1 -0.6,0.3 -0.2,0.2 -0.4,1.1 -0.4,1.1 -0.6,1.3 -0.1,1.5 -0.1,1.5 -0.3,0.3 -1.1,0.5 -2.4,0.9 -1.3,0.4 -1.8,0.8 -2,1.1 -0.2,0.3 0.2,0.4 0.6,0.5 0.4,0 1.3,0.2 1.8,0.3 0.6,0.1 1.8,0.3 2.2,0.4 0.4,0.1 0.4,0.6 0.4,0.6 0.5,1.7 1.1,2.7 1.3,3 0.1,0.3 0.7,0.4 0.9,0.4 0.1,-0.1 1.1,-0.4 1.4,-0.4 0.3,-0.1 1.2,0.2 1.3,0.2 0.099,0 0.5,-0.1 0.8,-0.3 0.299,-0.1 0.9,-0.4 1.299,-0.8 0.401,-0.4 0.801,-1.5 0.901,-1.8 0.099,-0.4 0.2,-1.4 0.2,-1.5 0,-0.1 0.1,-0.2 0.2,-0.3 2,-0.4 4.5,-0.6 4.5,-1.3 C 0.7,9.2 -3.5,9.1 -4.101,9.1 -4.3,8.9 -4.5,6.4 -4.9,6 -4.8,5.9 -4.3,5.5 -4.101,4.9 1.8,3.5 1.899,2.8 3,0.3 2.6,0.4 2.399,0.3 2.3,0.5 m -7.1,-2.8 c 0,0 0.1,0.1 0,0 0,0.1 0,0.1 0,0 M 1,-1 C 1,-1.1 1,-1.1 1.1,-1.1 1.2,-1.1 1.2,-1 1,-1 m 0.899,0.1 C 1.899,-1 1.899,-1 2,-1 2,-1 2,-0.9 1.899,-0.9 M 0.5,-1 c 0,-0.1 0,-0.1 0,0 0.1,0 0,0 0,0 m 0.3,0.1 v 0 c 0.099,-0.1 0,-0.1 0,0 m 1.099,0.2 c 0,0 0,-0.1 0,0 0.101,0 0.101,0 0,0 m -1.599,0 c -0.1,-0.1 0,-0.1 0.099,-0.1 0,0 -0.099,0 -0.099,0.1 m 0.3,0 c 0,-0.1 -0.1,0 -0.1,-0.1 0,-0.1 0.1,0 0.1,0.1 m -0.4,0 c -0.1,-0.1 -0.1,-0.1 0,-0.1 0.1,0.1 0.1,0.1 0,0.1 M 2,-0.6 c 0.1,-0.1 0.1,-0.1 0.1,-0.2 h 0.1 c -0.1,0.1 -0.1,0.1 0,0.1 C 2.1,-0.6 2,-0.5 2,-0.6 m 0,0.2 c 0,-0.1 -0.101,0 -0.101,-0.1 V -0.6 C 2,-0.6 2,-0.5 2,-0.6 c 0.1,0.2 0.1,0.2 0,0.2 M 0.3,-0.6 c 0.099,0.1 0,0.2 -0.1,0.1 0,0 0,-0.1 0.1,-0.1 m -5.3,0 c 0,0 0.1,-0.1 0.1,0 -0.1,0 -0.1,0.1 -0.1,0 m 5.2,0.4 v 0 c -0.1,-0.1 -0.1,-0.1 0,-0.1 0,-0.1 -0.1,0.1 0,0.1 m -5.5,-0.3 v 0 c 0.1,0.1 0.1,0.1 0,0.1 v -0.1 m 5.199,0.3 c 0.101,0 0,-0.1 0.101,-0.1 0.1,0.1 0,0.2 -0.101,0.1 m -5.299,0 v 0 c 0.1,0 0.1,0 0,0 M 0.1,0 C 0.2,0.1 0.1,0.1 0,0.1 0,0.1 -0.101,0.1 -0.101,0 H 0.1 M -6,-0.1 v 0 c -0.101,0.1 -0.101,0 0,0 M -6.101,0 c -0.099,0 -0.099,0 0,0 -0.099,0 -0.099,0 0,0 0,-0.1 0,0 0,0 M -5.9,0 c 0,0 0.1,0 0,0 0,0.1 -0.1,0 0,0 m -0.5,0 v 0 c 0,0.1 0,0 0,0 m -0.3,0 v 0 m 6.5,0.3 c 0,-0.1 0,-0.1 0.099,-0.1 0,0.1 0,0.1 -0.099,0.1 m -4,-0.1 c 0.099,0 0.099,0 0.099,0.1 0,0.1 -0.099,0 -0.099,-0.1 m -2.7,0.1 c 0,0 0,-0.1 0,0 0,-0.1 0,-0.1 0,0 M -7,0.4 c 0,-0.1 0,-0.1 0,0 0,-0.1 0.1,0 0,0 m 6.7,0.3 v 0 c 0.1,-0.1 0.1,0 0,0 M -12,0.3 c 0,-0.1 0.1,-0.2 0.1,-0.2 0,0 -0.1,0.1 -0.1,0.2 m -0.4,-0.1 c 0,-0.1 0.1,-0.1 0.1,-0.2 0,0.1 0,0.2 -0.1,0.2 m 5.9,0.3 c -0.101,0 -0.101,0 0,0 -0.101,-0.1 0,-0.1 0,-0.1 -0.101,-0.1 -0.2,-0.1 -0.2,-0.2 0.099,0.1 0.3,0.2 0.2,0.3 M -7,0.6 c 0,-0.1 0,-0.1 0,0 0,-0.1 0.1,0.1 0,0 m -0.4,0.1 h -0.1 c 0,-0.2 0.1,-0.1 0.1,0 m 0.299,0 C -7.2,0.7 -7.2,0.7 -7.2,0.6 c 0.099,-0.1 0.099,0 0.099,0.1 m -0.5,0 v 0 M -12.7,0.5 c -0.1,-0.1 0.1,-0.2 0.3,-0.3 0.1,0.2 -0.2,0.3 -0.3,0.3 m 4.9,0.3 V 0.7 c 0.199,0 0.199,0.1 0,0.1 m -0.2,0 v 0 c 0.1,0 0.1,0 0,0 0.1,0 0.1,0 0,0 m -0.3,0 z M -7.9,1 v 0 c 0.1,0 0.1,0 0,0 m 0.1,-0.2 c 0.1,0 0.1,0.1 0.199,0.1 C -7.7,1 -7.7,1 -7.8,1 c 0,0 0.1,0 0,-0.2 0,0.1 0.1,0.1 0,0.1 V 0.8 M -8.3,1 Z M -5,1.2 c 0.1,0 0.1,0.1 0.1,0.1 0,-0.1 -0.1,0 -0.1,-0.1 m -4,0.3 v 0 c 0,-0.1 0,-0.1 0,0 m -0.2,0 v 0 c 0.1,0 0.1,0 0,0 M -9,1.6 v 0 c 0,-0.1 0,-0.1 0,0 m -0.1,0.1 v 0 c 0.1,0 0.1,0 0,0 m -0.1,0 z m -0.7,0 v 0 m 0.2,0 v 0 c 0,0.1 0,0.1 0,0 M -10,1.8 c 0.1,0 0.1,0.1 0,0 m -0.3,0.3 h -0.1 c 0,-0.1 0.2,0 0.1,0 m -0.2,0.1 c 0.1,0 0,-0.1 0,0 -0.1,-0.1 0,-0.1 0,0"></path> </g> <g transform="translate(43.1001,82.2002)" id="g44"> <path id="path46" style="fill:#000000;fill-opacity:1;fill-rule:nonzero;stroke:none" d="M 0,0 H -0.4 V 0.4 H 1 V 0 H 0.6 V -2.3 H 0.2 Z"></path> </g> <g transform="translate(45.8999,79.7998)" id="g48"> <path id="path50" style="fill:#000000;fill-opacity:1;fill-rule:nonzero;stroke:none" d="M 0,0 V 2.7 H 1.3 V 2.3 H 0.5 V 1.6 H 1.1 V 1.2 H 0.5 V 0.4 H 1.3 L 1.3,0 Z"></path> </g> <g transform="translate(49.8999,80.8999)" id="g52"> <path id="path54" style="fill:#000000;fill-opacity:1;fill-rule:nonzero;stroke:none" d="m 0,0 c 0.1,0 0.1,-0.1 0.2,-0.2 v 1.3 c 0,0.2 -0.1,0.3 -0.3,0.3 -0.2,0 -0.3,-0.1 -0.3,-0.3 v -1.4 c 0,-0.2 0.1,-0.3 0.3,-0.3 0.1,0 0.1,0 0.1,0.1 l -0.1,0.1 z m 0.9,-1.3 c -0.2,0 -0.3,0 -0.4,0.3 -0.1,-0.1 -0.3,-0.1 -0.4,-0.1 -0.5,0 -0.7,0.3 -0.7,0.7 V 1 c 0,0.4 0.3,0.7 0.7,0.7 0.4,0 0.7,-0.3 0.7,-0.7 v -1.4 c 0,-0.1 0,-0.3 -0.1,-0.4 0.1,-0.1 0.2,-0.1 0.2,-0.1 z"></path> </g> <g transform="translate(52.7002,82.6001)" id="g56"> <path id="path58" style="fill:#000000;fill-opacity:1;fill-rule:nonzero;stroke:none" d="m 0,0 h 0.4 v -2 c 0,-0.2 0.1,-0.3 0.3,-0.3 0.2,0 0.3,0.1 0.3,0.3 V 0 H 1.4 V -2 C 1.4,-2.4 1.1,-2.7 0.7,-2.7 0.3,-2.7 0,-2.4 0,-2 Z"></path> </g> <path id="path60" style="fill:#000000;fill-opacity:1;fill-rule:nonzero;stroke:none" d="m 56.3,82.5 h 0.4 v -2.7 h -0.4 z"></path> <g transform="translate(58.8999,79.7998)" id="g62"> <path id="path64" style="fill:#000000;fill-opacity:1;fill-rule:nonzero;stroke:none" d="M 0,0 V 2.7 H 0.4 V 0.4 H 1.2 L 1.2,0 Z"></path> </g> <g transform="translate(62.3999,80.8999)" id="g66"> <path id="path68" style="fill:#000000;fill-opacity:1;fill-rule:nonzero;stroke:none" d="M 0,0 H 0.4 L 0.2,1.1 Z M -0.1,-1.1 H -0.5 L 0,1.6 H 0.6 L 1.1,-1.1 H 0.7 L 0.6,-0.5 H 0.1 Z"></path> </g> <g transform="translate(68.2998,81.3999)" id="g70"> <path id="path72" style="fill:#000000;fill-opacity:1;fill-rule:nonzero;stroke:none" d="M 0,0 H 0.2 C 0.5,0 0.5,0.1 0.5,0.4 0.5,0.8 0.4,0.8 0.2,0.8 H 0 Z M 0,-1.6 H -0.4 V 1.1 H 0.2 C 0.7,1.1 1,0.9 1,0.3 1,-0.1 0.8,-0.3 0.7,-0.4 L 1.1,-1.6 H 0.7 L 0.4,-0.5 H 0.1 v -1.1 z"></path> </g> <g transform="translate(71.2998,79.7998)" id="g74"> <path id="path76" style="fill:#000000;fill-opacity:1;fill-rule:nonzero;stroke:none" d="M 0,0 V 2.7 H 1.3 V 2.3 H 0.5 V 1.6 H 1.101 V 1.2 H 0.5 V 0.4 H 1.3 V 0 Z"></path> </g> <g transform="translate(75.5,81.8999)" id="g78"> <path id="path80" style="fill:#000000;fill-opacity:1;fill-rule:nonzero;stroke:none" d="m 0,0 c 0,0.3 -0.1,0.3 -0.3,0.3 -0.1,0 -0.3,-0.1 -0.3,-0.3 0,-0.4 1,-0.7 1,-1.4 0,-0.4 -0.3,-0.7 -0.8,-0.7 -0.5,0 -0.7,0.3 -0.7,0.8 l 0.4,0.1 c 0,-0.3 0.1,-0.4 0.3,-0.4 0.2,0 0.3,0.1 0.3,0.3 0,0.5 -1,0.7 -1,1.5 0,0.4 0.3,0.7 0.7,0.7 0.4,0 0.6,-0.3 0.6,-0.6 z"></path> </g> <g transform="translate(77.9004,79.7998)" id="g82"> <path id="path84" style="fill:#000000;fill-opacity:1;fill-rule:nonzero;stroke:none" d="M 0,0 V 2.7 H 1.3 V 2.3 H 0.5 V 1.6 H 1.1 V 1.2 H 0.5 V 0.4 H 1.3 L 1.3,0 Z"></path> </g> <g transform="translate(81.7002,81.3999)" id="g86"> <path id="path88" style="fill:#000000;fill-opacity:1;fill-rule:nonzero;stroke:none" d="M 0,0 H 0.2 C 0.5,0 0.5,0.1 0.5,0.4 0.5,0.8 0.399,0.8 0.2,0.8 H 0 Z M 0,-1.6 H -0.4 V 1.1 H 0.2 C 0.7,1.1 1,0.9 1,0.3 1,-0.1 0.8,-0.3 0.7,-0.4 L 1.1,-1.6 H 0.7 L 0.399,-0.5 H 0.1 Z"></path> </g> <g transform="translate(85.7002,82.6001)" id="g90"> <path id="path92" style="fill:#000000;fill-opacity:1;fill-rule:nonzero;stroke:none" d="M 0,0 H 0.399 L -0.2,-2.7 H -0.601 L -1.2,0 h 0.4 l 0.3,-1.9 z"></path> </g> <g transform="translate(88.5,80.8999)" id="g94"> <path id="path96" style="fill:#000000;fill-opacity:1;fill-rule:nonzero;stroke:none" d="M 0,0 H 0.4 L 0.2,1.1 Z m -0.2,-1.1 h -0.4 l 0.5,2.7 H 0.5 L 1,-1.1 H 0.6 L 0.5,-0.5 H 0 Z"></path> </g> <g transform="translate(94.2998,80.2002)" id="g98"> <path id="path100" style="fill:#000000;fill-opacity:1;fill-rule:nonzero;stroke:none" d="M 0,0 H 0.2 C 0.5,0 0.5,0.1 0.5,0.4 V 1.6 C 0.5,1.9 0.4,2 0.2,2 H 0 Z M -0.399,2.4 H 0.3 C 0.8,2.4 1.101,2.1 1.101,1.6 V 0.5 C 1.101,-0.1 0.8,-0.3 0.3,-0.3 h -0.699 z"></path> </g> <g transform="translate(97.4004,79.7998)" id="g102"> <path id="path104" style="fill:#000000;fill-opacity:1;fill-rule:nonzero;stroke:none" d="M 0,0 V 2.7 H 1.3 V 2.3 H 0.5 V 1.6 H 1.1 V 1.2 H 0.5 V 0.4 H 1.3 L 1.3,0 Z"></path> </g> </g> </g> </g> </svg> 