<?xml version="1.0" encoding="UTF-8" standalone="no"?> <svg xmlns:dc="http://purl.org/dc/elements/1.1/" xmlns:cc="http://creativecommons.org/ns#" xmlns:rdf="http://www.w3.org/1999/02/22-rdf-syntax-ns#" xmlns:svg="http://www.w3.org/2000/svg" xmlns="http://www.w3.org/2000/svg" viewBox="0 0 186.66667 186.66667" height="186.66667" width="186.66667" xml:space="preserve" id="svg2"> <metadata id="metadata8"></metadata> <defs id="defs6"> <clipPath id="clipPath18" clipPathUnits="userSpaceOnUse"> <path id="path16" d="M 0,140 H 140 V 0 H 0 Z"></path> </clipPath> </defs> <g transform="matrix(1.3333333,0,0,-1.3333333,0,186.66667)" id="g10"> <g id="g12"> <g clip-path="url(#clipPath18)" id="g14"> <g transform="translate(61.7998,72.7002)" id="g20"> <path id="path22" style="fill:#000000;fill-opacity:1;fill-rule:nonzero;stroke:none" d="M 0,0 C 1.5,1.8 2.2,3.5 1.9,4.1 1.8,4.3 1.6,4.4 1.3,4.4 0.4,4.4 -0.5,3.4 -1.1,2.6 L -5.2,-2.6 C -6.1,-3.7 -6,-4.2 -6,-4.3 c 0.1,-0.1 0.2,-0.1 0.3,-0.1 1.3,-0.1 4,2.2 5.7,4.4 m 20.7,-1.5 c 0.901,0.4 2,1 3,1.8 1.5,1.3 2.6,3 2.6,3.6 0,0.2 -0.1,0.4 -0.3,0.4 -0.2,0 -0.8,-0.1 -2,-1.6 l -2.5,-3.2 c -0.3,-0.3 -0.5,-0.6 -0.8,-1 m 6.1,-3.4 C 26.8,-5 26.7,-5 26.7,-5 H 24 c -0.1,0 -0.1,0 -0.1,0.1 v 0.1 l 3,4 c -2,-2.1 -4.799,-4.6 -7.2,-4.6 -0.7,0 -1.3,0.299 -1.599,0.9 -0.401,0.8 -0.401,2 0,3.2 C 15.2,-5 13.7,-5.5 12.7,-5.5 c -0.599,0 -1.099,0.3 -1.3,0.8 C 11,-4 11.101,-3 11.5,-2 9.5,-4.4 8.1,-5.4 6.8,-5.4 6.2,-5.4 5.7,-5.101 5.5,-4.601 5.2,-3.9 5.2,-2.9 5.7,-1.8 1.4,-7.7 -1.1,-9.7 -5.1,-10.601 -5.5,-10.7 -5.9,-10.8 -6.3,-10.9 -6.9,-11 -7.5,-11.101 -8,-11.3 h -0.1 c -0.1,0 -0.1,0 -0.1,0.1 -0.1,0.099 0,0.099 0,0.099 0.8,0.901 2.9,3.601 6.3,8.001 l 0.1,0.1 c -1.5,-1.5 -2.8,-2.2 -3.8,-2.2 -0.6,0 -1.1,0.3 -1.5,1 -0.4,1 -0.4,3 1.5,5.3 1.6,2 4.9,3.8 7.1,3.8 C 2.1,4.9 2.4,4.7 2.6,4.4 2.9,4 2.7,3.3 2.5,2.7 L 3.9,4.6 C 3.9,4.7 4,4.7 4,4.7 h 2.8 c 0.1,0 0.1,0 0.1,-0.1 L 6.9,4.5 -3.3,-8.8 c -0.3,-0.4 -0.6,-0.6 -0.8,-0.801 0.8,0.301 2.4,1 4.1,2.401 1.8,1.5 4,3.9 6.2,6.7 l 0.1,0.1 C 6.4,-0.2 6.6,0 6.7,0.2 l 3.6,4.5 0.1,0.1 h 2.8 c 0.1,0 0.1,0 0.1,-0.1 V 4.6 L 7.8,-2.3 c -0.9,-1.1 -1.1,-1.801 -1,-2 0,-0.1 0.1,-0.1 0.3,-0.1 1.1,0 3.6,2.4 6.9,6.3 l 2.2,2.9 c 0,0.1 0.1,0.1 0.1,0.1 h 2.801 C 19.2,4.9 19.2,4.9 19.2,4.8 V 4.7 l -5.599,-7.1 c -0.901,-1.1 -1,-1.8 -1,-2 0,0 0.099,-0.1 0.299,-0.1 0.9,0 3,1.3 6.1,5.2 v 0.1 c 0.101,0.1 0.101,0.2 0.2,0.3 l 0.1,0.1 c 0.1,0.1 0.2,0.3 0.301,0.3 1.699,1.9 4.799,3.8 6.199,3.8 0.801,0 1.4,-0.5 1.4,-1.3 0,-3.2 -6.2,-5.4 -6.7,-5.6 -0.6,-0.9 -1.1,-1.8 -1.1,-2.4 0,-0.2 0.1,-0.5 0.6,-0.5 3.2,0 9.2,7.1 9.3,7.2 0,0.1 0.1,0.1 0.1,0.1 L 31.101,5 c 0,0.1 0.099,0.1 0.099,0.1 h 2.6 c 0.1,0 0.1,0 0.1,-0.1 V 4.9 L 30.3,0.3 c 2.9,3.4 5,5.2 6,5.2 0.6,0 1,-0.3 1,-0.9 0,-1 -1.1,-2.5 -2.6,-2.5 -0.4,0 -0.599,0.2 -0.7,0.4 -0.1,0.3 0,0.7 0.101,1 -2,-2 -6.401,-6.9 -7.301,-8.4 m 14,4.7 C 42.101,1.4 43,3.5 42.7,4.1 42.601,4.2 42.601,4.3 42.4,4.3 41.8,4.3 40.8,3.6 39.9,2.5 39.601,2.2 39.4,1.9 39.101,1.5 37.4,-0.5 35,-3.7 35.3,-4.4 c 0,-0.1 0.1,-0.201 0.4,-0.201 1.6,0 3.7,2.701 5,4.301 z M 59.9,4.5 V 4.4 L 49.601,-8.7 C 49.2,-9.101 49,-9.5 48.8,-9.7 c 1,0.3 3.5,1 5.801,3 1.699,1.4 3.699,4.5 2.799,6.7 0,0.1 0,0.1 0.1,0.2 0.101,0.1 0.101,0 0.2,-0.1 1.5,-2.2 -0.599,-5.9 -3.5,-8 -2.2,-1.5 -5,-2.3 -6.9,-2.8 -0.9,-0.3 -1.6,-0.401 -2,-0.6 h -0.1 -0.099 l -0.201,0.1 -0.1,0.099 c 0,0.101 0,0.101 0.1,0.101 1.3,1.3 3.201,3.8 5,6.2 l 2,2.5 c -1.7,-1.7 -3.4,-3 -4.4,-3 -0.6,0 -1.1,0.3 -1.399,0.9 -0.401,0.8 -0.301,1.8 0.199,2.9 -1.699,-2.4 -3.6,-3.8 -5.1,-3.8 -0.599,0 -1,0.3 -1.2,0.699 -0.3,0.601 -0.3,1.701 0.2,2.801 -1.5,-1.8 -2.9,-3.5 -4.5,-3.5 -0.7,0 -1.3,0.4 -1.599,1 -0.5,1 -0.401,3 1.399,5.2 1.7,2.1 4.8,3.9 6.9,3.9 0.4,0 0.701,-0.2 0.8,-0.4 0.3,-0.5 0.1,-1.3 -0.3,-2.2 l 1.701,2.2 c 0,0.1 0.099,0.1 0.099,0.1 h 2.8 c 0.101,0 0.101,0 0.101,-0.1 V 4.3 L 41.9,-2.9 c -0.799,-1 -1,-1.6 -0.799,-1.8 0,0 0.099,-0.101 0.299,-0.101 1.3,0 3.201,1.701 5.5,4.501 0.1,0.1 0.1,0.1 0.201,0 V -0.4 L 47.2,-0.3 51,4.4 51.101,4.5 H 54 c 0.101,0 0.101,0 0.101,-0.1 V 4.3 L 48.2,-2.9 c -0.599,-0.8 -0.8,-1.3 -0.599,-1.701 0.099,-0.099 0.099,-0.2 0.299,-0.2 1.1,0 5.3,4.001 7.3,6.501 l 2,2.7 0.1,0.1 H 60 Z m -85.2,-4.6 c 1.3,1.7 2.2,3.5 1.9,4.1 -0.1,0.1 -0.1,0.2 -0.4,0.2 -0.8,0 -1.8,-1.1 -2.4,-1.8 -1.1,-1.3 -2.2,-2.7 -3.2,-4.1 -1,-1.4 -1.5,-2.5 -1.3,-2.901 0,-0.099 0.1,-0.099 0.3,-0.099 1.4,0.099 3.7,2.8 5.1,4.6 m 18.7,0 c -0.8,-1.3 -3.1,-5.2 -5.9,-5.2 -1.1,0 -1.6,1.1 -1.6,2.1 0,1.7 1.9,3.6 3.4,5.1 0.9,0.9 1.7,1.7 1.7,2.2 0,0.1 -0.1,0.3 -0.3,0.3 -1.6,0 -8.5,-7.4 -9.6,-9.001 C -18.9,-4.7 -19,-4.7 -19,-4.7 h -2.6 c -0.1,0 -0.1,0 -0.1,0.099 V -4.5 l 1.8,2.4 c -2.9,-3.1 -4.5,-3.1 -5.1,-3.1 -0.9,0 -1.3,0.4 -1.5,0.8 -0.3,0.6 -0.3,1.5 0.1,2.4 -1.3,-1.7 -2.7,-3.2 -4.2,-3.2 -0.7,0 -1.3,0.4 -1.6,1 -0.5,1 -0.4,3.1 1.3,5.3 1.7,2.2 5,3.8 6.8,3.8 0.5,0 0.9,-0.2 1,-0.4 0.2,-0.4 0.1,-0.8 0,-1.4 l 1.2,1.7 c 0,0.1 0.1,0.1 0.1,0.1 h 2.8 c 0.1,0 0.1,0 0.1,-0.1 V 4.7 l -5.3,-7.1 c -0.8,-1 -1,-1.701 -0.8,-2 0.1,-0.1 0.2,-0.201 0.4,-0.201 0.8,0 2.9,0.701 6.7,5.301 0.1,0.1 0.1,0.1 0.2,0 l 3.1,4.1 c 0,0.1 0.1,0.1 0.1,0.1 h 2.7 c 0.1,0 0.1,0 0.1,-0.1 V 4.7 c 0,0 -1,-1.1 -3.4,-4.3 l -0.1,-0.2 c 2.4,2.6 4.8,4.9 6.1,4.9 1.1,0 1.5,-1 1.5,-1.8 0,-1.9 -2,-4 -3.4,-5.5 -0.8,-0.8 -1.6,-1.7 -1.6,-2 0,-0.1 0.1,-0.3 0.4,-0.3 2,0 4.6,3.5 5.4,4.8 0.1,0.1 0.1,0.1 0.2,0.1 0.1,-0.1 0.1,-0.1 0.1,-0.2 z m -34.5,-6.8 c 0.8,0 1.5,-0.1 2.1,-0.3 0.4,-0.1 0.8,-0.2 1.2,-0.2 0.5,0 0.9,0.1 1.2,0.6 0.1,0.1 0,0.1 0,0.1 l -0.1,0.099 c -0.4,-0.099 -1,-0.099 -1.7,0 -0.6,0.101 -1.2,0.201 -1.9,0.201 h -0.1 c 1.1,0.4 2.4,1.1 3.6,2.7 l 7,9.6 c 1.5,2.1 3.2,3.5 4.5,3.8 h 0.1 c 4.8,0 9.2,1.1 9.6,2.5 v 0.1 c 0,0.1 -0.1,0.1 -0.1,0.1 H -16 c -0.1,0 -0.1,-0.1 -0.1,-0.1 0,0 -0.3,-0.6 -2.5,-0.6 h -0.1 c -2.1,0 -4.1,0.3 -6.2,0.6 -2.2,0.3 -4.3,0.7 -6.7,0.7 -4.9,0 -10.3,-3.1 -10.4,-7.4 0,-0.3 0.1,-0.5 0.2,-0.6 0.1,-0.1 0.3,-0.1 0.4,-0.1 l 0.8,0.1 c 0.1,0 0.1,0.1 0.1,0.1 0,0.1 0,0.1 -0.1,0.1 0,0 -0.4,0.2 -0.4,1.4 0,1.5 1.8,4.5 5,4.5 2.1,0 3.8,-0.3 5.4,-0.6 1.1,-0.2 2.3,-0.4 3.6,-0.5 -2.7,-0.6 -5.7,-2.8 -7.6,-5.4 -0.3,-0.4 -6.4,-8.8 -7.1,-9.701 -0.6,-1 -1.5,-1.599 -1.5,-1.599 -0.1,-0.1 -0.1,-0.1 -0.1,-0.2 0,-0.1 0.1,-0.1 0.1,-0.1 0.6,0 1.4,0.1 2.1,0.1 m 76,-15.201 v 0 l -6.1,7.801 h -1.5 v -10.2 h 1.5 v 7.8 l 6,-7.8 h 1.5 v 10.2 H 34.8 Z M 17.2,-20 h 3.5 v 1.5 h -3.5 v 2.7 h 6.901 v 1.5 H 15.8 v -10.2 h 8.6 v 1.5 h -7.1 v 3 z m -19.4,2.1 c 0,1.299 -1,2.4 -2.5,2.4 -1.5,0 -2.5,-1.101 -2.5,-2.4 0,-1.3 1,-2.4 2.5,-2.4 1.5,0 2.5,1.199 2.5,2.4 m 1.2,0 c 0,-2 -1.4,-3.8 -3.8,-3.8 -2.4,0 -3.8,1.8 -3.8,3.8 0,2 1.4,3.799 3.8,3.799 2.5,0 3.8,-1.799 3.8,-3.799 m 4,2.1 h 4.4 v -8.801 h 1.5 v 8.701 h 4.4 v 1.5 H 3 Z m -15,-6.301 v 0 l -6.1,7.801 h -1.5 v -10.2 h 1.5 v 7.8 l 6,-7.8 h 1.5 v 10.2 h -1.5 z m 7,-1.199 c -0.4,0 -0.7,-0.301 -0.7,-0.7 0,-0.4 0.3,-0.7 0.7,-0.7 0.4,0 0.7,0.3 0.7,0.7 0,0.399 -0.3,0.7 -0.7,0.7 m 44.101,3.199 H 59.8 v 1 H 39.101 Z m -82.401,0 h 20.7 v 1 H -43.3 Z M 59.8,18.3 H -43.3 v 1 H 59.9 v -1 z"></path> </g> </g> </g> </g> </svg> 