<?xml version="1.0" encoding="UTF-8" standalone="no"?> <svg xmlns:dc="http://purl.org/dc/elements/1.1/" xmlns:cc="http://creativecommons.org/ns#" xmlns:rdf="http://www.w3.org/1999/02/22-rdf-syntax-ns#" xmlns:svg="http://www.w3.org/2000/svg" xmlns="http://www.w3.org/2000/svg" viewBox="0 0 186.66667 186.66667" height="186.66667" width="186.66667" xml:space="preserve" id="svg2"> <metadata id="metadata8"></metadata> <defs id="defs6"> <clipPath id="clipPath18" clipPathUnits="userSpaceOnUse"> <path id="path16" d="M 0,140 H 140 V 0 H 0 Z"></path> </clipPath> </defs> <g transform="matrix(1.3333333,0,0,-1.3333333,0,186.66667)" id="g10"> <g id="g12"> <g clip-path="url(#clipPath18)" id="g14"> <g transform="translate(94.5,62.7002)" id="g20"> <path id="path22" style="fill:#000000;fill-opacity:1;fill-rule:nonzero;stroke:none" d="m 0,0 c -4.2,-0.9 -4.8,-7.601 -8,-7.601 -0.4,0 -1,0.301 -1,0.701 0,0.5 0.4,0.299 0.4,0.299 0,0 0,0.401 -0.5,0.401 -0.5,0 -0.8,-0.401 -0.7,-1 0.1,-0.6 0.8,-1.1 1.7,-1.1 5.3,0 6.3,6.9 8.7,8 C 0.7,-0.3 0.4,0.1 0,0 m -0.6,-3.5 c 3.3,0 1.9,-5.601 4.5,-4.5 0,0 -3,-2.101 -4.4,1.899 -1,2.801 -1.3,2.5 -1.3,2.5 V -3.5 c 2.2,0 3,1.7 3,2.6 0,1 -1,1.4 -2.2,1.4 -2.8,0 -5.2,-1.601 -5.2,-3.2 0,-1.7 1.8,-1 1.8,-1 0,0 -0.8,-1 -1.7,-1 -0.8,0 -1.4,0.599 -1.5,1.3 -0.3,1.4 2.7,4.299 7,4.299 1.2,0 3.3,-0.5 3.3,-2.099 0,-1.6 -2.5,-2.401 -3.2,-2.401"></path> </g> <g transform="translate(101.0996,56.7998)" id="g24"> <path id="path26" style="fill:#000000;fill-opacity:1;fill-rule:nonzero;stroke:none" d="m 0,0 z m 3.7,2.5 c -0.399,0 -2.5,-2.399 -3.399,-2.7 -0.101,0 -0.2,0 -0.2,0.1 0,0.1 0,0.1 0.099,0.201 L 0.301,0.3 C 1.301,1.5 2.101,2.8 3,4 2.9,4 2.9,4 2.7,3.9 2.7,3.9 2.601,3.8 2.5,3.8 2.2,3.7 1.9,3.8 1.5,3.7 1.101,3.601 0.5,2.9 0.101,2.2 -0.699,1.101 -2.1,-0.399 -2.5,-0.3 c -0.1,0.1 -0.1,0.1 -0.1,0.2 0,0.201 0.1,0.701 0.5,1.201 0,0 1.401,2 2.1,2.899 -0.1,0 -0.1,0 -0.3,-0.1 0,0 -0.099,-0.1 -0.2,-0.1 -0.3,-0.1 -0.6,0 -1,-0.1 C -1.899,3.601 -2.5,2.9 -2.899,2.2 -3.1,1.9 -3.5,1.3 -3.8,0.9 -3.8,0.8 -3.899,0.8 -3.899,0.8 -4,0.601 -4,0.5 -4,0.3 c 0,-0.6 0.601,-1.1 1.301,-1 0.8,0.1 1.699,1.1 1.699,1.1 -0.3,-0.799 0.5,-1 0.801,-1 C 1.2,-0.6 4,2.5 3.7,2.5"></path> </g> <g transform="translate(112.9004,59.2998)" id="g28"> <path id="path30" style="fill:#000000;fill-opacity:1;fill-rule:nonzero;stroke:none" d="m 0,0 c 0,0 -1.101,-2.7 -2.601,-2.7 -0.099,0 -0.2,0.1 -0.299,0.1 -0.201,0.8 1.799,2.201 1.7,3.201 C -1.301,1.2 -2,1.3 -2.4,1.3 -2.801,1.3 -3.301,1.2 -3.601,0.9 -3.9,1.3 -4.4,1.3 -4.7,1.3 -5.4,1.3 -6.301,0.7 -6.801,0 -6.5,0.5 -6.2,1 -5.9,1.3 -6,1.3 -6,1.3 -6.2,1.2 -6.2,1.2 -6.301,1.101 -6.4,1.101 -6.7,1 -7.101,1.101 -7.5,1 -7.801,0.9 -7.9,0.7 -8.2,0.4 c 0,0 -0.3,-0.4 -0.3,-0.6 -0.5,-1 -1,-2 -1.601,-2.9 H -8.2 c 0.2,0.4 0.8,1.5 1.3,2.4 0.599,0.801 1.2,1.5 1.7,1.5 0.099,0 0.099,0 0.2,-0.1 C -4.9,0.601 -5.101,0.4 -5.101,0.4 -5.2,0.2 -5.4,0 -5.5,-0.2 -6,-1.2 -6.601,-2.1 -7.2,-3.1 h 1.399 c 0.301,0.5 0.7,1.3 1.301,2.3 0,0 0.3,0.5 0.5,0.901 0.3,0.399 0.199,0.399 0.199,0.399 0.2,0.101 0.601,0.3 0.801,0.3 0.1,0 0.199,-0.1 0.199,-0.1 0.101,-0.599 -1.8,-2 -1.599,-3.2 0.099,-0.399 0.7,-0.8 1.2,-0.8 2,0 3.3,3.1 3.3,3.1 C 0.3,0 0.1,0 0,0"></path> </g> <g transform="translate(57.7002,65.0996)" id="g32"> <path id="path34" style="fill:#000000;fill-opacity:1;fill-rule:nonzero;stroke:none" d="m 0,0 c 0,0 1.9,-3.399 -8.4,-3.5 -9,-0.1 -13.1,3.601 -25.5,4.601 0,0 12.8,5.799 20.4,12.399 5.1,4.5 5.2,7.4 5,7.3 -5.3,-1.3 -6.9,-1.5 -15.7,-0.3 -4.1,0.5 -8.1,-0.3 -8.1,-3.1 0,-2.2 2.5,-2.5 2.5,-2.5 0,0 2.2,-0.4 2.9,1.6 0,0 -2.5,-1.5 -2.5,0.8 0,1.1 1.4,1.301 2.9,1.301 1.6,0 7,-1.101 11.6,-1.101 C -21.1,9.7 -29.3,6 -37.5,2.7 c -4.8,-2 -3.3,-5.899 -3.3,-5.899 0.1,0.099 1,1.899 3.6,2 9.7,0.099 15.8,-6 26.9,-5.901 C -0.2,-7.199 2.6,-2 0,0 m 31,2.4 c -1.101,0 -1.3,0.201 -1.3,0.6 0,2.5 7.6,8.8 10.199,8.8 C 40.3,11.8 40.7,11.601 40.7,11.101 40.7,7.5 32.7,2.4 31,2.4 M 13.399,2.301 c -0.299,0 -0.499,0.099 -0.499,0.3 0,1.899 6.4,9.799 8.8,9.799 0.6,0 1,-0.5 1,-0.799 0,-1.5 -7.301,-9.3 -9.301,-9.3 M -14.9,1.9 c -0.3,0 -0.4,0.401 -0.4,0.6 -0.1,1.9 6.7,9.8 8.7,9.8 0.6,0 1,-0.4 1,-0.8 0,-1.399 -7.3,-9.5 -9.3,-9.6 M 44,11.3 c -0.101,1.1 -1.2,2 -2.601,2 C 40.3,13.2 38.7,12.7 37.5,12 c 0.6,0.601 1.1,1.3 1.7,1.9 -0.301,-0.1 -0.5,-0.1 -0.7,-0.1 L 38.399,13.7 C 38,13.5 36.899,13 35.7,13 34.6,13 33.3,12.8 32.6,11.9 30.8,9.7 29,7.4 27.3,5.2 25.5,3.7 23.399,2.2 21.399,2.2 21.1,2.2 20.8,2.601 21,3 c 0.1,0.2 0.399,0.5 0.5,0.7 V 3.801 C 24.399,7.3 27.2,10.8 30,14.3 29.7,14.2 29.3,14.1 29,14 28.899,13.9 28.8,13.7 28.7,13.601 28.2,13.2 27.2,13.2 26.5,13.2 c -1.3,0 -2.2,-1.099 -2.5,-1.7 0,0 -0.101,0.601 -0.3,0.8 -0.4,0.6 -1.1,1.3 -2.2,1.4 -3.8,0.5 -8.8,-3.6 -11,-7.1 C 8,4.4 5,2.4 2.5,2.4 2,2.4 1.8,2.601 1.7,2.9 c -0.1,2.4 5.7,7.9 7.5,9 1,0.6 2.6,1 3,0.4 0.6,-1 -1.1,-1.3 -1.1,-1.3 0,0 -0.3,-0.8 -0.6,-1.3 0,0 2.899,0.4 2.5,2.5 -0.2,1.3 -1.5,1.7 -2.4,1.7 C 7,13.9 2.1,10.7 -0.4,7.5 -2.8,5.3 -5.5,3 -7,2.4 -7.3,2.301 -7.6,2.2 -7.5,2.4 -7.5,2.7 -7.4,2.801 -7.2,3 -7.1,3.101 -7.1,3.2 -7,3.301 -4.2,6.9 -1.3,10.5 1.5,14.1 1.2,14 0.9,13.9 0.7,13.8 L 0.6,13.7 c -0.5,-0.4 -1.7,-0.4 -2.5,-0.4 -1.3,0 -2.1,-1.3 -2.4,-1.8 -0.1,0.3 -0.1,0.601 -0.2,0.9 -0.1,0.8 -1.2,1.3 -2.3,1.3 -4.8,-0.1 -11.8,-6.7 -11.8,-10.099 0,-2 1.3,-3.101 3.6,-2.8 2.3,0.3 5,3.299 5,3.299 0,-2.9 1.5,-2.999 2.5,-2.999 1.4,0 3.6,1.7 5.9,3.599 C -1.7,4.4 -1.7,4.2 -1.7,4 -1.6,2.2 -0.4,0.8 2.2,0.8 4.2,0.8 7,2.5 9.6,4.4 9.5,4.1 9.5,4 9.5,3.7 c 0,-2 2,-2.9 3.7,-2.9 2.699,0.1 5.1,3.3 5.1,3.3 -0.8,-2.7 1,-3.4 2.5,-3.4 1.3,0 2.7,0.6 4.099,1.5 C 21.8,-1.7 18.7,-5.6 15.7,-9.6 h 0.199 c 0,0 1.201,-0.1 2.701,0.8 1.1,0.6 2.2,0.8 2.2,0.8 2.5,3.4 5,6.7 7.599,10.2 C 29.2,1 29.7,0.9 31.2,0.9 c 5.5,0 9.699,4.7 10.5,5.8 1.8,2.401 2.3,3.8 2.3,4.6 m 9.899,0.9 C 51.899,12.2 45,4.5 45,2.601 45,2.301 45.1,1.9 45.399,1.9 c 2,0 9.5,8 9.5,9.5 0,0.3 -0.399,0.8 -1,0.8 M 56.3,11.3 c 0.3,0.5 1.099,1.801 2.4,1.801 1,0 2.3,-0.101 2.699,0.5 -2.699,-3.5 -5.299,-7 -8,-10.5 C 53.3,2.9 53.1,2.7 53.1,2.5 c -0.1,-0.199 0.299,-0.1 0.5,0 3,1 7.2,5.8 8.299,5.9 0.801,0.1 -5.5,-7.4 -9,-7.4 -1,0 -2.5,0.2 -2.399,3.101 0,0 -2.8,-3 -5.101,-3.201 -2.199,-0.299 -3.5,0.901 -3.5,2.901 0,3.399 7.101,9.899 12,9.899 1.101,0 2.201,-0.6 2.301,-1.3 0,-0.5 0,-0.799 0.1,-1.1"></path> </g> <g transform="translate(121.0996,79.3999)" id="g36"> <path id="path38" style="fill:#000000;fill-opacity:1;fill-rule:nonzero;stroke:none" d="M 0,0 H 0.2 C 0.4,0 0.601,0.1 0.601,0.3 0.601,0.4 0.5,0.6 0.2,0.6 H 0 Z M 0,-1 H -0.399 V 0.7 C -0.3,0.7 0,0.8 0.2,0.8 0.5,0.8 0.601,0.7 0.801,0.7 0.9,0.6 1,0.5 1,0.3 1,0.1 0.9,0 0.601,-0.1 0.801,-0.2 0.9,-0.3 0.9,-0.5 1,-0.8 1,-0.9 1,-0.9 H 0.601 C 0.5,-0.8 0.5,-0.7 0.5,-0.5 c 0,0.2 -0.1,0.3 -0.3,0.3 H 0 Z m 0.2,2.2 c -0.8,0 -1.3,-0.6 -1.3,-1.3 0,-0.8 0.6,-1.3 1.3,-1.3 0.8,0 1.3,0.6 1.3,1.3 C 1.5,0.6 1,1.2 0.2,1.2 M 0.301,1.6 C 1.301,1.6 2,0.8 2,-0.1 c 0,-1 -0.8,-1.7 -1.699,-1.7 -1,0 -1.7,0.8 -1.7,1.7 -0.101,1 0.7,1.7 1.7,1.7"></path> </g> </g> </g> </g> </svg> 