<?xml version="1.0" encoding="UTF-8" standalone="no"?> <svg xmlns:dc="http://purl.org/dc/elements/1.1/" xmlns:cc="http://creativecommons.org/ns#" xmlns:rdf="http://www.w3.org/1999/02/22-rdf-syntax-ns#" xmlns:svg="http://www.w3.org/2000/svg" xmlns="http://www.w3.org/2000/svg" viewBox="0 0 186.66667 186.66667" height="186.66667" width="186.66667" xml:space="preserve" id="svg2"> <metadata id="metadata8"></metadata> <defs id="defs6"> <clipPath id="clipPath18" clipPathUnits="userSpaceOnUse"> <path id="path16" d="M 0,140 H 140 V 0 H 0 Z"></path> </clipPath> </defs> <g transform="matrix(1.3333333,0,0,-1.3333333,0,186.66667)" id="g10"> <g id="g12"> <g clip-path="url(#clipPath18)" id="g14"> <g transform="translate(54.8999,45)" id="g20"> <path id="path22" style="fill:#000000;fill-opacity:1;fill-rule:nonzero;stroke:none" d="m 0,0 0.8,-0.7 v -1.9 -2.2 c -0.5,0.7 -1,1.3 -1.4,1.8 -0.4,0.5 -0.7,1 -1.1,1.3 -0.3,0.4 -0.6,0.7 -0.8,1 -0.2,0.3 -0.4,0.4 -0.4,0.599 H -4.8 V -0.2 l 0.9,-0.6 c 0.1,-2 0.1,-3.6 0,-4.8 l -0.7,-0.6 v -0.1 h 2.2 v 0.1 l -0.8,0.6 c -0.1,1.5 -0.1,2.9 -0.1,4.3 L 0.3,-5.9 C 0.4,-6 0.4,-6 0.4,-6.1 c 0,-0.1 0.1,-0.1 0.1,-0.1 h 0.8 c -0.1,0.8 -0.1,1.6 -0.1,2.6 v 3 l 0.7,0.7 v 0.1 z"></path> </g> <g transform="translate(60.7002,44.4004)" id="g24"> <path id="path26" style="fill:#000000;fill-opacity:1;fill-rule:nonzero;stroke:none" d="M 0,0 0.7,0.5 V 0.6 H -1.8 V 0.5 L -1.1,0 V -5 L -1.8,-5.5 V -5.601 H 0.7 V -5.5 L 0,-5 Z"></path> </g> <g transform="translate(67.7002,39.4004)" id="g28"> <path id="path30" style="fill:#000000;fill-opacity:1;fill-rule:nonzero;stroke:none" d="m 0,0 h -2.5 v 2.399 h 1.9 l 0.4,-0.7 h 0.1 V 3.6 H -0.2 L -0.6,2.899 h -1.9 v 1 V 5 H -1.3 0 L 0.5,4.3 H 0.6 V 5.6 H -4.2 V 5.5 L -3.5,5 V 0 l -0.7,-0.5 v -0.101 h 5 v 1.5 H 0.7 Z"></path> </g> <g transform="translate(46.2998,45)" id="g32"> <path id="path34" style="fill:#000000;fill-opacity:1;fill-rule:nonzero;stroke:none" d="m 0,0 0.8,-0.7 v -1.9 -2.2 c -0.5,0.7 -1,1.3 -1.3,1.8 -0.4,0.5 -0.8,1 -1.1,1.3 -0.3,0.3 -0.6,0.7 -0.8,1 -0.2,0.3 -0.4,0.4 -0.4,0.599 H -4.7 V -0.2 l 0.9,-0.6 c 0.1,-2 0.1,-3.6 0,-4.8 l -0.7,-0.6 v -0.1 h 2.2 v 0.1 l -0.8,0.6 c -0.1,1.5 -0.1,2.9 -0.1,4.3 L 0.4,-5.9 C 0.5,-6 0.5,-6 0.5,-6.1 c 0,-0.1 0.1,-0.1 0.1,-0.1 h 0.8 c -0.1,0.8 -0.1,1.6 -0.1,2.6 0,0.9 0,1.9 0.1,3 l 0.7,0.7 v 0.1 z"></path> </g> <g transform="translate(83.2998,46.5996)" id="g36"> <path id="path38" style="fill:#000000;fill-opacity:1;fill-rule:nonzero;stroke:none" d="M 0,0 C 0.101,-0.1 0.2,-0.1 0.4,-0.199 0.601,-0.3 0.601,-0.3 0.8,-0.399 0.601,-1.199 0.4,-2 0.2,-2.6 0,-3.3 -0.2,-3.8 -0.3,-4.3 -0.399,-4.7 -0.5,-5.2 -0.7,-5.5 -0.8,-5.8 -0.8,-6 -0.8,-6.2 l -1.7,5.6 c 0.101,0.1 0.2,0.201 0.4,0.3 0.201,0.1 0.201,0.1 0.3,0.2 V 0 h -2.7 v -0.1 l 0.7,-0.5 C -4,-1.2 -4.2,-1.8 -4.3,-2.3 -4.399,-2.8 -4.6,-3.3 -4.7,-3.8 -4.8,-4.2 -5,-4.7 -5.1,-5.1 -5.2,-5.5 -5.3,-5.899 -5.399,-6.3 L -7,-0.7 l 0.7,0.5 v 0.1 h -3 V -0.2 C -9.2,-0.3 -9.1,-0.3 -9,-0.399 -8.899,-0.5 -8.899,-0.5 -8.8,-0.5 l 0.1,-0.1 c 0,-0.1 0.1,-0.1 0.1,-0.1 0.1,-0.3 0.201,-0.699 0.4,-1.1 0.1,-0.5 0.4,-1.099 0.5,-1.7 0.2,-0.7 0.4,-1.3 0.7,-2.1 0.2,-0.7 0.4,-1.5 0.7,-2.299 h 0.901 v 0.099 0.1 c 0,0.1 0,0.1 0.099,0.1 0,0.1 0.1,0.1 0.1,0.1 0.1,0.3 0.1,0.601 0.2,0.9 0.101,0.3 0.101,0.701 0.3,1 0.1,0.4 0.2,0.701 0.301,1 0.099,0.4 0.199,0.701 0.299,1.1 0.1,0.4 0.201,0.7 0.3,1 0.1,0.3 0.2,0.7 0.3,1 l 2.101,-6.6 H -0.6 c 0,0.1 0.1,0.4 0.201,0.8 0.099,0.401 0.199,0.901 0.399,1.5 0.101,0.6 0.4,1.3 0.7,2.2 0.2,0.8 0.5,1.8 0.8,2.8 0.101,0.1 0.3,0.3 0.4,0.401 C 2,-0.3 2,-0.3 2.101,-0.2 v 0.1 z"></path> </g> <g transform="translate(19.7998,46.5996)" id="g40"> <path id="path42" style="fill:#000000;fill-opacity:1;fill-rule:nonzero;stroke:none" d="M 0,0 1,-0.6 1.1,-7.3 V -8 C 1.1,-8.199 1.1,-8.399 1,-8.5 1,-8.6 0.9,-8.8 0.9,-8.899 0.8,-9 0.8,-9.199 0.6,-9.3 0.4,-9.399 0.3,-9.6 0.1,-9.7 -0.1,-9.8 -0.3,-9.8 -0.6,-9.8 l 0.1,0.1 c 0,0 0,0.1 0.1,0.1 v 0.1 c 0,0.101 0,0.101 -0.1,0.2 0,0.1 -0.1,0.1 -0.1,0.2 -0.1,0.1 -0.1,0.1 -0.2,0.1 -0.1,0 -0.1,0.101 -0.2,0.101 -0.1,0 -0.1,0 -0.2,-0.101 -0.1,0 -0.1,-0.1 -0.2,-0.1 -0.1,-0.1 -0.1,-0.1 -0.1,-0.2 0,-0.099 -0.1,-0.099 -0.1,-0.2 0,-0.1 0.1,-0.2 0.1,-0.399 0.1,-0.101 0.1,-0.101 0.2,-0.201 0.1,-0.1 0.2,-0.1 0.3,-0.1 0.1,0 0.2,-0.1 0.4,-0.1 0.2,0 0.4,0.1 0.7,0.1 0.3,0 0.4,0.1 0.6,0.301 0.2,0.099 0.4,0.299 0.5,0.5 C 1.3,-9.2 1.5,-9 1.6,-8.7 l 0.3,0.6 C 2,-8 2,-7.7 2.1,-7.5 c 0.1,0.2 0.1,0.4 0.1,0.7 0,0.2 0.1,0.5 0.1,0.901 v 1 1.199 1.5 1.9 l 0.8,0.5 v 0.1 z"></path> </g> <g transform="translate(30.8999,43.5996)" id="g44"> <path id="path46" style="fill:#000000;fill-opacity:1;fill-rule:nonzero;stroke:none" d="M 0,0 C -0.1,0.2 -0.3,0.4 -0.6,0.7 -0.8,0.9 -1,1.101 -1.3,1.2 -1.5,1.301 -1.8,1.4 -2,1.5 -2.3,1.601 -2.5,1.601 -2.8,1.601 -3.3,1.601 -3.8,1.5 -4.2,1.301 -4.6,1.2 -5,0.9 -5.3,0.601 c -0.3,-0.3 -0.6,-0.701 -0.7,-1 -0.1,-0.3 -0.3,-0.8 -0.3,-1.3 C -6.3,-2.1 -6.2,-2.6 -6,-3 c 0.1,-0.399 0.4,-0.699 0.7,-1 0.3,-0.3 0.7,-0.6 1.1,-0.699 0.4,-0.2 0.9,-0.2 1.3,-0.2 0.4,0 0.9,0.099 1.3,0.299 0.4,0.1 0.7,0.401 1,0.701 0.3,0.299 0.5,0.7 0.7,1 C 0.2,-2.5 0.3,-2.1 0.3,-1.6 0.3,-1.3 0.2,-1 0.2,-0.699 0.2,-0.5 0.1,-0.199 0,0 M -1,-3 C -1.1,-3.399 -1.3,-3.699 -1.5,-3.899 -1.7,-4.1 -1.9,-4.3 -2.2,-4.5 -2.4,-4.6 -2.7,-4.6 -3,-4.6 c -0.3,0 -0.6,0.1 -0.9,0.201 C -4.2,-4.3 -4.4,-4 -4.6,-3.8 c -0.2,0.2 -0.4,0.5 -0.5,0.901 -0.1,0.399 -0.1,0.7 -0.1,1.2 0,0.5 0.1,0.8 0.1,1.199 0,0.4 0.2,0.7 0.4,0.9 0.2,0.201 0.4,0.401 0.7,0.6 0.3,0.101 0.6,0.2 0.9,0.2 0.4,0 0.7,-0.099 1,-0.2 0.3,-0.1 0.5,-0.399 0.7,-0.6 0.2,-0.2 0.3,-0.5 0.4,-0.9 0.1,-0.399 0.1,-0.699 0.1,-1.199 C -0.8,-2.1 -0.8,-2.6 -1,-3"></path> </g> <g transform="translate(37.2998,45)" id="g48"> <path id="path50" style="fill:#000000;fill-opacity:1;fill-rule:nonzero;stroke:none" d="m 0,0 0.7,-0.5 v -2.1 h -3.3 v 2.1 L -1.9,0 V 0.1 H -4.3 V 0 l 0.7,-0.5 v -5 L -4.3,-6 v -0.1 h 2.4 V -6 l -0.7,0.5 v 2.4 H 0.7 V -5.5 L 0,-6 V -6.1 H 2.4 V -6 l -0.7,0.5 v 5 L 2.4,0 v 0.1 z"></path> </g> <g transform="translate(89.0996,45.0996)" id="g52"> <path id="path54" style="fill:#000000;fill-opacity:1;fill-rule:nonzero;stroke:none" d="M 0,0 H -0.899 L -3.1,-5.6 -3.8,-6.199 V -6.3 h 2.101 v 0.101 L -2.399,-5.6 -1.8,-4 H 0.5 L 1.2,-5.6 0.4,-6.199 V -6.3 h 2.701 v 0.101 L 2.4,-5.6 Z m -1.699,-3.6 1,2.6 1,-2.6 z"></path> </g> <g transform="translate(112.0996,39.2998)" id="g56"> <path id="path58" style="fill:#000000;fill-opacity:1;fill-rule:nonzero;stroke:none" d="m 0,0 h -2.5 v 2.4 h 1.9 L -0.199,1.7 H -0.1 V 3.601 L -0.5,2.9 h -2 V 3.9 5 H -1.3 0 L 0.5,4.3 h 0.101 v 1.301 h -4.8 V 5.5 L -3.5,5 V 0 l -0.699,-0.5 v -0.1 h 5 V 0.8 L 0.7,0.8 Z"></path> </g> <g transform="translate(120.5996,38.9004)" id="g60"> <path id="path62" style="fill:#000000;fill-opacity:1;fill-rule:nonzero;stroke:none" d="M 0,0 -0.1,0.1 C -0.199,0.199 -0.199,0.199 -0.199,0.3 -0.3,0.399 -0.3,0.399 -0.3,0.5 L -1.3,2 C -1.399,2.1 -1.5,2.3 -1.699,2.399 -1.8,2.5 -2,2.5 -2.199,2.5 c 0.3,0 0.599,0.1 0.8,0.1 0.2,0.099 0.399,0.2 0.7,0.4 0.099,0.1 0.3,0.3 0.399,0.5 0.101,0.199 0.101,0.399 0.101,0.699 0,0.2 -0.101,0.401 -0.101,0.7 C -0.399,5.1 -0.6,5.3 -0.8,5.399 -1,5.5 -1.199,5.699 -1.5,5.8 c -0.3,0.099 -0.699,0.099 -1,0.099 h -1 -2.1 V 5.8 l 0.701,-0.5 v -5 L -5.6,-0.2 v -0.101 h 2.5 V -0.2 l -0.7,0.5 v 2.2 h 0.401 0.299 c 0.1,0 0.201,0 0.3,-0.101 C -2.699,2.3 -2.699,2.3 -2.6,2.199 L -1.1,-0.2 h 1.401 v 0.099 C 0.101,0 0.101,0 0,0 M -3.199,3 H -3.3 -3.6 -3.8 -3.899 v 2.5 h 0.299 0.3 0.2 0.1 c 0.2,0 0.4,0 0.601,-0.101 C -2.3,5.3 -2.1,5.3 -2,5.1 -1.899,5 -1.8,4.899 -1.699,4.699 -1.6,4.6 -1.6,4.399 -1.6,4.3 -1.6,3.899 -1.699,3.6 -2,3.3 -2.199,3.199 -2.699,3 -3.199,3"></path> </g> <g transform="translate(102.9004,42.4004)" id="g64"> <path id="path66" style="fill:#000000;fill-opacity:1;fill-rule:nonzero;stroke:none" d="M 0,0 C 0.5,0.5 1,1 1.399,1.3 1.8,1.699 2.1,1.899 2.3,2 l 1,0.5 V 2.6 H 1.199 V 2.5 L 1.5,2.1 0.8,1.399 C 0.6,1.199 0.399,1 0.1,0.8 -0.101,0.6 -0.301,0.399 -0.5,0.199 -0.7,0.1 -0.9,-0.2 -1.101,-0.301 -0.4,-1 0.5,-1.9 1.399,-3 L 1.1,-3.5 V -3.601 H 3.3 V -3.5 L 2.899,-3 C 1.5,-1.7 0.6,-0.601 0,0"></path> </g> <g transform="translate(101.7998,44.4004)" id="g68"> <path id="path70" style="fill:#000000;fill-opacity:1;fill-rule:nonzero;stroke:none" d="M 0,0 0.7,0.5 V 0.6 H -1.8 V 0.5 L -1.1,0 V -5 L -1.8,-5.5 V -5.601 H 0.7 V -5.5 L 0,-5 c -0.1,1.699 -0.1,3.399 0,5"></path> </g> <g transform="translate(97.7002,39.2998)" id="g72"> <path id="path74" style="fill:#000000;fill-opacity:1;fill-rule:nonzero;stroke:none" d="m 0,0 h -1.3 -1 v 5 l 0.8,0.5 V 5.601 H -4.101 V 5.5 L -3.4,5 V 0 L -4.101,-0.5 V -0.6 H 0.6 V 0.9 H 0.5 Z"></path> </g> <g transform="translate(54.6001,53.0996)" id="g76"> <path id="path78" style="fill:#000000;fill-opacity:1;fill-rule:nonzero;stroke:none" d="m 0,0 -0.4,0.601 h -0.1 v -1 h 0.1 v 0.7 L 0,-0.3 0.4,0.301 v -0.7 h 0.1 v 1 H 0.4 Z m -1,0.5 h 0.4 v 0.101 h -1 V 0.5 h 0.4 v -0.8 h 0.1 v 0.8 z"></path> </g> <g transform="translate(123.2998,39.5996)" id="g80"> <path id="path82" style="fill:#000000;fill-opacity:1;fill-rule:nonzero;stroke:none" d="M 0,0 C 0,0.4 -0.399,0.801 -0.8,0.801 -1.2,0.801 -1.6,0.4 -1.6,0 c 0,-0.399 0.4,-0.8 0.8,-0.8 0.5,0 0.8,0.401 0.8,0.8 m -0.1,0 c 0,-0.399 -0.299,-0.699 -0.7,-0.699 -0.4,0 -0.7,0.3 -0.7,0.699 0,0.4 0.3,0.7 0.7,0.7 0.401,0.101 0.7,-0.3 0.7,-0.7 m -0.299,0.2 c 0,0.101 -0.101,0.3 -0.401,0.3 H -1.2 V -0.399 H -1 V -0.1 h 0.101 L -0.8,-0.399 h 0.2 L -0.8,-0.1 c 0.3,0 0.401,0.1 0.401,0.3 m -0.201,0 c 0,-0.099 -0.1,-0.099 -0.1,-0.099 h -0.199 v 0.2 H -0.7 L -0.6,0.2"></path> </g> <g transform="translate(60.8999,74.2002)" id="g84"> <path id="path86" style="fill:#000000;fill-opacity:1;fill-rule:nonzero;stroke:none" d="M 0,0 C 0.1,0 0.1,-0.1 0.1,0 0.2,0.1 0.2,0.2 0.3,0.4 0.4,0.7 0.7,1 0.9,1.3 1,1.5 1.2,1.7 1.4,1.9 1.5,2 1.8,2.2 1.9,2.3 2,2.4 2,2.4 1.9,2.4 1.5,2.3 1,2.3 0.6,2.3 0.4,2.3 -0.1,2.2 -0.1,2.2 -0.2,2.1 -0.3,1.9 -0.4,1.8 -0.7,1.1 -0.5,0.3 0,0"></path> </g> <g transform="translate(71.0996,93.3999)" id="g88"> <path id="path90" style="fill:#000000;fill-opacity:1;fill-rule:nonzero;stroke:none" d="m 0,0 c 0,-0.1 0.101,-0.1 0.101,-0.2 0,-0.1 0.099,-0.1 0.099,-0.1 0.101,0 0.2,0.1 0.401,0.1 0.099,0 0.099,0.1 0.2,0 0.099,-0.1 0.099,-0.1 0.3,-0.1 0.099,0 0.2,0.1 0.299,0.1 0.1,0 0.201,-0.1 0.201,-0.1 C 1.7,-0.4 2,-0.5 1.9,-0.3 1.9,-0.2 1.801,0 1.801,0.2 c 0,0.1 0,0.3 0.099,0.4 C 1.9,0.7 2.101,0.9 2,1 1.9,1 1.801,1 1.7,0.9 1.601,0.8 1.5,0.8 1.301,0.7 1.101,0.6 0.9,0.7 0.7,0.8 0.601,0.9 0.5,0.9 0.4,0.9 0.301,1 0.2,1 0,1.1 -0.1,1.1 -0.1,1.2 -0.2,1.1 -0.3,1 -0.3,0.8 -0.3,0.7 -0.2,0.5 -0.1,0.3 0,0"></path> </g> <g transform="translate(70.2998,95.3999)" id="g92"> <path id="path94" style="fill:#000000;fill-opacity:1;fill-rule:nonzero;stroke:none" d="M 0,0 H 0.3 C 0.4,0 0.5,0 0.5,0.1 0.5,0.2 0.4,0.2 0.4,0.2 0.3,0.2 0.3,0.3 0.3,0.3 0.2,0.3 0.1,0.2 0,0.2 -0.1,0 -0.1,0 0,0"></path> </g> <g transform="translate(77.2998,84.6001)" id="g96"> <path id="path98" style="fill:#000000;fill-opacity:1;fill-rule:nonzero;stroke:none" d="M 0,0 C 0.101,0.1 0.3,0.1 0.4,0.1 0.5,0.1 0.7,0 0.8,0 c 0.1,-0.1 0.301,-0.1 0.4,-0.2 0.1,-0.1 0.1,-0.1 0.2,-0.1 0,0 0,-0.1 0.1,0 H 1.601 C 1.7,-0.3 1.7,-0.2 1.7,-0.2 1.8,0 1.601,0.1 1.4,0.1 1.3,0.1 1.2,0.2 1,0.2 0.9,0.2 0.9,0.2 0.9,0.3 0.8,0.4 1,0.4 1,0.4 1.101,0.5 1.2,0.5 1.3,0.5 1.601,0.8 1.601,1.3 1.3,1.7 1.2,1.8 1.2,1.8 1.101,1.8 1,1.8 0.9,1.9 0.8,1.9 0.7,1.9 0.8,1.8 0.8,1.7 0.9,1.6 0.9,1.5 0.8,1.4 0.7,1.3 0.601,1.1 0.4,1.1 0.3,1.1 0.2,1.2 0.101,1.2 L 0,1.3 C -0.1,1.3 -0.1,1.2 -0.1,1.2 -0.1,1.1 -0.1,1 0,0.9 0,0.8 0.101,0.8 0.101,0.8 0.101,0.7 0,0.7 0,0.7 -0.1,0.6 -0.1,0.3 -0.2,0.2 -0.2,-0.1 0,0 0,0"></path> </g> <g transform="translate(74.9004,63.5)" id="g100"> <path id="path102" style="fill:#000000;fill-opacity:1;fill-rule:nonzero;stroke:none" d="M 0,0 C 0.1,0.1 0.1,0.1 0.199,0.3 0.3,0.4 0.3,0.5 0.399,0.6 0.5,0.8 0.6,1 0.699,1.3 0.8,1.5 0.8,1.8 1,2 1.1,2.2 1.199,2.4 1.199,2.6 1.3,3 1.199,3.4 1.1,3.7 1.1,3.8 1,4 1,4.1 1,4.2 0.899,4.2 0.899,4.2 0.899,4.2 0.8,4.1 0.8,4 0.699,3.8 0.699,3.6 0.6,3.4 0.5,3.2 0.199,3 0.199,2.7 0.199,2.5 0.3,2.3 0.3,2.2 0.399,2 0.3,1.8 0.199,1.6 0.1,1.5 0,1.2 -0.2,1.1 -0.301,1 -0.5,0.8 -0.601,0.7 -1,0.4 -1.2,0 -1.301,-0.6 -1.301,-0.7 -1.4,-1 -1.2,-1 c 0.099,0 0.2,0.1 0.3,0.1 0.4,0.5 0.7,0.7 0.9,0.9"></path> </g> <g transform="translate(84.5996,57.5996)" id="g104"> <path id="path106" style="fill:#000000;fill-opacity:1;fill-rule:nonzero;stroke:none" d="M 0,0 H -0.1 C -0.199,0 -0.199,0.101 -0.199,0.101 -0.399,0.101 -0.6,0.101 -0.8,0 -0.899,-0.1 -0.899,-0.1 -1,-0.199 -1.1,-0.3 -1.199,-0.3 -1.399,-0.399 -1.6,-0.5 -1.8,-0.5 -2.1,-0.5 -2.6,-0.6 -3.1,-0.399 -3.699,-0.399 -3.8,-0.399 -4,-0.3 -4.1,-0.3 c -0.099,0 -0.099,0.1 -0.2,0.1 -0.099,0 -0.099,0.1 -0.2,0.1 0,0.1 0,0.1 -0.1,0.1 -0.099,0.101 -0.099,0.101 -0.2,0.2 H -4.899 C -5,0.2 -5,0.3 -5,0.3 -5.1,0.4 -5.1,0.4 -5.1,0.5 -5.199,0.601 -5.199,0.8 -5.3,0.9 -5.5,1.3 -5.699,1.7 -5.8,2.101 -6.199,3.101 -6.699,4.3 -7.1,5.4 -7.199,5.8 -7.399,6.3 -7.5,6.7 -7.6,6.8 -7.6,7 -7.6,7.101 -7.6,7.2 -7.699,7.2 -7.699,7.2 -7.8,7.2 -7.899,7.101 -7.899,7 -8,6.8 -8.1,6.5 -8.199,6.3 -8.3,6.101 -8.3,5.9 -8.5,5.601 -8.6,5.5 -8.6,5.5 -8.699,5.4 L -8.8,5.3 C -8.899,5.3 -8.899,5.2 -8.899,5.2 -9,4.9 -8.8,4.7 -8.8,4.5 -8.8,4.4 -8.699,4.101 -8.8,4 -8.899,3.9 -9.1,4.101 -9.1,4.101 -9.199,4.2 -9.3,4.5 -9.5,4.601 -9.6,4.7 -9.6,4.8 -9.8,4.8 -10,4.8 -10.1,4.7 -10.199,4.601 -10.3,4.601 -10.3,4.5 -10.3,4.5 -10.199,4.3 -10.199,4.101 -10.1,3.8 -9.899,3.4 -9.699,2.9 -9.399,2.5 -9.1,2.101 -8.8,1.601 -8.5,1.2 c 0.4,-0.4 0.7,-0.8 1,-1.3 0.101,-0.2 0.4,-0.7 0.5,-1 0.101,-0.2 0.601,-1.7 0.601,-1.799 C -6.3,-3.3 -6,-3.6 -5.6,-3.899 -5.5,-4 -5.3,-4.2 -5.199,-4.3 L -5.1,-4.399 c 0.1,0.099 0.401,0.099 0.5,0.199 0.201,0.1 0.401,0.2 0.701,0.4 l 0.2,0.1 c 0,0.1 -0.101,0.5 -0.101,0.5 0.3,0.1 0.5,0.1 0.8,0.2 0.4,0.101 0.801,0.2 1.301,0.4 0.3,0.1 0.5,0.201 0.8,0.401 C -0.6,-2 -0.399,-1.8 -0.199,-1.5 -0.1,-1.3 0.2,-1 0.301,-0.699 0.4,-0.6 0.4,-0.5 0.4,-0.399 0.301,-0.199 0.101,0 0,0"></path> </g> <g transform="translate(68.2002,72.7998)" id="g108"> <path id="path110" style="fill:#000000;fill-opacity:1;fill-rule:nonzero;stroke:none" d="m 0,0 c 0.4,0.5 0.7,1.1 1.1,1.6 0.3,0.3 0.7,0.5 1,0.7 L 2.2,2.4 C 2.1,2.5 2,2.4 1.9,2.4 1.5,2.3 1.1,2 0.8,1.8 0.4,1.5 0.1,1.2 -0.2,0.8 -0.8,0 -1.2,-0.9 -1.6,-1.8 -1.8,-2.2 -2,-2.6 -2.3,-2.9 -2.4,-3.1 -2.6,-3.3 -2.8,-3.5 -3,-3.7 -3.2,-3.899 -3.5,-4 -3.7,-4.1 -3.9,-4.3 -4.1,-4.399 -4.2,-4.5 -4.5,-4.7 -4.5,-4.8 v -0.3 c 0,-0.1 -0.1,-0.1 -0.1,-0.2 -0.1,-0.099 -0.3,-0.099 -0.4,-0.2 -0.2,-0.1 -0.4,-0.1 -0.6,-0.2 -0.1,-0.1 -0.1,-0.4 -0.1,-0.4 0.1,-0.5 -0.5,-0.799 -1,-0.9 -0.4,-0.1 -1,-0.2 -1.5,-0.1 -0.4,0 -0.7,0.1 -1,0.1 -0.1,0 -0.4,0.1 -0.5,-0.1 -0.1,-0.1 0.1,-0.299 0.2,-0.4 0.1,-0.1 0.4,-0.2 0.6,-0.3 0.1,0 0.2,-0.099 0.4,-0.099 h 0.1 c 0.5,-0.101 1,-0.101 1.6,0 0.2,0 0.4,0.099 0.6,0.099 0.2,0.1 0.4,0.1 0.6,0.2 0.1,0.1 0.1,0.1 0.1,0.3 v 0.2 c 0,0.1 0.1,0.1 0.1,0.1 0.1,0.1 0.2,0.1 0.3,0.2 0.2,0.1 0.4,0.2 0.7,0.401 0.1,0.099 0.1,0.199 0.1,0.299 0,0.1 0,0.201 0.1,0.4 0.1,0.1 0.1,0.2 0.2,0.301 0.1,0.099 0.2,0.099 0.3,0.199 0.1,0.1 0.3,0.2 0.4,0.4 0.1,0.1 0.1,0.3 0.3,0.401 0.1,0.099 0.2,0.299 0.4,0.399 0.3,0.3 0.7,0.6 0.9,1 0.3,0.4 0.5,0.7 0.7,1.2 0.2,0.4 0.5,1.2 1,1.8"></path> </g> <g transform="translate(61.1001,63.7002)" id="g112"> <path id="path114" style="fill:#000000;fill-opacity:1;fill-rule:nonzero;stroke:none" d="M 0,0 C -0.7,-0.101 -1.4,-0.101 -2.2,0.1 H -2.5 C -2.6,0.1 -2.7,0 -2.8,0 -2.9,0 -2.9,-0.2 -3,-0.3 -3.1,-0.4 -3.1,-0.5 -3.2,-0.601 -3.3,-0.7 -3.5,-0.8 -3.6,-0.7 c -0.1,0.099 0,0.3 0.1,0.4 0.1,0.199 0.2,0.4 0.3,0.699 V 0.5 c -0.1,0.1 -0.1,0.1 -0.2,0.1 -0.1,0.1 -0.1,0.1 -0.1,0.2 0,0.099 -0.1,0 -0.1,0 C -3.7,0.7 -3.7,0.7 -3.7,0.5 -3.9,0.2 -4.1,-0.2 -4.2,-0.5 -4.3,-0.8 -4.5,-1.101 -4.6,-1.4 -4.7,-1.8 -4.8,-2.2 -5,-2.7 -5.2,-3.2 -5.2,-3.5 -5.3,-4 -5.4,-4.2 -5.4,-4.4 -5.4,-4.601 -5.5,-4.7 -5.5,-4.8 -5.6,-5 -5.7,-5.101 -5.7,-5.101 -5.9,-5.2 -6,-5.3 -6.2,-5.5 -6.3,-5.7 -6.4,-5.9 -6.4,-6.101 -6.4,-6.4 V -6.5 -6.601 C -6.5,-6.7 -6.5,-6.8 -6.5,-7 c -0.1,-0.4 0.1,-1 0.4,-1.3 0,-0.1 0.2,0 0.3,0 0.1,0 0.2,0.1 0.2,0 0.1,-0.4 0.4,-0.801 0.5,-1.301 0.1,-0.399 0.3,-0.699 0.7,-0.899 0.4,-0.3 0.9,-0.4 1.3,-0.5 0.4,-0.101 0.9,-0.101 1.3,-0.101 0.1,0 0.4,0 0.5,0.101 0.1,0.1 0.1,0.1 0.1,0.2 v 0.3 c -0.1,0.2 -0.1,0.399 -0.2,0.6 -0.1,0.1 -0.3,0.2 -0.4,0.299 C -1.9,-9.5 -2,-9.5 -2.2,-9.4 c -0.1,0 -0.1,0.1 -0.1,0.1 -0.3,0.4 -0.4,0.8 -0.6,1.3 -0.1,0.399 -0.2,0.899 -0.2,1.3 v 0.099 c 0.1,0 0.1,0.101 0.1,0.101 0.1,0.1 0.1,0.1 0.1,0.2 0,0.1 -0.1,0.1 -0.1,0.3 v 0.2 c 0.1,0.4 0.1,0.699 0.3,1 0.3,0.699 0.7,1.3 1.2,2 0.3,0.4 0.7,0.9 1,1.3 0.2,0.3 0.4,0.5 0.7,0.8 C -0.1,-0.2 0,-0.101 0,0 0.2,0 0,0 0,0"></path> </g> <g transform="translate(75.5996,79.8999)" id="g116"> <path id="path118" style="fill:#000000;fill-opacity:1;fill-rule:nonzero;stroke:none" d="M 0,0 C 0.4,0.6 0.7,1.3 1,1.9 1.101,2 1.101,2 1.101,2.1 c 0,0 0,0.1 0.099,0.1 0,0.1 0.101,0 0.101,0.1 C 1.4,2.3 1.5,2.4 1.7,2.4 1.801,2.5 2,2.5 2.101,2.6 2.2,2.7 2.2,2.7 2.301,2.9 2.4,3 2.4,3 2.5,3.2 2.601,3.3 2.601,3.4 2.7,3.6 2.801,3.8 3,3.7 3.101,3.8 3.301,3.9 3.2,4.2 3.2,4.3 3.101,4.2 2.801,4.2 2.7,4.3 2.601,4.4 2.301,4.5 2.2,4.4 2.101,4.3 2.101,4.3 2.101,4.2 2.101,4.1 2,4.1 2,4.1 1.9,4 1.9,3.8 1.9,3.7 1.801,3.6 1.801,3.4 1.601,3.3 1.5,3.2 1.5,3.2 1.4,3.1 1.301,3 1.2,3 1.101,3 0.9,2.9 0.7,2.9 0.4,3 0.301,3 0.101,3.1 0,3.1 -0.1,3 -0.1,2.8 -0.1,2.7 0,2.6 0.101,2.5 0.301,2.5 0.101,2.1 0,1.9 -0.1,1.6 -0.199,1.4 -0.3,1.2 -0.5,0.9 -0.899,0.1 -1.3,-0.7 -1.699,-1.5 -2.199,-2.5 -2.8,-3.7 -3.3,-4.7 -3.899,-5.9 -4.5,-7 -5.1,-8.2 c -0.5,-1 -1,-2.1 -1.6,-3.1 -0.4,-0.7 -0.699,-1.5 -1.1,-2.2 l -0.3,-0.6 c 0,-0.1 -0.1,-0.1 -0.1,-0.1 -0.1,-0.1 -0.1,-0.4 -0.3,-0.5 -0.1,-0.1 -0.2,-0.4 -0.1,-0.5 0.1,-0.2 0.3,-0.2 0.4,0 0,0.1 0.1,0.1 0.1,0.1 l 0.3,0.6 c 0.401,0.7 0.7,1.4 1.1,2.2 0.5,1 1,2 1.6,3 0.6,1.2 1.3,2.3 1.901,3.5 0.599,1.1 1.199,2.3 1.8,3.4 C -1,-2 -0.5,-1 0,0"></path> </g> <g transform="translate(70.7998,90.2002)" id="g120"> <path id="path122" style="fill:#000000;fill-opacity:1;fill-rule:nonzero;stroke:none" d="M 0,0 C -0.1,-0.1 -0.2,0.1 -0.3,0.1 -0.7,0.5 -1.2,1.1 -1.6,1.5 -1.7,1.6 -1.8,1.7 -1.9,1.8 -2,1.9 -2,2 -2,2.1 c 0.1,0.1 0.2,0.1 0.4,0.2 0.2,0.1 0.5,0.1 0.7,0 C -0.8,2.2 -1,2.1 -1,2 -1.1,1.9 -1,1.8 -0.9,1.7 -0.7,1.5 -0.5,1.3 -0.4,1 -0.3,0.8 -0.1,0.5 0,0.3 V 0 M 2.8,7.7 C 2.7,7.7 2.7,7.7 2.601,7.8 2.2,8.1 1.9,8.6 1.5,8.8 1.4,8.9 1.101,8.9 1,9 0.9,9 0.8,9.1 0.8,9.2 0.8,9.3 0.9,9.3 1.2,9.3 1.601,9.2 1.9,9.2 2.101,8.9 2.3,8.8 2.4,8.4 2.5,8.2 2.601,8.1 2.601,8 2.8,7.8 V 7.7 c 0.1,0.1 0.1,0 0,0 M 10.601,0.5 C 10.5,0.8 10.3,1.1 10.2,1.3 9.8,1.9 9.3,2.4 8.9,3 8.8,3.1 8.8,3.2 8.8,3.4 8.7,3.5 8.8,3.7 8.7,3.8 8.601,3.9 8.601,3.9 8.4,4 8.3,4.1 8.2,4.1 8.101,4.2 8,4.4 7.8,4.6 7.7,4.8 7.601,5 7.4,5.2 7.3,5.5 7.2,5.6 7.2,5.9 7.2,6 L 7.101,6.1 C 7,6.2 7,6.3 7,6.4 6.9,6.5 6.9,6.6 6.8,6.7 H 6.7 C 6.7,6.8 6.601,6.8 6.601,6.8 6.5,7 6.2,7.2 6.101,7.4 6,7.5 5.8,7.6 5.7,7.8 5.601,7.8 5.601,7.9 5.601,7.9 5.5,7.8 5.5,7.7 5.601,7.6 5.4,7.7 5.2,7.7 4.9,7.8 4.8,7.9 4.601,7.9 4.5,8 L 4.4,8.1 4.5,8.2 C 4.601,8.3 4.601,8.4 4.7,8.5 4.9,8.9 5.2,9.2 5.5,9.5 5.601,9.6 5.9,9.8 6,10 6.101,10.1 6.101,10.1 6.101,10.2 6.101,10.4 6,10.6 5.9,10.9 5.8,11.2 5.5,11.6 5.2,11.8 4.8,12.2 4.5,12.5 3.9,12.7 3.5,12.9 3,13.1 2.5,13.2 2.2,13.3 1.8,13.3 1.5,13.3 1.2,13.3 0.9,13.2 0.8,12.9 0.7,12.8 0.7,12.5 0.7,12.4 0.7,12.2 0.601,11.9 0.601,11.7 0.601,11.6 0.5,11.4 0.5,11.2 0.5,11 0.601,10.9 0.8,10.8 0.9,10.7 1.2,10.6 1,10.4 0.9,10.3 0.7,10.3 0.601,10.4 0.5,10.4 0.4,10.5 0.2,10.5 c -0.1,0.1 -0.3,0.1 -0.4,0.1 -0.2,0.1 -0.5,0.1 -0.7,0.1 -0.2,0 -0.4,0 -0.6,-0.1 -0.1,-0.1 -0.4,-0.1 -0.4,-0.3 -0.1,-0.2 0,-0.4 0.1,-0.5 0.1,-0.1 0.2,-0.1 0.3,-0.1 0.1,-0.1 0.2,-0.1 0.3,-0.2 0.1,-0.1 0,-0.1 -0.1,-0.1 -0.1,0 -0.1,0 -0.1,-0.1 -0.1,0 -0.1,-0.1 -0.1,-0.1 -0.1,-0.1 -0.1,-0.4 -0.1,-0.7 0,-0.2 0.1,-0.4 0.1,-0.6 0,-0.1 0,-0.1 -0.1,-0.2 -0.1,-0.1 -0.1,-0.1 -0.2,-0.1 -0.1,0 -0.1,-0.1 -0.1,-0.1 0,-0.1 0.1,-0.1 0.1,-0.1 0.2,-0.1 0.4,0 0.6,0 0.2,0 0.4,-0.1 0.5,-0.3 C -0.6,7 -0.5,7 -0.4,7 c 0.1,0 0,0.1 0,0.2 -0.1,0.2 -0.2,0.4 -0.3,0.7 -0.1,0.2 0,0.4 0.1,0.6 0.1,0.1 0.2,0.1 0.3,0.1 0.1,0 0.1,-0.1 0.2,-0.2 C 0,8.2 -0.1,7.9 0,7.7 0.1,7.6 0.1,7.5 0.1,7.4 0.2,7.3 0.3,7.2 0.4,7.3 0.5,7.4 0.5,7.5 0.5,7.6 V 8 C 0.5,8.2 0.601,8.2 0.601,8.4 0.7,8.5 0.7,8.5 0.8,8.5 0.9,8.5 1,8.4 1.101,8.4 1.2,8.3 1.3,8.3 1.4,8.2 1.4,8.1 1.5,8 1.5,7.9 1.5,7.8 1.601,7.8 1.601,7.8 1.8,7.7 2,7.7 2.2,7.7 c 0.1,0 0.1,0 0.2,-0.1 0.1,0 0.1,-0.1 0.1,-0.1 V 6.8 C 2.5,6.7 2.5,6.5 2.3,6.5 2.2,6.5 2.101,6.5 2.101,6.4 2,6.3 2,6.2 2,6 1.9,5.8 1.7,5.6 1.7,5.3 1.7,5.2 1.7,5.1 1.601,5 1.5,4.9 1.4,4.9 1.3,4.9 H 1.101 C 1,4.9 1,5 1,5 L 1.101,4.9 C 1.3,4.8 1.5,4.7 1.8,4.7 1.9,4.7 1.9,4.7 2,4.8 2.101,4.9 2.101,4.9 2.101,5 2.2,5.1 2.3,5.3 2.4,5.4 2.5,5.6 2.7,5.8 2.8,6 c 0.1,0.1 0.301,0.3 0.4,0.4 0.1,0.2 0.2,0.4 0.2,0.7 0,0.1 0,0.2 0.1,0.4 0,0.1 0.101,0.2 0.101,0.2 C 3.601,7.7 3.8,7.6 3.9,7.6 4,7.6 4.101,7.5 4.2,7.5 4.3,7.5 4.601,7.4 4.7,7.4 4.8,7.4 5,7.5 5.101,7.5 5.2,7.5 5.3,7.6 5.3,7.7 5.4,7.6 5.4,7.6 5.601,7.5 L 5.7,7.4 V 7.3 c 0,0 0,-0.1 0.1,-0.2 C 5.9,7 6,7 6.2,6.9 6.3,6.8 6.3,6.6 6.4,6.5 6.5,6.4 6.5,6.2 6.5,6.1 6.5,6 6.5,5.8 6.4,5.7 6.3,5.6 6.3,5.6 6.2,5.7 6.101,5.6 6.101,5.6 6,5.5 5.9,5.4 5.8,5.6 5.8,5.7 5.8,5.8 5.8,6.1 5.7,6.1 5.601,6.1 5.601,6 5.5,6 5.4,6 5.4,6.1 5.4,6.1 5.3,6.2 5.101,6.2 5,6.2 4.9,6.1 5.101,6 5.101,5.9 5.3,5.6 5.3,5.2 5.5,5 5.7,4.8 6,4.6 6.3,4.5 6.4,4.4 6.601,4.4 6.7,4.3 6.8,4.2 6.9,4.1 7.101,4 7.3,3.9 7.5,4.1 7.8,3.9 7.9,3.8 7.8,3.6 7.7,3.5 7.5,3.4 7.101,3.4 6.9,3.6 L 6.8,3.7 C 6.7,3.8 6.601,3.8 6.601,3.6 6.7,3.3 6.601,3.1 6.7,2.8 6.8,2.4 7.101,2.3 7.4,2.1 7.5,2 7.601,1.9 7.8,1.7 7.9,1.6 7.9,1.4 7.9,1.3 7.8,1.2 7.7,1.3 7.5,1.3 7.4,1.4 7.3,1.5 7.101,1.6 6.8,1.8 6.601,2.2 6.2,2.3 5.9,2.4 5.601,2.4 5.3,2.5 5.101,2.6 4.9,2.8 4.8,3 4.7,3.2 4.4,3.3 4.101,3.4 3.8,3.5 3.4,3.5 3.101,3.4 H 3 V 3.3 C 3,3.2 3.101,3.1 3.101,2.9 3.2,2.8 3.2,2.8 3.3,2.7 3.5,2.5 3.4,2.1 3.4,1.8 3.4,1.7 3.3,1.4 3.4,1.3 3.5,1.2 3.5,1.1 3.5,0.9 3.601,0.6 3.601,0.2 3.601,-0.1 3.4,-1.7 2.7,-3.8 2.5,-3.8 2.4,-3.8 2.4,-3.7 2.4,-3.5 2.3,-2.4 1.9,0.8 0.2,3.8 0.1,4.1 -0.1,4.3 -0.3,4.5 -0.5,4.8 -0.7,5.1 -1,5.4 -1.2,5.6 -1.4,5.8 -1.6,6 -1.6,6 -1.9,6.3 -1.9,6.2 -1.9,6.1 -1.9,6 -2,5.7 -2.1,5.3 -2.1,5.3 -2.3,5 L -2.5,4.8 -2.6,4.7 c 0,-0.1 0.1,-0.1 0.1,-0.1 0.3,-0.1 0.7,-0.2 0.9,-0.4 0.1,0 0.4,-0.3 0.3,-0.4 -0.1,-0.1 -0.2,0 -0.3,0 C -1.8,3.9 -2,3.9 -2.2,3.9 -2.6,4 -2.9,4 -3.3,4.1 -3.6,4.1 -4,4.2 -4.3,4.1 -4.5,4 -4.7,4 -4.9,3.8 -5,3.7 -5.3,3.5 -5,3.4 -4.8,3.3 -4.5,3.1 -4.3,3 -4.1,2.8 -3.9,2.4 -3.7,2.2 -3.3,1.5 -3.3,0.8 -3,0.1 c 0.2,-0.7 0.5,-1.3 0.9,-1.9 0.2,-0.3 0.4,-0.6 0.7,-0.9 0.2,-0.2 0.5,-0.4 0.7,-0.5 0.3,-0.1 0.6,-0.3 0.9,-0.5 0.1,-0.1 0.1,-0.1 -0.1,-0.1 -0.2,0 -0.2,0.1 -0.4,0.1 -0.7,0.1 -1.4,-0.1 -2.2,-0.1 -0.4,0 -0.7,0.1 -1,0.2 -0.2,0.1 -0.5,0.6 -0.4,0.9 0.1,0.1 0.2,0.1 0.4,0.1 0.1,-0.1 0.4,-0.1 0.5,-0.2 0.1,-0.1 0.4,-0.1 0.5,-0.2 0.1,0 0.4,-0.1 0.5,0 0.1,0.1 -0.1,0.2 -0.1,0.3 -0.1,0.1 -0.3,0.3 -0.4,0.4 -0.1,0.1 -0.3,0.4 -0.4,0.5 -0.7,0.7 -1.6,1.5 -2.2,2.2 -0.4,0.4 -0.7,1 -1,1.6 0,0.1 -0.1,0.1 -0.1,0.3 v 0.5 c 0.1,0.3 0.2,0.5 0.4,0.8 l 0.1,0.1 H -5.8 C -6,3.6 -6.2,3.3 -6.4,3.1 -6.7,2.7 -6.7,2.1 -6.6,1.7 -6.5,1 -6.3,0.4 -6.1,-0.2 c 0.3,-0.7 0.6,-1.5 1,-2.2 0.3,-0.6 0.7,-1.1 1.1,-1.6 0.1,-0.2 0.4,-0.4 0.5,-0.6 0.2,-0.2 0.4,-0.4 0.7,-0.5 0.6,-0.3 1.2,-0.4 1.9,-0.7 0.2,-0.1 0.7,-0.3 0.9,-0.4 0.3,-0.1 -0.1,-0.1 -0.3,-0.1 -0.4,0.1 -0.9,0.1 -1.3,0.2 -0.7,0.1 -1.2,0.2 -1.5,0.4 -0.2,0.1 -0.4,0.3 -0.5,0.4 -0.1,0.1 -0.1,0 -0.1,-0.1 0,-0.1 -0.1,-0.4 -0.1,-0.5 -0.2,-0.7 -0.6,-1.3 -1,-1.8 0,0.1 0,0.2 -0.1,0.3 -0.1,0.1 -0.3,-0.1 -0.4,-0.1 -0.3,-0.2 -0.6,-0.4 -0.9,-0.5 -0.5,-0.2 -1.1,-0.4 -1.6,-0.3 -0.2,0.1 -0.4,0.1 -0.7,0.2 0,0 -0.1,0.1 -0.1,0 0,-0.1 0,-0.2 0.1,-0.3 0.3,-0.6 1,-0.8 1.6,-0.8 -0.4,-0.1 -0.7,-0.1 -1,-0.2 -0.4,-0.1 -5.6,-1.2 -5.6,-6.5 0,-0.4 0.1,-0.7 0.2,-1 0.1,-0.2 0.3,-0.4 0.4,-0.2 0.1,0.1 0.1,0.4 0.1,0.5 0.1,0.1 0.1,0.3 0.1,0.4 0.4,1 1.3,1.8 2.2,2.4 0.1,0.1 0,0.1 0,0 -0.4,-0.1 -0.7,-0.1 -1,-0.2 -0.1,-0.1 -0.3,-0.1 -0.4,-0.2 -0.1,-0.1 -0.4,-0.1 -0.4,-0.1 -0.1,0.1 0.1,0.3 0.1,0.4 0.6,0.7 3.4,1 4.3,1.3 2.2,0.6 3.9,1.6 4.6,2.7 0.2,0.3 -0.4,0.1 -0.6,0.2 -0.1,0.1 0.5,0.5 0.6,0.5 0.3,0.1 0.7,0.2 1,0.4 0.8,0.1 1.6,0.2 2.4,0.1 0.1,0 0.1,0 0.2,-0.1 0.1,0 0.1,0.1 0.1,0.1 0.3,0.3 0.5,0.6 0.701,0.9 C 1.2,-8 1.2,-8.2 1.4,-8.4 1.5,-8.6 1.601,-8.8 1.8,-8.9 1.9,-9 2,-9 2.101,-8.8 2.2,-8.6 2.2,-8.3 2.2,-8.1 c 0,0.1 0.1,0.3 0.1,0.4 0,0.1 0,0.2 0.1,0.2 0.3,0 0.6,-0.1 0.8,-0.2 C 3.5,-7.8 3.601,-7.9 4,-8 4.2,-8.1 4.4,-8.1 4.601,-7.9 4.7,-7.8 4.5,-7.7 4.5,-7.6 c -0.1,0.1 -0.1,0.4 -0.1,0.7 0.1,0.3 0.1,0.6 0.4,0.8 0.2,0.2 0.6,0.4 0.9,0.5 0.1,0 0.3,0.1 0.2,0.2 0,0.1 -0.4,0 -0.4,0 -0.399,0 -0.7,0.1 -1,0.1 -0.7,0.1 -1.3,0.4 -2.1,0.5 -0.299,0.1 -0.7,0 -1,0 -0.299,0 -0.7,-0.1 -1,-0.1 -0.3,0 -0.7,0 -0.9,0.1 -0.1,0.1 -0.4,0.3 -0.2,0.4 0.1,0.1 0.2,0.1 0.4,0.1 h 0.4 c 0.4,0 0.7,0 1.1,-0.1 C 1.8,-4.5 2.4,-4.6 2.9,-4.8 3,-4 3.601,-2.5 3.7,-1.7 3.8,-1.2 4,-0.5 4.101,0 4.8,-0.2 5.5,-0.3 6.3,-0.4 c 0.801,-0.1 1.6,-0.2 2.4,-0.2 0.5,0 1,0 1.5,0.1 0.2,0 0.401,0.1 0.5,0.2 0.2,0.1 0.401,0.3 0.5,0.5 -0.4,-0.1 -0.5,0.1 -0.599,0.3"></path> </g> </g> </g> </g> </svg> 