<?xml version="1.0" encoding="UTF-8" standalone="no"?> <svg xmlns:dc="http://purl.org/dc/elements/1.1/" xmlns:cc="http://creativecommons.org/ns#" xmlns:rdf="http://www.w3.org/1999/02/22-rdf-syntax-ns#" xmlns:svg="http://www.w3.org/2000/svg" xmlns="http://www.w3.org/2000/svg" viewBox="0 0 186.66667 186.66667" height="186.66667" width="186.66667" xml:space="preserve" id="svg2"> <metadata id="metadata8"></metadata> <defs id="defs6"> <clipPath id="clipPath18" clipPathUnits="userSpaceOnUse"> <path id="path16" d="M 0,140 H 140 V 0 H 0 Z"></path> </clipPath> </defs> <g transform="matrix(1.3333333,0,0,-1.3333333,0,186.66667)" id="g10"> <g id="g12"> <g clip-path="url(#clipPath18)" id="g14"> <g transform="translate(124.165,75.2534)" id="g20"> <path id="path22" style="fill:#000000;fill-opacity:1;fill-rule:evenodd;stroke:none" d="m 0,0 c 0,-0.753 -0.553,-1.298 -1.261,-1.298 -0.716,0 -1.269,0.545 -1.269,1.298 0,0.737 0.553,1.291 1.269,1.291 C -0.553,1.291 0,0.737 0,0 m -2.83,0 c 0,-0.895 0.72,-1.548 1.569,-1.548 C -0.42,-1.548 0.3,-0.895 0.3,0 0.3,0.887 -0.42,1.541 -1.261,1.541 -2.11,1.541 -2.83,0.887 -2.83,0 m 1.24,0.662 h 0.371 c 0.312,0 0.395,-0.096 0.395,-0.266 0,-0.196 -0.109,-0.292 -0.442,-0.292 H -1.59 Z m 0,-0.783 h 0.309 l 0.473,-0.774 h 0.301 l -0.508,0.783 c 0.266,0.033 0.465,0.17 0.465,0.491 0,0.35 -0.207,0.508 -0.633,0.508 h -0.682 v -1.782 h 0.275 z"></path> </g> <g transform="translate(86.5527,58.2266)" id="g24"> <path id="path26" style="fill:#000000;fill-opacity:1;fill-rule:nonzero;stroke:none" d="m 0,0 c 0.547,0 1.653,0.923 2.2,2.298 0.686,1.719 0.846,4.573 0.846,9.798 0,5.228 -0.569,8.02 -1.217,9.612 C 1.178,23.299 0.35,23.68 0,23.68 c -0.354,0 -1.181,-0.381 -1.829,-1.972 -0.652,-1.592 -1.126,-4.384 -1.126,-9.612 0,-5.225 0.534,-8.315 1.218,-10.034 C -1.052,0.346 -0.167,0 0,0 m -5.387,0.85 c -1.719,1.91 -3.192,5.139 -3.192,10.593 0,6.87 2.046,9.933 3.982,11.827 1.581,1.542 3.64,2.565 4.597,2.565 0.951,0 3.296,-0.756 4.876,-2.3 1.936,-1.891 3.7,-5.222 3.7,-12.092 C 8.576,5.989 6.814,2.76 5.099,0.85 3.435,-0.999 0.33,-1.874 -0.346,-1.874 c -0.343,0 -2.836,0.268 -5.041,2.724"></path> </g> <g transform="translate(42.3589,66.7578)" id="g28"> <path id="path30" style="fill:#000000;fill-opacity:1;fill-rule:nonzero;stroke:none" d="m 0,0 c 0.772,0.578 1.269,1.805 0.421,3.3 -0.448,0.793 -1.16,2.221 -1.265,2.432 -0.107,0.205 -0.264,0.498 -0.29,0.763 -0.035,0.337 -0.244,0.438 -0.37,0.183 -0.501,-1 -0.926,-2.614 -1.004,-4.485 -0.078,-1.873 0.448,-3.089 0.503,-3.274 0.051,-0.186 0.155,-0.238 0.291,-0.135 0,0 0.975,0.665 1.714,1.216 M 4.013,5.411 C 4.8,4.099 4.718,2.379 3.328,1.137 2.586,0.478 -1.108,-2.269 -1.295,-2.401 c -0.185,-0.134 -0.209,-0.266 -0.129,-0.5 0.669,-2.012 2.075,-3.408 3.8,-3.408 1.374,0 2.507,0.9 2.584,1.054 0.084,0.161 0.137,0.108 0.187,0 0.054,-0.102 0.132,-0.393 0.16,-0.55 0.023,-0.16 -0.054,-0.238 -0.187,-0.32 -0.13,-0.079 -5.305,-3.879 -5.439,-3.961 -0.13,-0.075 -0.242,-0.089 -0.394,-0.022 -2.43,1 -4.911,3.516 -4.911,8.789 0,3.65 1.418,7.34 4.412,9.478 0.737,0.527 2.347,1.53 2.479,1.639 0.13,0.099 0.21,0.022 0.265,-0.084 0,0 1.926,-3.376 2.481,-4.303"></path> </g> <g transform="translate(62.5278,66.7578)" id="g32"> <path id="path34" style="fill:#000000;fill-opacity:1;fill-rule:nonzero;stroke:none" d="m 0,0 c 0.771,0.578 1.268,1.805 0.421,3.3 -0.449,0.793 -1.162,2.221 -1.266,2.432 -0.107,0.205 -0.265,0.498 -0.291,0.763 -0.033,0.337 -0.242,0.438 -0.37,0.183 -0.502,-1 -0.921,-2.614 -1.002,-4.485 -0.078,-1.873 0.447,-3.089 0.5,-3.274 0.051,-0.186 0.16,-0.238 0.29,-0.135 0,0 0.977,0.665 1.718,1.216 M 4.01,5.411 C 4.799,4.099 4.716,2.379 3.326,1.137 2.586,0.478 -1.11,-2.269 -1.295,-2.401 c -0.186,-0.134 -0.211,-0.266 -0.135,-0.5 0.672,-2.012 2.079,-3.408 3.804,-3.408 1.375,0 2.509,0.9 2.588,1.054 0.079,0.161 0.132,0.108 0.186,0 0.051,-0.102 0.13,-0.393 0.157,-0.55 0.027,-0.16 -0.055,-0.238 -0.186,-0.32 -0.13,-0.079 -5.306,-3.879 -5.438,-3.961 -0.13,-0.075 -0.241,-0.089 -0.394,-0.022 -2.43,1 -4.91,3.516 -4.91,8.789 0,3.65 1.415,7.34 4.409,9.478 0.739,0.527 2.346,1.53 2.481,1.639 0.132,0.099 0.21,0.022 0.264,-0.084 0,0 1.926,-3.376 2.479,-4.303"></path> </g> <g transform="translate(116.9492,66.874)" id="g36"> <path id="path38" style="fill:#000000;fill-opacity:1;fill-rule:nonzero;stroke:none" d="M 0,0 C 0.771,0.579 1.27,1.808 0.423,3.301 -0.025,4.091 -0.741,5.518 -0.843,5.731 -0.952,5.94 -1.11,6.229 -1.136,6.496 -1.168,6.833 -1.377,6.93 -1.504,6.68 -2.006,5.678 -2.429,4.064 -2.51,2.19 c -0.078,-1.875 0.45,-3.085 0.504,-3.273 0.051,-0.187 0.158,-0.235 0.288,-0.135 0,0 0.977,0.664 1.718,1.218 M 4.008,5.411 C 4.801,4.095 4.719,2.38 3.326,1.137 2.588,0.472 -1.11,-2.271 -1.296,-2.405 c -0.185,-0.131 -0.208,-0.26 -0.13,-0.501 0.667,-2.004 2.079,-3.404 3.802,-3.404 1.37,0 2.509,0.899 2.586,1.057 0.08,0.157 0.133,0.106 0.185,0 0.049,-0.109 0.13,-0.395 0.158,-0.557 0.025,-0.157 -0.051,-0.236 -0.186,-0.317 -0.131,-0.077 -5.305,-3.879 -5.437,-3.956 -0.129,-0.082 -0.241,-0.094 -0.395,-0.031 -2.432,1.007 -4.909,3.519 -4.909,8.796 0,3.645 1.414,7.341 4.407,9.472 0.74,0.53 2.35,1.535 2.484,1.64 0.13,0.106 0.21,0.025 0.264,-0.08 0,0 1.926,-3.381 2.475,-4.303"></path> </g> <g transform="translate(56.0449,75.7471)" id="g40"> <path id="path42" style="fill:#000000;fill-opacity:1;fill-rule:nonzero;stroke:none" d="m 0,0 c -0.195,0 -2.166,-0.014 -2.358,-0.014 -0.198,0 -0.255,0.058 -0.255,0.246 0,0.198 -0.07,4.458 -0.077,4.739 -0.008,0.266 -0.096,0.254 -0.258,0.254 -0.163,0 -0.277,-0.115 -0.33,-0.214 -0.048,-0.103 -1.538,-2.346 -2.64,-3.761 -1.101,-1.417 -2.237,-2.531 -2.283,-2.578 -0.049,-0.047 -0.066,-0.116 -0.066,-0.151 0,0 -0.003,-0.283 -0.028,-0.451 -0.015,-0.08 0.016,-0.148 0.14,-0.148 0.11,0 0.378,-0.002 0.573,-0.002 0.701,0 0.963,-0.557 0.963,-0.894 0,-0.193 0.083,-8.628 0.083,-9.826 0,-1.202 -0.103,-2.338 0.364,-3.697 0.418,-1.219 1.774,-1.884 2.008,-1.986 0.216,-0.085 0.419,-0.026 0.533,0.113 0.113,0.14 2.814,3.096 2.954,3.223 0.129,0.115 0.114,0.206 -0.003,0.225 -0.586,0.097 -1.003,0.438 -1.304,0.742 -0.391,0.39 -0.655,0.98 -0.655,1.954 0,0.977 0.003,9.37 0.003,9.577 0,0.212 0.123,0.268 0.261,0.268 0.142,0 1.531,-0.024 1.698,0.006 0.165,0.028 0.223,0.058 0.275,0.194 0.06,0.14 0.57,1.843 0.6,2.014 C 0.215,-0.055 0.198,0 0,0"></path> </g> <g transform="translate(104.6006,69.8081)" id="g44"> <path id="path46" style="fill:#000000;fill-opacity:1;fill-rule:nonzero;stroke:none" d="m 0,0 c 0,-2.655 0.053,-6.364 0.053,-7.095 0,-1.201 -0.106,-2.332 0.361,-3.696 0.421,-1.214 1.619,-1.906 1.858,-2.007 0.212,-0.085 0.421,-0.027 0.532,0.11 0.11,0.14 2.754,2.781 2.895,2.911 0.125,0.111 0.114,0.204 -0.005,0.225 C 5.107,-9.458 4.735,-9.218 4.482,-8.87 4.05,-8.283 4.01,-7.528 4.01,-6.55 4.01,-5.658 3.944,1.695 3.944,3.064 3.944,4.381 3.245,5.27 2.901,5.571 2.219,6.169 1.52,6.5 0.982,6.674 0.754,6.755 0.62,6.763 0.335,6.542 0.029,6.306 -2.665,3.711 -2.766,3.609 -2.869,3.508 -2.938,3.575 -2.938,3.78 c 0,0.204 -0.103,1.192 -0.681,1.842 -0.578,0.646 -1.259,0.927 -1.465,1.052 -0.192,0.122 -0.28,0.112 -0.391,0.013 C -5.742,6.444 -6.294,5.948 -6.936,5.359 -7.557,4.79 -8.285,4.199 -8.506,4.044 -8.827,3.823 -8.595,3.502 -8.492,3.638 c 0.101,0.133 0.109,0.196 0.344,0.109 0.211,-0.082 1.294,-0.543 1.294,-2.351 v -13.764 c 0,-0.133 0.066,-0.202 0.203,-0.202 h 3.578 c 0.103,0 0.238,0.069 0.238,0.241 0,0.166 -0.055,12.023 -0.055,13.589 0,1.268 0.451,1.899 1.13,1.899 C -1.147,3.159 0,2.349 0,0"></path> </g> <g transform="translate(72.7539,80.4238)" id="g48"> <path id="path50" style="fill:#000000;fill-opacity:1;fill-rule:nonzero;stroke:none" d="m 0,0 c 0,-1.903 -0.002,-16.06 -0.002,-16.904 0,-0.977 0.268,-1.564 0.655,-1.955 0.306,-0.304 0.715,-0.609 1.341,-0.551 0.125,0.01 0.228,-0.179 0.104,-0.296 -0.142,-0.128 -3.324,-3.201 -3.435,-3.344 -0.111,-0.137 -0.318,-0.195 -0.531,-0.11 -0.236,0.1 -1.303,0.767 -1.721,1.986 -0.434,1.254 -0.363,2.378 -0.363,3.695 0,1.044 -0.027,12.517 -0.027,14.427 0,1.765 -0.585,2.658 -1.542,3.389 -0.238,0.181 -0.225,0.309 0.014,0.446 0.242,0.14 1.26,0.745 2.101,1.277 0.839,0.532 1.456,0.938 1.54,1.076 0.085,0.143 0.21,0.167 0.423,0.087 C -1.236,3.136 -0.718,2.72 -0.366,2.03 -0.029,1.367 0,0.729 0,0"></path> </g> <g transform="translate(32.3608,87.1143)" id="g52"> <path id="path54" style="fill:#000000;fill-opacity:1;fill-rule:nonzero;stroke:none" d="m 0,0 -5.024,-2.862 c -0.091,-0.054 -0.142,-0.118 -0.142,-0.193 0,-0.066 0.042,-0.129 0.122,-0.175 0.071,-0.042 1.784,-1.064 2.084,-2.992 0.029,-0.195 0.044,-0.396 0.044,-0.596 0,-1.383 -0.721,-2.873 -2.141,-4.444 -2.455,-2.709 -3.692,-2.823 -3.705,-2.824 -0.086,-0.013 -0.171,0.012 -0.234,0.068 -0.064,0.057 -0.1,0.138 -0.1,0.23 v 12.745 c 0,0.141 -0.116,0.259 -0.257,0.259 h -7.068 -0.252 c -0.143,0 -0.201,-0.145 -0.107,-0.254 1.665,-1.934 1.715,-4.226 1.715,-4.482 l -0.003,-0.611 v -24.706 c 0,-0.141 0.114,-0.258 0.256,-0.258 h 5.535 c 0.14,0 0.256,0.117 0.256,0.258 v 14.213 c 0,0.216 0.087,0.373 0.261,0.49 l 1.202,0.761 c 0.077,0.047 0.164,0.062 0.247,0.04 0.083,-0.025 0.151,-0.08 0.187,-0.154 0,-0.004 0,-0.004 9.286,-18.615 0.06,-0.125 0.228,-0.209 0.372,-0.178 0.001,0 0.001,0 2.368,0.564 0.056,0.014 0.095,0.062 0.102,0.121 0.008,0.068 -0.028,0.123 -0.099,0.158 -0.054,0.025 -0.56,0.245 -1.175,0.848 -0.593,0.58 -1.325,1.596 -1.443,3.145 -0.134,1.729 0.04,5.915 0.06,6.384 0.18,8.436 -4.906,11.042 -4.96,11.069 -0.082,0.041 -0.134,0.107 -0.142,0.179 -0.011,0.075 0.023,0.149 0.094,0.208 2.245,1.939 2.247,1.94 2.249,1.942 3.641,2.975 3.468,5.343 3.458,5.44 C 3.1,-1.434 0.5,-0.007 0.473,0.006 0.346,0.078 0.13,0.074 0,0"></path> </g> </g> </g> </g> </svg> 