<?xml version="1.0" encoding="UTF-8" standalone="no"?> <svg xmlns:dc="http://purl.org/dc/elements/1.1/" xmlns:cc="http://creativecommons.org/ns#" xmlns:rdf="http://www.w3.org/1999/02/22-rdf-syntax-ns#" xmlns:svg="http://www.w3.org/2000/svg" xmlns="http://www.w3.org/2000/svg" viewBox="0 0 186.66667 186.66667" height="186.66667" width="186.66667" xml:space="preserve" id="svg2"> <metadata id="metadata8"></metadata> <defs id="defs6"> <clipPath id="clipPath22" clipPathUnits="userSpaceOnUse"> <path id="path20" d="M 0,140 H 140 V 0 H 0 Z"></path> </clipPath> </defs> <g transform="matrix(1.3333333,0,0,-1.3333333,0,186.66667)" id="g10"> <g transform="translate(117,77.1001)" id="g12"> <path id="path14" style="fill:#000000;fill-opacity:1;fill-rule:nonzero;stroke:none" d="M 0,0 0.3,-0.9 0.6,0 H 1 V -1.3 H 0.7 v 1 l -0.4,-1 H 0.1 l -0.4,1 v -1 H -0.601 V 0 Z M -1.7,-0.2 V 0 h 1.1 v -0.2 h -0.5 v -1.1 h -0.3 v 1.1 z"></path> </g> <g id="g16"> <g clip-path="url(#clipPath22)" id="g18"> <g transform="translate(104,75.6001)" id="g24"> <path id="path26" style="fill:#000000;fill-opacity:1;fill-rule:nonzero;stroke:none" d="M 0,0 C 0,0.8 0.4,1.2 0.9,1.5 H -2.8 C -2.3,1.2 -1.9,0.7 -1.9,0 v -7.5 c 0,-2.3 0.1,-3.1 1,-4 1.1,-1.1 2.9,-1.5 4.3,-1.5 3.6,0 5.2,1.8 5.2,4.7 V -1 c 0,1.3 0.3,2 1.3,2.5 H 6.5 c 0.9,-0.4 1.3,-1.1 1.3,-2 v -7.4 c 0,-2.6 -1.1,-3.9 -4,-4 -1.2,0 -2.2,0.3 -2.8,0.9 -0.6,0.6 -0.8,1.4 -0.8,2.7 l 0,8.4 H 0 Z m -11.1,-12.5 h 3.9 c -0.5,0.2 -1,0.6 -1,1.6 v 11 c 0,0.8 0.4,1.1 0.8,1.5 h -3.7 c 0.5,-0.3 0.9,-0.8 0.9,-1.5 v -4.8 h -7.5 v 4.8 c 0,0.8 0.3,1.1 0.8,1.5 h -3.5 c 0.4,-0.3 0.799,-0.8 0.799,-1.5 v -10.9 c 0,-0.8 -0.399,-1.5 -1,-1.7 h 3.901 c -0.5,0.2 -1,0.6 -1,1.6 v 5.3 h 7.5 v -5.3 c 0.1,-0.8 -0.3,-1.4 -0.9,-1.6 m -58.6,10.3 c -0.8,1.5 -2.2,3.1 -4.6,3.1 -3.1,0.1 -5.3,-3.1 -5.3,-6.4 0.1,-3.4 1.7,-6.6 5.3,-6.6 1.9,0 3.7,1.1 4.6,2.5 l -0.3,-2.1 c -0.8,-0.6 -2.4,-1.3 -4.6,-1.3 -4.5,-0.1 -7.6,3.2 -7.5,7.4 0,1.8 0.8,3.5 2,4.8 1.1,1.1 2.5,1.9 3.9,2.2 2.2,0.4 3.7,-0.1 4.8,-0.4 0.6,-0.2 1.1,0.2 1.4,0.6 z m 31.4,-10.3 c 0.3,0.1 0.6,0.3 0.9,0.6 0.1,0.2 0.3,0.6 0.3,1.1 v 10.6 c 0,0.4 0,1 -0.3,1.3 -0.1,0.1 -0.5,0.5 -0.8,0.6 h 5.7 c 5.1,0 8,-3.3 8,-6.7 0.1,-3.8 -2.9,-7.3 -8,-7.3 z M -35,0.8 v -12.5 c 0.7,-0.1 1.8,-0.1 2.7,-0.1 1.6,0.1 2.8,0.4 3.9,1.6 1,1.1 1.7,2.6 1.7,4.9 0,3.3 -2.2,5.6 -4.8,6 -1.2,0.1 -2.4,0.1 -3.5,0.1 m -14.8,-11.5 c 0,-0.4 0,-0.9 0.3,-1.3 0.1,-0.2 0.5,-0.4 0.7,-0.6 h -3.9 c 0.1,0 0.4,0.3 0.6,0.6 0.2,0.3 0.3,0.7 0.3,1.4 V 0 c 0,0.3 0,0.6 -0.2,1 -0.2,0.3 -0.6,0.5 -0.7,0.6 h 3.8 c 2,0 3.2,-0.2 4.3,-0.8 1.4,-0.7 2,-1.8 2,-3 0.1,-2.7 -2.5,-3.8 -4.5,-4 0.3,-0.2 1.2,-1 2.7,-2.9 1,-1.3 2,-2.5 2.7,-3 0.3,-0.3 0.5,-0.4 0.9,-0.4 h -3.6 c -0.1,0.299 -0.1,0.299 -0.3,0.799 -0.3,0.5 -2.5,3.601 -3.4,4.401 -0.6,0.599 -1.4,1.3 -1.7,1.5 z m 5.2,8.3 c 0,2.7 -2.1,3.2 -3.9,3.2 -0.5,0 -0.8,0 -1.1,-0.1 v -6.4 c 0.3,-0.1 0.8,-0.1 1.7,0 1.5,0.1 3.2,0.8 3.3,3.3 m -17.6,2.1 -2.5,-6.1 h 5 z m -7.1,-12.2 c 0.4,0.2 0.7,0.6 0.9,0.8 0.3,0.3 0.8,1.2 1.2,2.1 l 4.6,11.1 h 1.8 l 5.2,-12.6 c 0.1,-0.3 0.3,-0.6 0.5,-0.8 0.3,-0.3 0.8,-0.6 0.9,-0.6 h -4.1 c 0,0 0.3,0.3 0.4,0.6 0.1,0.5 0,1.1 -0.1,1.4 l -1.3,3.2 H -65 l -1.3,-3.1 c -0.2,-0.5 -0.3,-1.3 -0.1,-1.5 0.2,-0.4 0.6,-0.6 0.6,-0.6 z"></path> </g> </g> </g> </g> </svg> 