<?xml version="1.0" encoding="UTF-8"?> <svg xmlns="http://www.w3.org/2000/svg" id="Layer_1" data-name="Layer 1" viewBox="0 0 423.73 102.01"> <defs> <style>.cls-1{fill:#fff;}</style> </defs> <title>WC Logo - FINAL</title> <polygon class="cls-1" points="194.94 10.38 192.89 19.49 182.53 19.49 159.42 0 159.42 43.09 182.53 23.6 192.89 23.6 194.94 32.72 196.99 32.72 196.99 10.38 194.94 10.38"></polygon> <polygon class="cls-1" points="202.99 32.72 205.04 23.6 215.4 23.6 238.51 43.09 238.51 0 215.4 19.49 205.04 19.49 202.99 10.37 200.94 10.37 200.94 32.72 202.99 32.72"></polygon> <path class="cls-1" d="M503.67,245.37l-46-1.17h0a1.17,1.17,0,1,0,0,2.33h0Z" transform="translate(-209.19 -223.45)"></path> <path class="cls-1" d="M312.64,245.37l46-1.17h0a1.17,1.17,0,1,1,0,2.33h0Z" transform="translate(-209.19 -223.45)"></path> <path class="cls-1" d="M209.19,298.1h7.48L220.11,316l4.2-17.24h6.44L235,316l3.4-17.88h7.24L239,324.78h-7.4l-4.2-16.88-4.2,16.88h-7.52Z" transform="translate(-209.19 -223.45)"></path> <path class="cls-1" d="M273.46,325.42a14.35,14.35,0,0,1-5.54-1.06,13.48,13.48,0,0,1-4.4-2.92,13.1,13.1,0,0,1-2.9-4.44,15.7,15.7,0,0,1,0-11.24,13,13,0,0,1,7.3-7.34,14.53,14.53,0,0,1,5.54-1,14.71,14.71,0,0,1,5.56,1,13,13,0,0,1,4.4,2.9,13.33,13.33,0,0,1,2.87,4.44,15.57,15.57,0,0,1,0,11.24,12.95,12.95,0,0,1-7.27,7.36A14.53,14.53,0,0,1,273.46,325.42Zm0-6.64a6.52,6.52,0,0,0,2.78-.58,6.2,6.2,0,0,0,2.06-1.58,7.07,7.07,0,0,0,1.28-2.36,9.65,9.65,0,0,0,0-5.76,7.07,7.07,0,0,0-1.28-2.36,6.07,6.07,0,0,0-2.06-1.58,7,7,0,0,0-5.56,0,6,6,0,0,0-2.06,1.58,6.89,6.89,0,0,0-1.28,2.36,9.65,9.65,0,0,0,0,5.76,6.89,6.89,0,0,0,1.28,2.36,6.1,6.1,0,0,0,2.06,1.58A6.49,6.49,0,0,0,273.46,318.78Z" transform="translate(-209.19 -223.45)"></path> <path class="cls-1" d="M304.09,298.1h11a12.8,12.8,0,0,1,3.9.56,8.25,8.25,0,0,1,3,1.66,7.3,7.3,0,0,1,1.92,2.74,9.91,9.91,0,0,1,.68,3.8,8.78,8.78,0,0,1-1.16,4.58,9,9,0,0,1-3.08,3.1l5.72,10.24h-7.6L314,315.7h-3v9.08h-6.92Zm10.36,12a3.15,3.15,0,0,0,2.28-.86,3.05,3.05,0,0,0,.88-2.3,3.34,3.34,0,0,0-.84-2.4,3.1,3.1,0,0,0-2.36-.88H311v6.44Z" transform="translate(-209.19 -223.45)"></path> <path class="cls-1" d="M342.21,298.1h7.08v20.44h12.36v6.24H342.21Z" transform="translate(-209.19 -223.45)"></path> <path class="cls-1" d="M377.8,298.1H388a19.58,19.58,0,0,1,5.7.8,12.5,12.5,0,0,1,4.54,2.44,11,11,0,0,1,3,4.2,15.48,15.48,0,0,1,1.08,6,14.12,14.12,0,0,1-1.1,5.78,11.63,11.63,0,0,1-3,4.12,12.73,12.73,0,0,1-4.56,2.48,19.25,19.25,0,0,1-5.68.82H377.8Zm10,20.44a6.69,6.69,0,0,0,7.28-7.12,9.1,9.1,0,0,0-.44-2.9,5.91,5.91,0,0,0-1.34-2.24,6.05,6.05,0,0,0-2.26-1.46,9,9,0,0,0-3.24-.52h-2.88v14.24Z" transform="translate(-209.19 -223.45)"></path> <path class="cls-1" d="M456.75,319.82a14.48,14.48,0,0,1-11.88,5.64,14.94,14.94,0,0,1-5.64-1,12.69,12.69,0,0,1-7.22-7.28,15.13,15.13,0,0,1-1-5.64,15.55,15.55,0,0,1,1-5.62,13.42,13.42,0,0,1,2.84-4.48,13,13,0,0,1,4.4-3,14.57,14.57,0,0,1,5.64-1.06,17.55,17.55,0,0,1,6.44,1.16,11,11,0,0,1,5,4l-4.68,4.72a9,9,0,0,0-2.68-2.44,6.89,6.89,0,0,0-3.56-.92,7.68,7.68,0,0,0-3,.56,6.11,6.11,0,0,0-2.22,1.56,6.94,6.94,0,0,0-1.38,2.34,8.52,8.52,0,0,0-.48,2.9,8.63,8.63,0,0,0,.5,3,7.19,7.19,0,0,0,1.42,2.36,6.75,6.75,0,0,0,2.22,1.56,7.35,7.35,0,0,0,2.9.56,7.73,7.73,0,0,0,3.78-.82,10.05,10.05,0,0,0,2.86-2.58Z" transform="translate(-209.19 -223.45)"></path> <path class="cls-1" d="M472.31,298.1h7.08v20.44h12.36v6.24H472.31Z" transform="translate(-209.19 -223.45)"></path> <path class="cls-1" d="M515.22,298.1h8.12l9.44,26.68h-7.64l-1.72-5.52H514.5l-1.76,5.52h-7.32Zm6.76,16-3-9.8-3.08,9.8Z" transform="translate(-209.19 -223.45)"></path> <path class="cls-1" d="M550.09,316.34a11.71,11.71,0,0,0,2.92,2,8.61,8.61,0,0,0,4,.92,7,7,0,0,0,1.08-.1,3.47,3.47,0,0,0,1-.34,2.11,2.11,0,0,0,.72-.64,1.85,1.85,0,0,0,.28-1,2,2,0,0,0-1.06-1.72,13.94,13.94,0,0,0-3.1-1.36l-1.48-.48a18.17,18.17,0,0,1-2.5-1,10.6,10.6,0,0,1-2.26-1.54,7.17,7.17,0,0,1-1.62-2.12,6.28,6.28,0,0,1-.62-2.86,8.59,8.59,0,0,1,.68-3.42,7.9,7.9,0,0,1,2-2.76,9,9,0,0,1,3.22-1.84,13.65,13.65,0,0,1,4.44-.66,16.31,16.31,0,0,1,3.56.36,15.69,15.69,0,0,1,2.8.88,11.32,11.32,0,0,1,2,1.12,8.69,8.69,0,0,1,1.28,1.08l-3.6,4.56a15.19,15.19,0,0,0-2.92-1.7,7.81,7.81,0,0,0-3.12-.66,4.55,4.55,0,0,0-1,.12,3.4,3.4,0,0,0-.94.36,2,2,0,0,0-.68.62,1.58,1.58,0,0,0-.26.94,1.79,1.79,0,0,0,.3,1,2.62,2.62,0,0,0,.82.76,6.2,6.2,0,0,0,1.26.58l1.58.54,1.28.4q1.35.44,2.76,1a9.33,9.33,0,0,1,2.52,1.56,7.73,7.73,0,0,1,1.84,2.44,8,8,0,0,1,.72,3.58,7,7,0,0,1-.86,3.4,8.73,8.73,0,0,1-2.32,2.68,11.36,11.36,0,0,1-3.44,1.74,14.17,14.17,0,0,1-4.22.62,18.57,18.57,0,0,1-6.7-1.06,13.87,13.87,0,0,1-4.58-2.86Z" transform="translate(-209.19 -223.45)"></path> <path class="cls-1" d="M586.44,316.34a11.9,11.9,0,0,0,2.92,2,8.61,8.61,0,0,0,4,.92,6.78,6.78,0,0,0,1.08-.1,3.27,3.27,0,0,0,1-.34,1.94,1.94,0,0,0,.72-.64,1.77,1.77,0,0,0,.28-1,2,2,0,0,0-1.06-1.72,13.73,13.73,0,0,0-3.1-1.36l-1.48-.48a18.7,18.7,0,0,1-2.5-1A10.6,10.6,0,0,1,586,311a7.52,7.52,0,0,1-1.62-2.12,6.28,6.28,0,0,1-.62-2.86,8.59,8.59,0,0,1,.68-3.42,8.16,8.16,0,0,1,2-2.76,9.12,9.12,0,0,1,3.22-1.84,13.65,13.65,0,0,1,4.44-.66,16.18,16.18,0,0,1,3.56.36,15.43,15.43,0,0,1,2.8.88,11.32,11.32,0,0,1,2,1.12,8.19,8.19,0,0,1,1.28,1.08l-3.6,4.56a14.61,14.61,0,0,0-2.92-1.7,7.74,7.74,0,0,0-3.12-.66,4.68,4.68,0,0,0-1,.12,3.53,3.53,0,0,0-.94.36,2.13,2.13,0,0,0-.68.62,1.65,1.65,0,0,0-.26.94,1.79,1.79,0,0,0,.3,1,2.73,2.73,0,0,0,.82.76,6.75,6.75,0,0,0,1.26.58l1.58.54,1.28.4q1.37.44,2.76,1a9,9,0,0,1,2.52,1.56,7.59,7.59,0,0,1,1.84,2.44,8,8,0,0,1,.72,3.58,6.87,6.87,0,0,1-.86,3.4,8.47,8.47,0,0,1-2.32,2.68,11.24,11.24,0,0,1-3.44,1.74,14.12,14.12,0,0,1-4.22.62,18.61,18.61,0,0,1-6.7-1.06,13.82,13.82,0,0,1-4.57-2.86Z" transform="translate(-209.19 -223.45)"></path> <path class="cls-1" d="M619.58,299.33V298.1H625v1.23h-2v5.4h-1.46v-5.4Z" transform="translate(-209.19 -223.45)"></path> <path class="cls-1" d="M627.83,298.1l1.55,4.56h0l1.46-4.56h2.06v6.63h-1.37V300h0l-1.62,4.7h-1.13l-1.62-4.65h0v4.65h-1.37V298.1Z" transform="translate(-209.19 -223.45)"></path> </svg> 